<?xml version="1.0" encoding="utf-8"?>
<!-- Generator: Adobe Illustrator 24.2.1, SVG Export Plug-In . SVG Version: 6.00 Build 0)  -->
<svg version="1.1" id="Capa_1" xmlns="http://www.w3.org/2000/svg" xmlns:xlink="http://www.w3.org/1999/xlink" x="0px" y="0px"
	 viewBox="0 0 55 55" style="enable-background:new 0 0 55 55;" xml:space="preserve">
<style type="text/css">
	.st0{fill:#6B6B6B;}
</style>
<path class="st0" d="M55,27.5C55,12.3,42.7,0,27.5,0S0,12.3,0,27.5c0,8,3.4,15.2,8.9,20.3l0,0l0.9,0.8c0.1,0,0.1,0.1,0.2,0.1
	c0.5,0.4,1,0.8,1.5,1.1c0.2,0.1,0.3,0.2,0.5,0.3c0.5,0.4,1.1,0.7,1.6,1c0.1,0.1,0.2,0.1,0.4,0.2c0.6,0.3,1.2,0.7,1.9,1
	c0,0,0.1,0,0.1,0.1c2.1,1,4.3,1.7,6.7,2.1c0.1,0,0.1,0,0.2,0c0.7,0.1,1.5,0.2,2.2,0.3c0.1,0,0.2,0,0.3,0C26,55,26.7,55,27.5,55
	c0.7,0,1.5,0,2.2-0.1c0.1,0,0.2,0,0.3,0c0.7-0.1,1.5-0.2,2.2-0.3c0.1,0,0.1,0,0.2,0c2.3-0.4,4.5-1.1,6.6-2.1c0.1,0,0.2-0.1,0.2-0.1
	c0.6-0.3,1.2-0.6,1.8-0.9c0.1-0.1,0.3-0.2,0.4-0.3c0.5-0.3,1.1-0.6,1.6-1c0.2-0.1,0.4-0.3,0.5-0.4c0.4-0.3,0.9-0.6,1.3-1
	c0.1-0.1,0.2-0.1,0.3-0.2l0.9-0.8l0,0C51.5,42.8,55,35.5,55,27.5z M2,27.5C2,13.4,13.4,2,27.5,2S53,13.4,53,27.5
	c0,7.6-3.3,14.4-8.6,19.1c-0.3-0.2-0.6-0.4-0.9-0.5L35,41.9c-0.8-0.4-1.2-1.1-1.2-2v-3c0.2-0.2,0.4-0.5,0.6-0.8
	c1.1-1.5,2-3.3,2.6-5.1c1.3-0.6,2.1-1.9,2.1-3.3v-3.5c0-0.9-0.3-1.7-0.9-2.4V17c0.1-0.5,0.2-3.4-1.9-5.9c-1.8-2-4.8-3.1-8.8-3.1
	s-7,1.1-8.9,3.2c-2.1,2.4-1.9,5.3-1.9,5.9v4.7c-0.6,0.7-0.9,1.5-0.9,2.4v3.5c0,1.1,0.5,2.1,1.3,2.8c0.8,3.2,2.5,5.6,3.1,6.4v2.9
	c0,0.8-0.4,1.6-1.2,2L11.2,46c-0.3,0.1-0.5,0.3-0.8,0.5C5.3,41.8,2,35,2,27.5z"/>
</svg>
