<svg xmlns="http://www.w3.org/2000/svg" xmlns:xlink="http://www.w3.org/1999/xlink" viewBox="0 0 750 500"><defs><style>.accf2db2-061b-43bf-810a-62efd2b745dc{fill:none;}.bfcb85a6-d63b-4673-93bc-07f5d5f4a738{isolation:isolate;}.b2db8deb-1222-4f7c-a046-bbb2f2b9a602,.b55eea4a-a0ed-4889-abe7-555d05d7c0fc,.fe3011cb-899c-44eb-b719-d8f610d45e2f{mix-blend-mode:multiply;}.a07cb0fb-3619-4c58-9c8f-bfa32227511b{clip-path:url(#aaf70dc1-3ff3-4c1f-9d1d-6a00c43231e4);}.ebb93191-221f-4277-b98b-ae10baebdddc{fill:#1992b7;}.e70ac4ef-1718-45b2-aa86-28cc7306b8ae{fill:#34b8d6;}.a4239419-818e-4cec-970f-fb7a5957f629{fill:#11608c;}.a4239419-818e-4cec-970f-fb7a5957f629,.bffbc551-3f90-457b-a791-950d6f55c426{opacity:0.45;}.fc850c80-4cc1-44ff-a218-1927406459d7{fill:#81d152;}.bc42f4c9-7191-44ac-a603-bb5c18da3679{fill:#5fb229;}.a288042b-2f2c-452e-98c1-8994de1ebf4a{fill:#afe264;}.fe3011cb-899c-44eb-b719-d8f610d45e2f{fill:#02678b;opacity:0.33;}.a178b16a-fdaf-4b8e-900c-7f12259a62dd{fill:#053e6d;}.f0e242b5-1a92-494e-8883-a278bd3200d7{fill:#f4ca53;}.adf9faac-f05d-4dab-88cd-f3738ae35bf7{fill:#c69e3c;}.a8efe0fb-d314-4a05-a782-4c466ae8a9c1{fill:#ffe576;}.f49fe455-bace-4402-b105-f76e322b7b76{fill:#af6605;}.b3c0a9e2-0e96-4c7e-b020-5721f51a2534{fill:#efdaee;}.b36e0104-2e19-4be9-8d41-095bd0fc7e17{fill:#d2aed3;}.baca0b77-2a2e-4fff-a082-a0de0a7f829a{fill:#957196;}.bf49b699-a1e4-450c-bd9e-9fec80f037ba{fill:#4da7d6;}.b55eea4a-a0ed-4889-abe7-555d05d7c0fc,.bffbc551-3f90-457b-a791-950d6f55c426{fill:#2f5b9b;}.ed8ed18f-c326-4386-b6da-3e7d3518a7d0{fill:#fdc111;}.bb5dc4e9-6400-474c-aacd-ecc4df2a6365{fill:#ce9b1d;}.ef1d72f4-68ff-4c43-88cc-07c97b6965d8{fill:#3d7e9b;}.f8cdedbb-379b-430e-b444-e8e86ca7534f{fill:#275b6d;opacity:0.63;}.b55eea4a-a0ed-4889-abe7-555d05d7c0fc{opacity:0.39;}.b33d2700-52cb-4f09-9ca1-b6decd125804{fill:#776cbc;}.b9b9a2a3-d0e4-4539-9037-7eede20f78a5{fill:#c5f1ff;}.bb552132-265f-4e98-baf7-a3eb2e3ab260{fill:#fafeff;}.a686d86a-8133-4ee8-a15c-19672fb85fc5{fill:#c683c4;}.f1095fd4-a3ad-4b85-ac72-b2e6327187ce{fill:#a35152;}.ebecfe77-734a-4782-97f8-c987267c42ed{fill:#ff7683;}.ab44b459-6620-43f2-8b2e-9984d9794ef5{fill:#804446;}.ba68be68-9465-4daa-8f8c-5fa42d03f335{fill:#663236;}.e9174052-b44a-470f-b6f0-323dad53400e{fill:#91a8c1;}.afac323d-a20e-464a-adb9-8792a58b313f,.bb3f97f2-f9c5-4fb3-bf37-aefc86678e30{fill:#6c869e;}.a380059b-78bd-4ef6-90c0-0ca70a444806,.a3bbb363-8976-473c-b444-c089ae36815c,.afac323d-a20e-464a-adb9-8792a58b313f{opacity:0.57;}.b42cd0ec-33fc-4453-bc91-fc443a237701,.f6357756-3982-42bd-8870-6a2a5d237052{fill:#c9e0f4;}.b42cd0ec-33fc-4453-bc91-fc443a237701{opacity:0.74;}.e3ad78f6-0941-4f52-ab31-2a3dd25704af{fill:#405768;}.a7ea65f0-5b8e-4198-9c53-719ab8eb0f33{fill:#ed8c4a;}.a3bbb363-8976-473c-b444-c089ae36815c,.ef40e51b-858d-42c9-8dc3-c04f61d092c7{fill:#bf6421;}.be743794-0d58-4263-be50-8daad7180241,.f3b10cd2-8655-4347-b13a-ba7fb9afa064{fill:#fdd51a;}.a2ee7c91-80af-49d5-beed-2ada66a56ff4,.f3b10cd2-8655-4347-b13a-ba7fb9afa064{opacity:0.67;}.be743794-0d58-4263-be50-8daad7180241,.f395e911-74fd-49a7-8799-309d4594ab1d{opacity:0.54;}.a380059b-78bd-4ef6-90c0-0ca70a444806{fill:#a04e17;}.bcaabf8f-eb75-4e16-8bb0-41768cb821ec{fill:#a34d13;}.f395e911-74fd-49a7-8799-309d4594ab1d{fill:#f9db5d;}.e0de4b90-cf05-42c6-b60f-fdb589067e2d{fill:#4c260d;}.b3caf85c-b65b-42cd-a4ec-c9bcf3436140{fill:#f95387;}.a2ee7c91-80af-49d5-beed-2ada66a56ff4,.bf1e9284-bcbc-4706-abb7-6856bb47c8b0{fill:#a82258;}.fc8d3e1c-9acc-40d0-842a-a12e858bce62{fill:#ff80d2;}.b254fed8-65fe-46fc-830e-b1b690f31405{fill:#601135;}.bce246b7-0a74-4d47-b430-148fa267ef18{fill:#a54216;}.acf50f07-68e5-4ffe-a2da-82d88e24eddc{fill:#f9d332;}.a061a4a3-10bc-43b2-b971-be19e3b0da35{opacity:0.53;}.eb000c3c-12b3-4838-873f-9b5e42bcc073{fill:#c16527;}.b6dc6536-60ad-4889-9fb9-14936ba720d1{fill:#375972;}.bd578dcf-e458-4ac9-8aca-392b9d5806a6{fill:#afcde8;}.b4c78136-6fa9-4542-a9e2-a2d7fcc496e3{fill:#5d83a5;opacity:0.61;}.bfa897ff-11b5-4b2e-8fb2-89fe12e37010{fill:#54829e;}.e4cba73f-04e9-4df4-badd-e2187e1e493e{fill:#2c4c60;opacity:0.49;}.be3de8bd-099d-4cc2-9e12-d970cf1f3b08{fill:#72afce;}.e9139d78-1d27-4f6e-af5c-d38b91056439{fill:#1b3a49;}.eb39ae02-1b36-4f9a-996b-026ed1aa65fd{fill:#b7cee2;}.b426ea6f-1f00-4c7a-8363-40499cb47f6f{fill:#4a7093;}.b978a6a6-9e26-4c45-8394-a63d0bc36c31{fill:#365d7a;}</style><clipPath id="aaf70dc1-3ff3-4c1f-9d1d-6a00c43231e4"><rect class="accf2db2-061b-43bf-810a-62efd2b745dc" width="750" height="500"/></clipPath></defs><g class="bfcb85a6-d63b-4673-93bc-07f5d5f4a738"><g id="fa7322aa-1046-489c-a898-3831553522f9" data-name="Camada 2"><g class="a07cb0fb-3619-4c58-9c8f-bfa32227511b"><circle class="ebb93191-221f-4277-b98b-ae10baebdddc" cx="123" cy="426.2" r="83.2"/><path class="e70ac4ef-1718-45b2-aa86-28cc7306b8ae" d="M127.2,373.8c-3.1-4.5-13-8.2-15-13.7s-1-12.9-.7-16.4a79.4,79.4,0,0,0-9.7,2c.5.6,2,3.2,2.6,8.6s-5,16.3-4.1,20.4,6.1,12.5,5.3,17c0,0-10.5,20.2-10.5,22.2s8.9,17.5,8.9,18.3.8,9.7,2.4,10.9,15.8,7.8,20.4,5.4,13.1-19.6,13.5-22.4-9-17.7-9-25.1S130.3,378.4,127.2,373.8Z"/><path class="e70ac4ef-1718-45b2-aa86-28cc7306b8ae" d="M87.9,440.2c-3.4-1.4-7.5,2.3-11.2,2.5S61.9,434.3,60.8,432s.2-7.3-1.2-9.4-5.4,1.9-8.6,1.9-1.2-3.9-1.4-5.5-.9-1.6-4.8-1.6a7.2,7.2,0,0,1-4.4-1.3,84.2,84.2,0,0,0-.7,10.1,83.2,83.2,0,0,0,.8,11.2c1,4.7,2.1,9.5,2.9,13.4a98.5,98.5,0,0,0,3.7,9.5l9.8-6.4s11.4,3,13.7,2.7,18.9-7.5,21.9-8.4,1.6-3.7,1.3-5.5S91.3,441.6,87.9,440.2Z"/><path class="e70ac4ef-1718-45b2-aa86-28cc7306b8ae" d="M156.6,386.6s13.2-6.1,17.3-5.1,7.6,3.2,7.3,5.1-1.7,7.8-1.7,9.3,6.4,7,5.9,10-7.8,15.1-7.6,17,2.7,6.6.3,9S161,441,160.5,443.4s1.5,13.4-.9,16.6-18.6,10.4-19.8,7.7-1.9-6-1.2-7.5,10.7-14.1,11.5-16.8,4.3-21.7,5.8-22.4,8.5-10,9-14.6-2.2-14.4-3-14.9-15.5,2.9-16,1S156.6,386.6,156.6,386.6Z"/><path class="a4239419-818e-4cec-970f-fb7a5957f629" d="M206.2,426.2A83.2,83.2,0,0,0,123,342.9l-5.5.2-3.2.9s-.4,13.6,4.1,16.9,12.1,4.3,13.5,4.7,2.1,6.8,5.6,7.2,6.4-2.6,9.5,0,.8,9.1,8.4,9.5,16.4-6,20.7-4.5,7.9,4.9,8.5,6.7-2.7,9.9,0,13.4,5.1,6,5.1,7.8-7.8,19.3-8,22.6,0,5.4-2.5,8-12.1,18.1-11.7,24.5S186.2,474,190,475.5A82.5,82.5,0,0,0,206.2,426.2Z"/><path class="a4239419-818e-4cec-970f-fb7a5957f629" d="M125.5,464.8c0-3.1-4.3-11.6-7.1-13.5s-16.4-1.2-17-6.5a37.7,37.7,0,0,0-2.8-9.8s-5.3-11.1-6.9-13.9-3.3-7.5,2.2-16,9-13.8,6.7-19.4-4.2-11.2-3.4-14.6,6.1-14.8,4.3-19.1-3.7-5.1-3.7-5.1l-.9.2a83.2,83.2,0,0,0-55.7,63.8c.9,1.7,2.2,3.8,3.6,3.6a56.8,56.8,0,0,0,6.6-1.3s1.4,6.4,3,6.4,10.4-3.3,12.1-2.8-2.2,8.5,0,12.9,10.7,7,11.9,7,7.4-2.3,10.6-1.9,6.9,2.7,8,4.5,1.6,10.2,0,11.2-18.4,6.1-20.8,8.6-4.5,15.8-3.3,20.1,6.8,10.8,7.4,13.9,5.8,7.5,8.5,9l.9.4c3.1,1.2,14.8,4.4,14.8,4.4l16.1,2.4s-3.7-16.6-1.8-21.5S125.5,468,125.5,464.8Z"/><path class="fc850c80-4cc1-44ff-a218-1927406459d7" d="M42.2,406.1c1.1,1.9,2.3,3.5,3.2,3.9s4.9-.5,6.2,0,1.2,4.4,3.8,5.3c6,2.1,8.5-4.4,11.4-4.2s-4.5,14.7-2,16.5,7.3,5.5,13.3,6S85,430,90.4,432s4.9,2.2,6.9,4.2.4,5.8.8,7.8,1.9,6.5,1.6,7.4c-1.4,3.6-19.4,6.7-20.9,10s-4,15.8-2.7,19.4,4,6.2,4.7,8.2-.5,4,4.4,6.7,10,3.4,11.2,5.8,3.8,3.6,6.8,5.6a91.1,91.1,0,0,0,17.4,2.3h0c-.2-2.7-4-11.6-4.4-15a25.7,25.7,0,0,1,2-14.7,68.3,68.3,0,0,0,3.7-10.7,14.6,14.6,0,0,0-.1-6.9,15.6,15.6,0,0,0-3-6.2c-2.6-2.9-14.1-3-16.6-6.2-1-1.2-2.1-6.7-1.6-8.9a16.9,16.9,0,0,0-1.1-8.5c-1.1-2.2-4.7-5.9-7.8-11.1-1.5-2.5-3.6-5.6-2.9-9.8s9.6-17.6,9.8-22-4.2-12.9-4-16.3,4.7-14.7,4-18.5c-.3-1.8-2.2-4.4-4-6.6A83.4,83.4,0,0,0,42.2,406.1Z"/><path class="fc850c80-4cc1-44ff-a218-1927406459d7" d="M206.2,426.2A83.2,83.2,0,0,0,123,342.9l-4.5.2-.6.3s3.1,14.5,9.3,17.6,12.8,3.1,15.6,4.2,4.1,5.8,9.7,8.9,13.1-1,18.6,0,12.1,3.2,14.9,5.9-.7,9.7,3.8,14.5,5.2,5.9,5.2,10.1-6.9,12.1-7.3,17.9-.7,13.5-5.2,16.6-9,13.2-9,17.7,10.5,12.4,18.4,16A82,82,0,0,0,206.2,426.2Z"/><path class="bc42f4c9-7191-44ac-a603-bb5c18da3679" d="M43.6,401.5s1.1,4.8,4.1,5.1,6.8-.9,7.4,0,.8,5.3,2.1,5.5,7.9-2.2,9.4-3.6-.6-8.7-.6-10.1,2.8-12,2.8-14.1-7-13.4-7-13.4l-8.3,8.5Z"/><path class="bc42f4c9-7191-44ac-a603-bb5c18da3679" d="M69,414.2s-2.7,9.5-2.1,11,6.9,6.3,10.3,6.3,8.2-.8,8.3-1.5-4.5-6.7-4.6-8.4.7-10.3-.5-11.2S70.2,410,69,414.2Z"/><path class="bc42f4c9-7191-44ac-a603-bb5c18da3679" d="M95.2,456.5s-14.1,4.4-15,5.8-2.4,15.4-2.4,16.1,3.9,7.3,4.3,8.8.9,4.5,1.7,5.5,9.8,5.1,10.7,4.7,2.9-4.2,2.8-5.1-5.9-9-6-9.9,5.4-11.8,5.5-13.9-2.7-7.3-2.7-7.3,5.9-5.6,6.1-6.4S95.2,456.5,95.2,456.5Z"/><path class="bc42f4c9-7191-44ac-a603-bb5c18da3679" d="M118.8,509.3s-3.7-9.4-4.7-14,1.8-14.9,1.6-16-6.4,2.3-7.2,3-3.4,15.4-3.6,16.4,1.7,8.9,1.7,8.9Z"/><path class="a288042b-2f2c-452e-98c1-8994de1ebf4a" d="M89.7,349.4s4.3,4.2,5.1,6.1-1.9,16.7-3.3,17.9-13.3-1.9-14.6-3.9-5.1-8.6-5.1-8.6S83.4,351.5,89.7,349.4Z"/><path class="a288042b-2f2c-452e-98c1-8994de1ebf4a" d="M105.5,454.7s10,1.1,11.6,3,3.5,8.6,3.5,8.6-3.6,10.8-4.3,10.8.5-8.6-.4-10.5A38.7,38.7,0,0,0,111,460Z"/><path class="a288042b-2f2c-452e-98c1-8994de1ebf4a" d="M84.1,404.6a3.3,3.3,0,0,0,5.4-.5c2.7-4.5,6.7-11.3,6.9-12.7s-1.7-9.5-2.2-10-8.4.5-9.8,1-6.5,11.4-6.7,13.2S81.2,401.3,84.1,404.6Z"/><path class="bc42f4c9-7191-44ac-a603-bb5c18da3679" d="M158,370.5c4.7.7,19.4-1.7,24.5-2.5a83.4,83.4,0,0,0-59.3-25.1c.6,3.4,2.3,11.2,6,12.6s14.7,2.9,17.4,5.6S152.4,369.6,158,370.5Z"/><path class="a288042b-2f2c-452e-98c1-8994de1ebf4a" d="M206.2,426.2a82.3,82.3,0,0,0-4.9-28.2H201s.2,9.2-2.3,13.7-6.5,7.1-6.7,11.2.5,9.8-1.2,12.7-11.8,11.9-12.3,17.7,13.7,12.8,16.7,14.4A82.8,82.8,0,0,0,206.2,426.2Z"/><path class="fe3011cb-899c-44eb-b719-d8f610d45e2f" d="M206.2,426.2v-.6c-5.9,23.6-21.1,46-55.9,53.4C70.9,495.8,42.5,438.1,40,432.5a83.2,83.2,0,0,0,166.2-6.3Z"/><path class="a178b16a-fdaf-4b8e-900c-7f12259a62dd" d="M123,510.9a84.8,84.8,0,1,1,84.7-84.7A84.9,84.9,0,0,1,123,510.9Zm0-166.5a81.8,81.8,0,1,0,81.7,81.8A81.9,81.9,0,0,0,123,344.4Z"/><path class="f0e242b5-1a92-494e-8883-a278bd3200d7" d="M286.7,373.1l1.5,3a1,1,0,0,0,.8.6l3.3.5a1.1,1.1,0,0,1,.6,1.8l-2.4,2.3a.9.9,0,0,0-.3.9l.6,3.4a1.1,1.1,0,0,1-1.6,1.1l-3-1.6a.7.7,0,0,0-.9,0l-3,1.6a1,1,0,0,1-1.5-1.1l.5-3.4a.9.9,0,0,0-.3-.9l-2.4-2.3a1.1,1.1,0,0,1,.6-1.8l3.3-.5a1,1,0,0,0,.8-.6l1.5-3A1.1,1.1,0,0,1,286.7,373.1Z"/><path class="adf9faac-f05d-4dab-88cd-f3738ae35bf7" d="M284.8,373.1l-1.5,3a1,1,0,0,1-.8.6l-3.3.5a1,1,0,0,0-.9,1.1,12.4,12.4,0,0,0,6-.1c.4-.3,1.3-3.5,1.7-5.7A1.1,1.1,0,0,0,284.8,373.1Z"/><path class="a8efe0fb-d314-4a05-a782-4c466ae8a9c1" d="M286.8,383.6a2.2,2.2,0,0,0-2.9-.1l-1,.8a2.4,2.4,0,0,1-2,.5v.8a1,1,0,0,0,1.5,1.1l3-1.6a.7.7,0,0,1,.9,0l3,1.6a1.2,1.2,0,0,0,1.4-.3A19.5,19.5,0,0,1,286.8,383.6Z"/><path class="f49fe455-bace-4402-b105-f76e322b7b76" d="M293.5,377.8a1.4,1.4,0,0,0-1.1-1l-3.4-.5a.5.5,0,0,1-.5-.3l-1.5-3.1a1.3,1.3,0,0,0-1.2-.8,1.3,1.3,0,0,0-1.3.8L283,376a.5.5,0,0,1-.5.3l-3.4.5a1.4,1.4,0,0,0-1.1,1,1.2,1.2,0,0,0,.3,1.4l2.5,2.4a1.1,1.1,0,0,1,.2.6l-.6,3.3a1.4,1.4,0,0,0,2,1.5l3-1.6h.7l3,1.6a1.4,1.4,0,0,0,1.5-.1,1.4,1.4,0,0,0,.5-1.4l-.6-3.3a1.1,1.1,0,0,1,.2-.6l2.5-2.4A1.2,1.2,0,0,0,293.5,377.8Zm-.9.9-2.4,2.4a1.3,1.3,0,0,0-.4,1.2l.6,3.4a.7.7,0,0,1-.3.6h-.7l-3-1.6a1.5,1.5,0,0,0-1.3,0l-3,1.6a.6.6,0,0,1-.7-.1.7.7,0,0,1-.3-.6l.6-3.4a1.3,1.3,0,0,0-.4-1.2l-2.4-2.4a.6.6,0,0,1,.3-1.1l3.4-.5a2.1,2.1,0,0,0,1.1-.8l1.5-3.1a.6.6,0,0,1,.6-.3h0a.5.5,0,0,1,.5.3l1.6,3.1a1.6,1.6,0,0,0,1,.8l3.4.5a.6.6,0,0,1,.3,1.1Z"/><path class="f0e242b5-1a92-494e-8883-a278bd3200d7" d="M355.7,449.3l3.9,3.4a1.7,1.7,0,0,0,1.4.3l4.9-1.3a1.6,1.6,0,0,1,1.9,2.1l-2,4.7a2,2,0,0,0,.1,1.5l2.8,4.3a1.6,1.6,0,0,1-1.4,2.4l-5.1-.4a1.6,1.6,0,0,0-1.4.5l-3.2,4a1.6,1.6,0,0,1-2.7-.6l-1.2-5a1.6,1.6,0,0,0-1-1.1l-4.8-1.8a1.6,1.6,0,0,1-.2-2.8l4.4-2.7a1.6,1.6,0,0,0,.7-1.3l.3-5.1A1.6,1.6,0,0,1,355.7,449.3Z"/><path class="adf9faac-f05d-4dab-88cd-f3738ae35bf7" d="M353.1,450.4l-.3,5.1a1.6,1.6,0,0,1-.7,1.3l-4.4,2.7a1.5,1.5,0,0,0-.6,2c3.6-.6,7.9-3,8.3-3.6s-.2-5.7-1-8.9A1.4,1.4,0,0,0,353.1,450.4Z"/><path class="a8efe0fb-d314-4a05-a782-4c466ae8a9c1" d="M362.1,463.8a3.3,3.3,0,0,0-4.1,1.7,11.4,11.4,0,0,0-.9,1.6,3.5,3.5,0,0,1-2.5,1.9l.3,1.2a1.6,1.6,0,0,0,2.7.6l3.2-4a1.6,1.6,0,0,1,1.4-.5l5.1.4a1.5,1.5,0,0,0,1.6-1.3A30.3,30.3,0,0,1,362.1,463.8Z"/><path class="f49fe455-bace-4402-b105-f76e322b7b76" d="M367.9,451.8a2.1,2.1,0,0,0-2.1-.7l-5,1.3a1,1,0,0,1-.9-.2l-3.9-3.3a2.2,2.2,0,0,0-2.2-.4,2.6,2.6,0,0,0-1.3,1.9l-.3,5.1a1.2,1.2,0,0,1-.4.8l-4.4,2.7a2,2,0,0,0-1,2,2.3,2.3,0,0,0,1.3,1.8l4.8,1.8a.9.9,0,0,1,.6.7l1.2,5a2.2,2.2,0,0,0,1.6,1.6,2.1,2.1,0,0,0,2.1-.7l3.3-4a.9.9,0,0,1,.8-.4l5.1.4a2.1,2.1,0,0,0,2-3.2l-2.8-4.4a.9.9,0,0,1-.1-.9l2-4.7A2,2,0,0,0,367.9,451.8Zm-.6,1.8-2,4.7a2.1,2.1,0,0,0,.2,2l2.8,4.3a.9.9,0,0,1,0,1,1,1,0,0,1-.5.4h-.5l-5.1-.4a1.8,1.8,0,0,0-1.8.8l-3.2,4a1,1,0,0,1-1,.3,1.1,1.1,0,0,1-.8-.7l-1.2-5a1.8,1.8,0,0,0-1.3-1.5l-4.8-1.9a.9.9,0,0,1-.6-.8,1.2,1.2,0,0,1,.5-1l4.4-2.6a2.3,2.3,0,0,0,1-1.7l.2-5.1a1.1,1.1,0,0,1,.7-.9h0a.9.9,0,0,1,1,.1l3.9,3.4a2.1,2.1,0,0,0,1.9.4l5-1.3a1,1,0,0,1,1,.3A1.4,1.4,0,0,1,367.3,453.6Z"/><path class="b3c0a9e2-0e96-4c7e-b020-5721f51a2534" d="M-3.4,469s17.9-12.4,45.3-6.4c19.5,4.2,31.2,19,36.3,27.1a4.5,4.5,0,0,0,6.9.8c4.1-3.9,11.2-8.6,20.3-6.2a6.2,6.2,0,0,0,6.1-1.6c3.6-3.8,11-10,21-10.7a31,31,0,0,1,24.2,8.5,2.4,2.4,0,0,0,3.9-.6c1.4-2.6,4.4-5.9,10.8-7.1,11.1-2.1,21.4-3.2,26.8-14.8,8.6-18.5,28.3-8.7,36.8-34.8s-2.1-50.8-2.1-50.8-4.3-13.3.9-14.5c3.3-.9,8,9.9,10.8,17.4,1.5,4.1,3.2,8.3,5,12.3s4.4,11,4.7,16a32.6,32.6,0,0,1-.9,8.8,8.9,8.9,0,0,0,3.4,9.1,27.4,27.4,0,0,1,9.9,13.7c3,9-.5,17.6-3.3,22.4a5.9,5.9,0,0,0,1,7.1c4,3.8,9.6,11.6,8,23.9a27.7,27.7,0,0,1-15,21.6,5.6,5.6,0,0,0-3.1,5.4c.3,5.1,0,14.1-5.6,19.6H-3.4Z"/><path class="b36e0104-2e19-4be9-8d41-095bd0fc7e17" d="M-10.5,486.1S8,473.3,35.4,480.5,68.1,511,68.1,511a28.3,28.3,0,0,1,20.1-8.8c12.9-.4,22.5,8.8,22.5,8.8s6.1-20.6,23.1-23.1,27.8,11.4,27.8,11.4,2.8-15.3,16.3-17.4,21,9.2,21,9.2,11-5,18.1-.7,6,12.8,6,12.8,11.4.2,9.3,11.4c0,0,16-3.9,17.4,13.8H-10.5Z"/><path class="b36e0104-2e19-4be9-8d41-095bd0fc7e17" d="M263.4,457.6c2.8-4.8,6.3-13.4,3.3-22.4a27.4,27.4,0,0,0-9.9-13.7,8.9,8.9,0,0,1-3.4-9.1,32.6,32.6,0,0,0,.9-8.8c-.3-5-2.7-11.5-4.7-16s-3.5-8.2-5-12.3c-2.8-7.6-7.5-18.4-10.9-17.4h0c5.6,11.4,18.4,41.3,13.1,66.8,0,0,11.3,5.9,11.7,18.8a20.1,20.1,0,0,1-5.7,15,3.5,3.5,0,0,0,.6,5.4c7.1,4.2,19.8,14,18,29.4a29.8,29.8,0,0,0,1-4.7c1.6-12.3-4-20.1-8-23.9A5.9,5.9,0,0,1,263.4,457.6Z"/><path class="baca0b77-2a2e-4fff-a082-a0de0a7f829a" d="M249.1,536.2H-4.4V468.4l.4-.3c.8-.5,18.6-12.5,46.1-6.5,19.8,4.3,31.6,19.1,36.9,27.5a3.5,3.5,0,0,0,2.6,1.6,3.3,3.3,0,0,0,2.8-.9c4.5-4.3,11.9-9,21.3-6.4a5.3,5.3,0,0,0,5.1-1.4c3.6-3.8,11.2-10.3,21.6-11a32.2,32.2,0,0,1,25,8.8,1.6,1.6,0,0,0,1.3.4,1.4,1.4,0,0,0,1-.7c1.5-2.8,4.7-6.4,11.5-7.7l2.4-.4c10.1-1.9,18.9-3.5,23.7-13.8,4-8.7,10.5-11.4,16.8-14.1s15.4-6.6,20-20.6c8.3-25.4-2-49.9-2.1-50.1s-3.1-10-.9-14a3.8,3.8,0,0,1,2.4-1.9c1.3-.3,4.8-1.2,12,18,1.6,4.3,3.3,8.4,5,12.3s4.5,11.2,4.8,16.3a36.4,36.4,0,0,1-.9,9.2,7.8,7.8,0,0,0,3,8,28.8,28.8,0,0,1,10.2,14.2c3.3,9.5-.7,18.6-3.3,23.2a4.7,4.7,0,0,0,.8,5.8c3.8,3.7,9.9,11.8,8.3,24.9a28.7,28.7,0,0,1-15.6,22.3,4.8,4.8,0,0,0-2.5,4.4c.3,5.1,0,14.5-5.9,20.4Zm-251.5-2H248.3c5-5.3,5.3-13.9,5-18.5a6.6,6.6,0,0,1,3.6-6.4,26.5,26.5,0,0,0,14.5-20.8c1.5-11.6-3.4-19-7.7-23.1a6.9,6.9,0,0,1-1.2-8.2c2.5-4.4,6.2-12.9,3.2-21.7a26.2,26.2,0,0,0-9.5-13.2,9.7,9.7,0,0,1-3.7-10.1,35.8,35.8,0,0,0,.8-8.6c-.3-4.8-2.7-11.1-4.6-15.6s-3.4-8.1-5.1-12.4c-5.1-13.8-8.5-17.1-9.6-16.8a2.3,2.3,0,0,0-1.2,1c-1.5,2.7.3,9.8,1.1,12.3,0,.1,10.7,25.3,2.1,51.5-4.9,14.8-13.1,18.3-21.1,21.7-6.2,2.7-12.1,5.2-15.8,13.1-5.2,11.2-14.9,13-25.2,15l-2.3.4c-6,1.1-8.8,4.2-10.1,6.6a3.4,3.4,0,0,1-5.4.9,30.3,30.3,0,0,0-23.6-8.3c-9.6.7-16.8,6.8-20.3,10.4a7.1,7.1,0,0,1-7.1,1.9c-8.5-2.3-15.2,2-19.3,5.9a5.3,5.3,0,0,1-4.5,1.5,5.6,5.6,0,0,1-4-2.5c-5.1-8.2-16.6-22.5-35.6-26.7-24.3-5.3-41.2,4.2-44.1,6Z"/><path class="bf49b699-a1e4-450c-bd9e-9fec80f037ba" d="M248.4,363.6,224,376.4a6.1,6.1,0,0,1-8.9-4.3l-5.9-34.4,14.1-7.9,26.3,23.9A6.1,6.1,0,0,1,248.4,363.6Z"/><path class="bffbc551-3f90-457b-a791-950d6f55c426" d="M231.7,372.4l-4.8-11.3-14.6-5.4,1.8,10.5c3.9,2.8,9.5,6.7,12.7,8.7Z"/><path class="bffbc551-3f90-457b-a791-950d6f55c426" d="M242,346.7l-4.7-4.3-.7,2.1,4.2,23.1,6.7-3.6C246.7,361.2,243.6,351.8,242,346.7Z"/><path class="ed8ed18f-c326-4386-b6da-3e7d3518a7d0" d="M233.4,375.4c-14.1-7.4-40.4-27.5-41.1-75.1a6.3,6.3,0,0,1,10.2-5.1c14.5,11.2,40.1,36.4,40.1,74.7A6.3,6.3,0,0,1,233.4,375.4Z"/><path class="bb5dc4e9-6400-474c-aacd-ecc4df2a6365" d="M236.7,357.6c-1.6,2-12,3.9-14.7,3.3s-11.3-7.1-15.8-10.3a73.2,73.2,0,0,0,27.2,24.8,6.3,6.3,0,0,0,9.2-5.5,82.6,82.6,0,0,0-5-28.5C237.6,342,238.3,355.8,236.7,357.6Z"/><path class="ef1d72f4-68ff-4c43-88cc-07c97b6965d8" d="M242.6,367.2l-12.2,6.5v5.7a1,1,0,0,0,1.5.7l15.8-8.4a1,1,0,0,0,.1-1.7Z"/><path class="f8cdedbb-379b-430e-b444-e8e86ca7534f" d="M242.6,367.2l-12.2,6.5v1.8c2.1-.3,8.7-1.3,9.9-1.9s3.3-3.2,4.8-5Z"/><path class="bf49b699-a1e4-450c-bd9e-9fec80f037ba" d="M227,349.9a1.6,1.6,0,0,0-2.7,1.4c1.1,5.6,2.9,14.2,4,15.5s5.3,3.8,7.9,5.3a1.6,1.6,0,0,0,2.3-1.3c.2-2.4.3-6.1-.8-8.5S230.9,353.8,227,349.9Z"/><path class="bffbc551-3f90-457b-a791-950d6f55c426" d="M227,349.9a1.5,1.5,0,0,0-2-.2c2.5,2.7,6.2,6.7,6.7,7.5s2.8,6.6,2.8,6.6l-7.6-10,10.5,18.4a1.5,1.5,0,0,0,1.1-1.4c.2-2.4.3-6.1-.8-8.5S230.9,353.8,227,349.9Z"/><path class="bf49b699-a1e4-450c-bd9e-9fec80f037ba" d="M202.5,295.2a6.3,6.3,0,0,0-10.2,5.1,127.7,127.7,0,0,0,1.1,14.4l19.1-10.8A130.7,130.7,0,0,0,202.5,295.2Z"/><path class="b55eea4a-a0ed-4889-abe7-555d05d7c0fc" d="M197.4,294a6.4,6.4,0,0,0-5.1,6.3c.2,16.8,3.7,30.1,8.6,40.7Z"/><path class="b33d2700-52cb-4f09-9ca1-b6decd125804" d="M224.1,329.8a10.5,10.5,0,1,1-9.8-11.2A10.5,10.5,0,0,1,224.1,329.8Z"/><circle class="b9b9a2a3-d0e4-4539-9037-7eede20f78a5" cx="213.6" cy="329.1" r="7.6"/><path class="bb552132-265f-4e98-baf7-a3eb2e3ab260" d="M217.7,322.7,216,336.3a7.6,7.6,0,0,0,1.7-13.6Z"/><path class="bb552132-265f-4e98-baf7-a3eb2e3ab260" d="M214.1,321.5h-.2l-1.8,12.7,4.6-12A7.7,7.7,0,0,0,214.1,321.5Z"/><path class="bb552132-265f-4e98-baf7-a3eb2e3ab260" d="M208.3,334.5a4.8,4.8,0,0,0,2,1.4c1-3.7,2.5-10.5,3.4-14.4a7.4,7.4,0,0,0-3.6.9Z"/><path class="b3c0a9e2-0e96-4c7e-b020-5721f51a2534" d="M15.8,404a.9.9,0,0,1-.9.9,1,1,0,0,1-1-.9,1,1,0,0,1,1-1A.9.9,0,0,1,15.8,404Z"/><path class="b3c0a9e2-0e96-4c7e-b020-5721f51a2534" d="M18.8,406.8c0,.2-.1.4-.3.4a.4.4,0,0,1,0-.8C18.7,406.4,18.8,406.6,18.8,406.8Z"/><path class="b9b9a2a3-d0e4-4539-9037-7eede20f78a5" d="M21.4,404a.9.9,0,0,1-.9.9,1,1,0,0,1-1-.9,1,1,0,0,1,1-1A.9.9,0,0,1,21.4,404Z"/><circle class="b3c0a9e2-0e96-4c7e-b020-5721f51a2534" cx="73.8" cy="323.7" r="0.8"/><path class="b9b9a2a3-d0e4-4539-9037-7eede20f78a5" d="M79.8,322.8a.9.9,0,1,1-.9-.9A.9.9,0,0,1,79.8,322.8Z"/><circle class="b3c0a9e2-0e96-4c7e-b020-5721f51a2534" cx="63.5" cy="314.8" r="1.3"/><circle class="b3c0a9e2-0e96-4c7e-b020-5721f51a2534" cx="319.6" cy="483.9" r="1.1"/><path class="b3c0a9e2-0e96-4c7e-b020-5721f51a2534" d="M284.7,489.1a1.5,1.5,0,0,1-1.5,1.4,1.4,1.4,0,0,1-1.4-1.4,1.5,1.5,0,0,1,1.4-1.5A1.5,1.5,0,0,1,284.7,489.1Z"/><circle class="a686d86a-8133-4ee8-a15c-19672fb85fc5" cx="294.1" cy="474.4" r="1.6"/><path class="b3c0a9e2-0e96-4c7e-b020-5721f51a2534" d="M508.1,487.3a2.3,2.3,0,0,1-4.6,0,2.3,2.3,0,0,1,4.6,0Z"/><path class="b3c0a9e2-0e96-4c7e-b020-5721f51a2534" d="M500.9,477.8a1.8,1.8,0,0,1-1.7,1.7,1.8,1.8,0,0,1-1.8-1.7,1.8,1.8,0,0,1,1.8-1.8A1.8,1.8,0,0,1,500.9,477.8Z"/><path class="b3c0a9e2-0e96-4c7e-b020-5721f51a2534" d="M509.7,475.2a.8.8,0,0,1-.8.8.9.9,0,0,1-.8-.8.8.8,0,0,1,.8-.8A.7.7,0,0,1,509.7,475.2Z"/><path class="b3c0a9e2-0e96-4c7e-b020-5721f51a2534" d="M495.3,466.9a1.1,1.1,0,0,1-1.1,1.1,1.1,1.1,0,0,1-1-1.1,1,1,0,0,1,1-1A1,1,0,0,1,495.3,466.9Z"/><path class="b3c0a9e2-0e96-4c7e-b020-5721f51a2534" d="M526.7,481.5a2,2,0,0,1-2,2.1,2.1,2.1,0,0,1-2.1-2.1,2,2,0,0,1,2.1-2A2,2,0,0,1,526.7,481.5Z"/><path class="b3c0a9e2-0e96-4c7e-b020-5721f51a2534" d="M527.4,470.6a3.8,3.8,0,0,1-3.7,3.8,3.8,3.8,0,0,1,0-7.5A3.8,3.8,0,0,1,527.4,470.6Z"/><circle class="b3c0a9e2-0e96-4c7e-b020-5721f51a2534" cx="542.1" cy="485.4" r="1.8"/><path class="b3c0a9e2-0e96-4c7e-b020-5721f51a2534" d="M535.4,492.5a1,1,0,0,1-1,1.1,1.1,1.1,0,0,1-1.1-1.1,1,1,0,0,1,1.1-1A.9.9,0,0,1,535.4,492.5Z"/><path class="b3c0a9e2-0e96-4c7e-b020-5721f51a2534" d="M724.7,53a.9.9,0,1,1,1.8,0,.9.9,0,1,1-1.8,0Z"/><path class="b3c0a9e2-0e96-4c7e-b020-5721f51a2534" d="M721.6,50.2a.4.4,0,0,1,.4-.4c.2,0,.3.2.3.4a.3.3,0,0,1-.3.3C721.8,50.5,721.6,50.4,721.6,50.2Z"/><path class="b9b9a2a3-d0e4-4539-9037-7eede20f78a5" d="M719.1,53a.9.9,0,0,1,1.8,0,.9.9,0,1,1-1.8,0Z"/><path class="a686d86a-8133-4ee8-a15c-19672fb85fc5" d="M707,37.4a1,1,0,1,1,1,1A.9.9,0,0,1,707,37.4Z"/><path class="b3c0a9e2-0e96-4c7e-b020-5721f51a2534" d="M719.6,37.4c0-.2.2-.3.4-.3a.3.3,0,0,1,0,.6C719.8,37.7,719.6,37.6,719.6,37.4Z"/><path class="a686d86a-8133-4ee8-a15c-19672fb85fc5" d="M733.3,28.7a1.3,1.3,0,1,1,2.6,0,1.3,1.3,0,1,1-2.6,0Z"/><path class="b3c0a9e2-0e96-4c7e-b020-5721f51a2534" d="M731.1,34.2a.6.6,0,0,1,.6-.6.7.7,0,0,1,.7.6.7.7,0,0,1-.7.7A.7.7,0,0,1,731.1,34.2Z"/><circle class="b9b9a2a3-d0e4-4539-9037-7eede20f78a5" cx="715" cy="26.8" r="0.9"/><path class="b3c0a9e2-0e96-4c7e-b020-5721f51a2534" d="M701.8,26.1a1.2,1.2,0,0,1,1.2-1.3,1.3,1.3,0,0,1,1.3,1.3,1.2,1.2,0,0,1-1.3,1.2A1.2,1.2,0,0,1,701.8,26.1Z"/><circle class="b3c0a9e2-0e96-4c7e-b020-5721f51a2534" cx="665.9" cy="128.5" r="1.5"/><circle class="b3c0a9e2-0e96-4c7e-b020-5721f51a2534" cx="666.7" cy="133.3" r="0.8"/><path class="b9b9a2a3-d0e4-4539-9037-7eede20f78a5" d="M660.6,134.2a1,1,0,0,1,1-.9.9.9,0,0,1,0,1.8A1,1,0,0,1,660.6,134.2Z"/><circle class="b3c0a9e2-0e96-4c7e-b020-5721f51a2534" cx="677" cy="142.2" r="1.3"/><path class="a686d86a-8133-4ee8-a15c-19672fb85fc5" d="M669.5,143.7a1.3,1.3,0,0,1,1.3-1.3,1.3,1.3,0,0,1,0,2.6A1.3,1.3,0,0,1,669.5,143.7Z"/><circle class="a686d86a-8133-4ee8-a15c-19672fb85fc5" cx="679.7" cy="124.4" r="1.3"/><path class="b3c0a9e2-0e96-4c7e-b020-5721f51a2534" d="M682.6,133a1,1,0,0,1,1-1,1,1,0,0,1,.9,1,.9.9,0,0,1-.9,1A.9.9,0,0,1,682.6,133Z"/><path class="b9b9a2a3-d0e4-4539-9037-7eede20f78a5" d="M732.3,136.7a1.6,1.6,0,0,1,1.5-1.6,1.6,1.6,0,1,1,0,3.2A1.6,1.6,0,0,1,732.3,136.7Z"/><path class="b3c0a9e2-0e96-4c7e-b020-5721f51a2534" d="M728.9,144a1,1,0,0,1,1-1,1,1,0,0,1,0,2A1,1,0,0,1,728.9,144Z"/><circle class="b3c0a9e2-0e96-4c7e-b020-5721f51a2534" cx="709.2" cy="482.2" r="2.1"/><path class="a686d86a-8133-4ee8-a15c-19672fb85fc5" d="M707.1,468.6a1,1,0,0,1,1-1,1,1,0,1,1,0,2A1,1,0,0,1,707.1,468.6Z"/><circle class="b3c0a9e2-0e96-4c7e-b020-5721f51a2534" cx="720.6" cy="478.5" r="1.6"/><path class="b9b9a2a3-d0e4-4539-9037-7eede20f78a5" d="M670.3,464.2a.9.9,0,0,1,.9-.9.9.9,0,0,1,0,1.8A.9.9,0,0,1,670.3,464.2Z"/><circle class="b3c0a9e2-0e96-4c7e-b020-5721f51a2534" cx="673.3" cy="472.5" r="1.2"/><circle class="b3c0a9e2-0e96-4c7e-b020-5721f51a2534" cx="664.1" cy="471.4" r="1.1"/><path class="b9b9a2a3-d0e4-4539-9037-7eede20f78a5" d="M664.9,480.4a1.8,1.8,0,1,1,3.6,0,1.8,1.8,0,1,1-3.6,0Z"/><path class="b3c0a9e2-0e96-4c7e-b020-5721f51a2534" d="M599.9,436.4a2.4,2.4,0,0,1,.6-3.3,2.4,2.4,0,0,1,2.7,3.9A2.4,2.4,0,0,1,599.9,436.4Z"/><path class="b9b9a2a3-d0e4-4539-9037-7eede20f78a5" d="M610.2,431.2a.8.8,0,0,1,.2-1,.7.7,0,0,1,1.1.2.6.6,0,0,1-.2,1A.7.7,0,0,1,610.2,431.2Z"/><path class="b3c0a9e2-0e96-4c7e-b020-5721f51a2534" d="M595.9,429.1a1.5,1.5,0,0,1,.4-2.1,1.6,1.6,0,0,1,2.2.4,1.5,1.5,0,0,1-.4,2.1A1.6,1.6,0,0,1,595.9,429.1Z"/><path class="b3c0a9e2-0e96-4c7e-b020-5721f51a2534" d="M593.1,442a.7.7,0,0,1,.2-1.1.9.9,0,0,1,1.1.2c.2.4.2.9-.2,1.1A.7.7,0,0,1,593.1,442Z"/><path class="f1095fd4-a3ad-4b85-ac72-b2e6327187ce" d="M42.9,344.4S46,349,44,352.3s-8.6,2.5-9.1,5.2-.4,5.6-2.7,9.1S20,362.5,21.4,358s2.8-7.1,6.1-12.6,10.5-5.3,12.8-4A5.7,5.7,0,0,1,42.9,344.4Z"/><path class="ebecfe77-734a-4782-97f8-c987267c42ed" d="M26.6,366.1c2.3,1.4,4.6,1.9,5.6.5,2.3-3.5,2.2-6.5,2.7-9.1s7-1.9,9.1-5.2a5.6,5.6,0,0,0,.5-4.2h-.3S43,351,41,351.4s-5.5.8-7,2.7-3.3,8.7-3.3,8.7v-3.4l-1.9,6.9.5-4.5Z"/><path class="ab44b459-6620-43f2-8b2e-9984d9794ef5" d="M40.8,347.2s-4.4-.6-5.3.4a38.4,38.4,0,0,0-2.8,4.5s3-3.5,4.7-3.7A13.5,13.5,0,0,0,40.8,347.2Z"/><path class="ab44b459-6620-43f2-8b2e-9984d9794ef5" d="M27.5,345.4c-3.3,5.5-4.7,8.1-6.1,12.6a5.4,5.4,0,0,0,1.4,4.6c2.7-3.5,5.6-6.6,6.2-7.5s3.5-6.7,5.2-8.7,5.8-1,9.4-.8l-.7-1.2a5.7,5.7,0,0,0-2.6-3C38,340.1,30.9,340,27.5,345.4Z"/><path class="ba68be68-9465-4daa-8f8c-5fa42d03f335" d="M26.8,345c3.5-5.7,11.1-6,13.9-4.2s2.8,2.7,2.9,3.2,3.2,5.2,1.1,8.7-3.6,2.6-5.8,3.2-3,.9-3.2,1.7l-.3,1.9a15.8,15.8,0,0,1-2.5,7.5c-1,1.5-3,1.6-5.5.4s-7.9-6-6.8-9.6S23.5,350.4,26.8,345Zm15.3-.4a4.9,4.9,0,0,0-2.2-2.5c-1.8-1.1-8.5-1.5-11.7,3.7s-4.6,8-6,12.5c-.8,2.3,2.6,6.1,5.8,7.7.7.3,2.8,1.2,3.6.1a15,15,0,0,0,2.2-6.8l.3-2c.4-1.8,2.3-2.3,4.4-2.9s3.9-1.1,4.8-2.5-1-7-1.1-7.1Z"/><path class="f1095fd4-a3ad-4b85-ac72-b2e6327187ce" d="M372.4-10.4s3.1,4.6,1.1,7.9S365,.1,364.4,2.7s-.3,5.7-2.6,9.1-12.3-4-10.9-8.5,2.8-7.1,6.1-12.6,10.6-5.4,12.8-4S372.4-10.4,372.4-10.4Z"/><path class="ebecfe77-734a-4782-97f8-c987267c42ed" d="M356.1,11.3c2.3,1.5,4.7,2,5.7.5,2.3-3.4,2.1-6.4,2.6-9.1s7.1-1.8,9.1-5.2a5.4,5.4,0,0,0,.5-4.1h-.3s-1.1,2.7-3.2,3.2-5.5.8-7,2.6-3.2,8.8-3.2,8.8V4.7l-1.9,6.8.5-4.5Z"/><path class="ab44b459-6620-43f2-8b2e-9984d9794ef5" d="M357-9.3c-3.3,5.5-4.7,8.1-6.1,12.6a5.4,5.4,0,0,0,1.4,4.6c2.7-3.5,5.6-6.7,6.3-7.5s3.5-6.8,5.1-8.7,5.8-1,9.4-.8a5.2,5.2,0,0,0-.7-1.3s-.3-1.5-2.6-2.9S360.4-14.8,357-9.3Z"/><path class="ba68be68-9465-4daa-8f8c-5fa42d03f335" d="M356.4-9.7c3.4-5.7,11-6,13.8-4.3a6.5,6.5,0,0,1,3,3.3c.5.8,3.1,5.2,1,8.7C373-.1,370.6.6,368.5,1.2s-3.1.9-3.3,1.7l-.3,1.9a15.8,15.8,0,0,1-2.5,7.5c-1,1.4-3,1.6-5.5.4s-7.8-6.1-6.7-9.6S353.1-4.3,356.4-9.7Zm15.3-.5a5.5,5.5,0,0,0-2.3-2.4c-1.8-1.1-8.5-1.5-11.7,3.7s-4.6,8-6,12.5c-.7,2.3,2.6,6.1,5.9,7.7.6.3,2.8,1.2,3.5.1a13.2,13.2,0,0,0,2.2-6.8,11.8,11.8,0,0,1,.4-2C364,.8,366,.3,368-.3s4-1.1,4.8-2.6-1-7-1-7Z"/><path class="f1095fd4-a3ad-4b85-ac72-b2e6327187ce" d="M42.4-3.4s3.1,4.6,1,7.9-8.5,2.6-9,5.2-.4,5.7-2.7,9.1-12.2-4-10.8-8.5S23.6,3.2,27-2.3s10.5-5.4,12.8-4A5.7,5.7,0,0,1,42.4-3.4Z"/><path class="ebecfe77-734a-4782-97f8-c987267c42ed" d="M26.1,18.3c2.2,1.5,4.6,2,5.6.5,2.3-3.4,2.1-6.5,2.7-9.1s7-1.8,9-5.2A6,6,0,0,0,44,.4h-.3s-1.2,2.7-3.2,3.2-5.5.8-7.1,2.6-3.2,8.8-3.2,8.8V11.7l-1.9,6.8.5-4.5Z"/><path class="ab44b459-6620-43f2-8b2e-9984d9794ef5" d="M40.3-.5s-4.5-.6-5.4.4a34.5,34.5,0,0,0-2.7,4.5S35.2.9,36.9.6A11.3,11.3,0,0,0,40.3-.5Z"/><path class="ab44b459-6620-43f2-8b2e-9984d9794ef5" d="M27-2.3c-3.4,5.5-4.7,8.1-6.1,12.6-.5,1.4.2,3,1.3,4.6,2.8-3.5,5.7-6.7,6.3-7.5S32,.6,33.7-1.3s5.8-1.1,9.4-.8l-.7-1.3a5.7,5.7,0,0,0-2.6-2.9C37.5-7.7,30.3-7.8,27-2.3Z"/><path class="ba68be68-9465-4daa-8f8c-5fa42d03f335" d="M26.3-2.7c3.5-5.7,11.1-6,13.9-4.3a6.6,6.6,0,0,1,2.9,3.3c.5.8,3.1,5.2,1,8.7-1.2,1.9-3.6,2.6-5.7,3.2s-3.1.9-3.2,1.7a5.8,5.8,0,0,0-.3,1.9,17,17,0,0,1-2.5,7.5c-1,1.4-3,1.6-5.6.4s-7.8-6.1-6.7-9.6S23,2.7,26.3-2.7Zm15.3-.5a4.8,4.8,0,0,0-2.3-2.4c-1.7-1.1-8.5-1.5-11.6,3.7S23,6,21.6,10.6c-.7,2.3,2.7,6.1,5.9,7.6.7.4,2.8,1.3,3.5.2a14.5,14.5,0,0,0,2.3-6.8l.3-2c.3-1.8,2.3-2.3,4.4-2.9s3.9-1.1,4.8-2.6-1.1-7-1.1-7Z"/><path class="f1095fd4-a3ad-4b85-ac72-b2e6327187ce" d="M250.4,87.2s-4.2-1-4.4-3.4,4.4-4.6,3.5-6-2.4-2.9-2.5-5.5,9.9-2.8,11.1,0,1.5,4.5,1.9,8.4-4.4,6.7-6.5,6.9A5.4,5.4,0,0,1,250.4,87.2Z"/><path class="ebecfe77-734a-4782-97f8-c987267c42ed" d="M250.9,70.4c-2.2.2-4,.8-3.9,1.9.1,2.6,1.6,4,2.5,5.5s-3.7,3.6-3.5,6a3.5,3.5,0,0,0,1.6,2.2v-.2a3,3,0,0,1,.6-2.8c1.1-1,3.3-2.5,3.4-4s-2-5.4-2-5.4l1.7,1.6-2-4.1,1.8,2.4Z"/><path class="ab44b459-6620-43f2-8b2e-9984d9794ef5" d="M250.4,85s3.2-1.4,3.3-2.3a12.2,12.2,0,0,0-.3-3.2s-.3,2.9-1.3,3.6A8.9,8.9,0,0,0,250.4,85Z"/><path class="ab44b459-6620-43f2-8b2e-9984d9794ef5" d="M260,80.7c-.4-3.9-.7-5.7-1.9-8.4-.4-.9-1.6-1.4-3.1-1.7a54.1,54.1,0,0,1-.6,6c0,.9.9,4.6.7,6.2s-3.3,2.8-5.8,4l1.1.4a5.4,5.4,0,0,0,3.1.4C255.6,87.4,260.4,84.7,260,80.7Z"/><path class="ba68be68-9465-4daa-8f8c-5fa42d03f335" d="M260.6,80.7c.4,4-4.4,7.1-7.1,7.4a5.5,5.5,0,0,1-3.4-.5c-.7-.2-4.5-1.3-4.8-3.8s1.2-2.6,2.3-3.7,1.6-1.7,1.3-2.1a3.6,3.6,0,0,0-.7-1,8.8,8.8,0,0,1-1.9-4.6c0-1.1,1.2-2,3.5-2.4s7.9-.1,8.9,2.1A23.2,23.2,0,0,1,260.6,80.7Zm-9.8,6.1a5.1,5.1,0,0,0,2.7.3c1.6-.2,6.2-2.6,5.9-6.3s-.7-5.6-1.9-8.4-4.6-1.9-7.5-1.4c-.6.1-2.4.5-2.4,1.3a6.8,6.8,0,0,0,1.8,4.1l.7,1.1c.6,1-.4,2-1.5,3.1s-2.1,2.1-2,3.1,4,3,4,3Z"/><path class="f1095fd4-a3ad-4b85-ac72-b2e6327187ce" d="M285.4,429.1a5.5,5.5,0,0,0-2.6,2.6c-.8,1.4-2,3.9-1.1,5.3s3.6,2.3,4.4,4.3-.4,5.8,2.6,6.8,9.3-1.4,9.9-2.6,1.5-4.6,2.6-6.1,2.7-3.4,2.3-5.2-1.2-4.4-4-5-5.8,2.1-7,1.3-2.3-1.8-4.8-2A4.1,4.1,0,0,0,285.4,429.1Z"/><path class="ab44b459-6620-43f2-8b2e-9984d9794ef5" d="M302.6,431.8c0,.1-.1,3-.2,3.6s-2.5,2.2-3.8,2.3-6-1.9-6.1-1.4,1.8,1.3,3.3,2.1a1.8,1.8,0,0,1,.4,2.8,4.2,4.2,0,0,1-2.4,1.2c-2.3.1-3-.3-3.5-1.2s.1-2.3-.5-2.8-3.7,0-6.8-1.8a4.1,4.1,0,0,1-1.4-2.3,3.5,3.5,0,0,0,.1,2.7c1.3,2.1,3.6,2.3,4.4,4.3s-.4,5.8,2.6,6.8,9.3-1.4,9.9-2.6,1.5-4.6,2.6-6.1,2.7-3.4,2.3-5.2A11.7,11.7,0,0,0,302.6,431.8Z"/><path class="ebecfe77-734a-4782-97f8-c987267c42ed" d="M299.5,429.2c-2.7-.7-5.8,2.1-7,1.3s-2.3-1.8-4.8-2a4.1,4.1,0,0,0-2.3.6,5.5,5.5,0,0,0-2.6,2.6,5.6,5.6,0,0,0-.5.8,25.5,25.5,0,0,1,5.5-2.1c2.3-.3,7.4,3.3,7.4,3.3l-.2-1a1.1,1.1,0,0,1,.4-1.5c1-.5,2.6-1.3,3.9-1.1a6.9,6.9,0,0,1,3.2,1.5A4.6,4.6,0,0,0,299.5,429.2Z"/><path class="ba68be68-9465-4daa-8f8c-5fa42d03f335" d="M290.4,448.8l-1.9-.2c-2.3-.8-2.4-3.1-2.6-5a7.3,7.3,0,0,0-.3-2.2c-.3-.8-1.1-1.3-1.9-1.9a7,7,0,0,1-2.4-2.2c-1-1.6,0-4.1,1-5.9a6.9,6.9,0,0,1,2.8-2.8h0a6.2,6.2,0,0,1,2.6-.6,7.5,7.5,0,0,1,4.3,1.6l.7.5c.4.2,1.4-.2,2.3-.6s3-1.2,4.7-.8c3.2.8,3.9,3.9,4.2,5.4s-.8,3.6-1.9,5l-.4.6a21.4,21.4,0,0,0-1.9,4.3l-.7,1.7C298.2,447.8,293.7,448.8,290.4,448.8Zm-4.8-19.3a5.6,5.6,0,0,0-2.4,2.4c-1.2,2.2-1.6,4-1.1,4.9a7.9,7.9,0,0,0,2.2,1.9,4.7,4.7,0,0,1,2.2,2.4,6.1,6.1,0,0,1,.4,2.4c.1,1.8.3,3.6,1.9,4.1s8.6-.6,9.3-2.3a9.1,9.1,0,0,0,.6-1.6,24.5,24.5,0,0,1,2.1-4.6l.4-.6c1-1.3,2.1-2.8,1.8-4.2s-1.3-4.1-3.6-4.6-2.7.3-4,.8-2.4.9-3.2.4l-.8-.5a6.3,6.3,0,0,0-3.7-1.4,5.4,5.4,0,0,0-2.1.5Z"/><path class="f1095fd4-a3ad-4b85-ac72-b2e6327187ce" d="M742.9,424.3a6.5,6.5,0,0,0-2.6,2.6c-.8,1.5-1.9,4-1,5.4s3.5,2.3,4.3,4.2-.3,5.9,2.6,6.9,9.4-1.4,9.9-2.6,1.5-4.6,2.6-6.1,2.7-3.4,2.3-5.2-1.2-4.4-3.9-5-5.8,2-7.1,1.3-2.3-1.9-4.8-2A5.6,5.6,0,0,0,742.9,424.3Z"/><path class="ab44b459-6620-43f2-8b2e-9984d9794ef5" d="M760.2,427a28.6,28.6,0,0,1-.3,3.7c-.2,1.1-2.5,2.2-3.7,2.3s-6.1-1.9-6.2-1.4,1.8,1.3,3.3,2.1a1.6,1.6,0,0,1,.4,2.7,3.5,3.5,0,0,1-2.4,1.2c-2.3.2-2.9-.2-3.5-1.1s.2-2.4-.5-2.8-3.6,0-6.8-1.8a3.5,3.5,0,0,1-1.3-2.3,3.1,3.1,0,0,0,.1,2.7c1.3,2.1,3.5,2.3,4.3,4.2s-.3,5.9,2.6,6.9,9.4-1.4,9.9-2.6,1.5-4.6,2.6-6.1,2.7-3.4,2.3-5.2A12.1,12.1,0,0,0,760.2,427Z"/><path class="ebecfe77-734a-4782-97f8-c987267c42ed" d="M757.1,424.5c-2.7-.7-5.8,2-7.1,1.3s-2.3-1.9-4.8-2a5.6,5.6,0,0,0-2.3.5,6.5,6.5,0,0,0-2.6,2.6l-.4.9a19.3,19.3,0,0,1,5.4-2.1c2.4-.3,7.4,3.3,7.4,3.3l-.2-1a1.1,1.1,0,0,1,.5-1.5,6.3,6.3,0,0,1,3.8-1.1,7.4,7.4,0,0,1,3.3,1.4A4.5,4.5,0,0,0,757.1,424.5Z"/><path class="ba68be68-9465-4daa-8f8c-5fa42d03f335" d="M747.9,444.1a4.8,4.8,0,0,1-1.8-.3c-2.4-.7-2.5-3.1-2.6-4.9a6.7,6.7,0,0,0-.4-2.2,3.5,3.5,0,0,0-1.9-1.9,9.8,9.8,0,0,1-2.4-2.2c-.9-1.6.1-4.1,1.1-5.9a6.3,6.3,0,0,1,2.8-2.8h0a5.8,5.8,0,0,1,2.6-.6,7.1,7.1,0,0,1,4.2,1.6l.8.4c.3.3,1.3-.1,2.2-.5s3.1-1.2,4.7-.8c3.2.8,3.9,3.9,4.3,5.4s-.9,3.6-1.9,5l-.5.6a21.4,21.4,0,0,0-1.9,4.3,12,12,0,0,0-.6,1.7C755.8,443.1,751.3,444.1,747.9,444.1Zm-4.8-19.3a6.1,6.1,0,0,0-2.4,2.4c-1.2,2.2-1.6,4-1,4.8a6.7,6.7,0,0,0,2.1,2,5.7,5.7,0,0,1,2.3,2.3,16.4,16.4,0,0,1,.4,2.5c.1,1.8.2,3.5,1.9,4.1s8.6-.6,9.2-2.3l.7-1.6a17.7,17.7,0,0,1,2-4.6l.4-.6c1-1.3,2.1-2.8,1.8-4.2s-1.3-4.1-3.5-4.6-2.8.2-4.1.7-2.3,1-3.2.5l-.8-.5a6,6,0,0,0-3.7-1.4,4.1,4.1,0,0,0-2.1.5Z"/><path class="f1095fd4-a3ad-4b85-ac72-b2e6327187ce" d="M639.3,251a6.5,6.5,0,0,0-2.6,2.6c-.8,1.5-1.9,4-1,5.4s3.6,2.3,4.3,4.2-.3,5.9,2.6,6.9,9.4-1.5,9.9-2.7,1.6-4.5,2.6-6,2.8-3.4,2.3-5.2-1.2-4.4-3.9-5-5.8,2-7.1,1.3-2.2-1.9-4.7-2A6,6,0,0,0,639.3,251Z"/><path class="ab44b459-6620-43f2-8b2e-9984d9794ef5" d="M656.6,253.7c0,.1-.1,3.1-.2,3.7s-2.5,2.2-3.8,2.3-6-1.9-6.2-1.4,1.8,1.3,3.3,2.1a1.7,1.7,0,0,1,.5,2.7,3.9,3.9,0,0,1-2.4,1.2c-2.3.2-3-.3-3.5-1.1s.1-2.4-.5-2.8-3.7,0-6.9-1.8a4.4,4.4,0,0,1-1.3-2.3,3.1,3.1,0,0,0,.1,2.7c1.3,2,3.6,2.3,4.3,4.2s-.3,5.9,2.6,6.9,9.4-1.5,9.9-2.7,1.6-4.5,2.6-6,2.8-3.4,2.3-5.2A12.1,12.1,0,0,0,656.6,253.7Z"/><path class="ebecfe77-734a-4782-97f8-c987267c42ed" d="M653.5,251.2c-2.7-.7-5.8,2-7.1,1.3s-2.2-1.9-4.7-2a6,6,0,0,0-2.4.5,6.5,6.5,0,0,0-2.6,2.6l-.4.9a21.1,21.1,0,0,1,5.5-2.1c2.3-.3,7.3,3.3,7.3,3.3v-1.1a1,1,0,0,1,.4-1.4,6.5,6.5,0,0,1,3.8-1.1,6.3,6.3,0,0,1,3.3,1.4A4.5,4.5,0,0,0,653.5,251.2Z"/><path class="ba68be68-9465-4daa-8f8c-5fa42d03f335" d="M644.3,270.8a4.8,4.8,0,0,1-1.8-.3c-2.3-.7-2.5-3.1-2.6-4.9a10.6,10.6,0,0,0-.3-2.2,4.4,4.4,0,0,0-1.9-1.9,8.6,8.6,0,0,1-2.4-2.3c-1-1.5,0-4,1-5.8a6.3,6.3,0,0,1,2.8-2.8h0a6.2,6.2,0,0,1,2.6-.6,7.9,7.9,0,0,1,4.2,1.5l.8.5c.4.3,1.3-.1,2.3-.5s3-1.2,4.6-.8c3.2.7,4,3.8,4.3,5.3s-.9,3.6-1.9,5.1l-.5.6a21.4,21.4,0,0,0-1.9,4.3c-.2.7-.5,1.3-.6,1.7C652.2,269.8,647.7,270.8,644.3,270.8Zm-4.7-19.3a5.1,5.1,0,0,0-2.4,2.4c-1.2,2.2-1.6,3.9-1.1,4.8a7.4,7.4,0,0,0,2.1,1.9,5.3,5.3,0,0,1,2.3,2.4,9.3,9.3,0,0,1,.4,2.5c.1,1.8.2,3.5,1.9,4.1s8.6-.7,9.3-2.4a11.4,11.4,0,0,1,.6-1.5,17.7,17.7,0,0,1,2-4.6l.5-.6c1-1.4,2.1-2.9,1.7-4.2s-1.2-4.1-3.5-4.7-2.8.3-4.1.8-2.3,1-3.1.5l-.8-.5a6.3,6.3,0,0,0-3.8-1.4,3.7,3.7,0,0,0-2,.5Z"/><path class="f1095fd4-a3ad-4b85-ac72-b2e6327187ce" d="M-6.7,42.4A6.5,6.5,0,0,0-9.3,45c-.8,1.5-1.9,4-1,5.4s3.6,2.3,4.3,4.2-.3,5.9,2.7,6.8S6,60,6.5,58.8s1.6-4.5,2.6-6,2.8-3.4,2.3-5.3-1.2-4.3-3.9-5S1.7,44.6.4,43.9s-2.2-1.9-4.7-2A6,6,0,0,0-6.7,42.4Z"/><path class="ab44b459-6620-43f2-8b2e-9984d9794ef5" d="M10.6,45.1c0,.1-.1,3.1-.2,3.7s-2.5,2.1-3.8,2.3S.6,49.2.4,49.7,2.2,51,3.7,51.8a1.7,1.7,0,0,1,.5,2.7,4.6,4.6,0,0,1-2.4,1.2c-2.3.1-3-.3-3.5-1.1s.1-2.4-.5-2.8-3.7,0-6.9-1.8a4.3,4.3,0,0,1-1.3-2.4,3.8,3.8,0,0,0,.1,2.8c1.3,2,3.6,2.3,4.3,4.2s-.3,5.9,2.7,6.8S6,60,6.5,58.8s1.6-4.5,2.6-6,2.8-3.4,2.3-5.3A8.5,8.5,0,0,0,10.6,45.1Z"/><path class="ebecfe77-734a-4782-97f8-c987267c42ed" d="M7.5,42.5c-2.7-.6-5.8,2.1-7.1,1.4s-2.2-1.9-4.7-2a6,6,0,0,0-2.4.5A6.5,6.5,0,0,0-9.3,45l-.4.9a26.2,26.2,0,0,1,5.5-2.2c2.3-.3,7.4,3.4,7.4,3.4L3,46a1.1,1.1,0,0,1,.4-1.5,7.2,7.2,0,0,1,3.8-1,6.3,6.3,0,0,1,3.3,1.4A4.6,4.6,0,0,0,7.5,42.5Z"/><path class="ba68be68-9465-4daa-8f8c-5fa42d03f335" d="M-1.7,62.2a5.2,5.2,0,0,1-1.8-.3C-5.8,61.2-6,58.8-6.1,57a6.5,6.5,0,0,0-.3-2.2,4.4,4.4,0,0,0-1.9-1.9,8.6,8.6,0,0,1-2.4-2.3c-1-1.5,0-4,1-5.8A6.3,6.3,0,0,1-6.9,42h0a6.2,6.2,0,0,1,2.6-.6A7.9,7.9,0,0,1-.1,42.9l.8.5c.4.2,1.3-.1,2.3-.5a7.2,7.2,0,0,1,4.6-.8c3.2.7,4,3.8,4.3,5.3S11,51,10,52.5l-.4.6a15.6,15.6,0,0,0-2,4.3c-.2.7-.5,1.2-.6,1.6C6.2,61.2,1.7,62.2-1.7,62.2ZM-6.4,42.9a5.3,5.3,0,0,0-2.4,2.3c-1.2,2.3-1.6,4-1.1,4.9A7.4,7.4,0,0,0-7.8,52a5.3,5.3,0,0,1,2.3,2.4,9.3,9.3,0,0,1,.4,2.5c.1,1.8.2,3.5,1.9,4.1s8.6-.7,9.3-2.4.4-.9.6-1.6a31.8,31.8,0,0,1,2-4.5l.5-.6c1-1.4,2.1-2.9,1.7-4.2S9.7,43.6,7.4,43s-2.8.3-4.1.8-2.3,1-3.1.5l-.8-.5a6.3,6.3,0,0,0-3.7-1.4,4.1,4.1,0,0,0-2.1.5Z"/><path class="f1095fd4-a3ad-4b85-ac72-b2e6327187ce" d="M78.7,166.1a3.8,3.8,0,0,0-1.4-1.8c-.1-.2-.3-.3-.4-.4s.1-.6.4-1.1.8-1.4.6-2-2.3-1.1-2.7-1.1a4.3,4.3,0,0,0-1.7.2c-1.2.5-3.1,2.4-2.5,4.2a12.1,12.1,0,0,0,1.9,3.6c.7.9,3.1.5,4.5-.2S78.9,166.6,78.7,166.1Z"/><path class="ba68be68-9465-4daa-8f8c-5fa42d03f335" d="M78.7,166.1a2.8,2.8,0,0,0-1.5-1.7l-.5-.4a.6.6,0,0,1-.1-.4c0-.2.1-.3.1-.4l.6-1a3.8,3.8,0,0,0,.3-1,1.1,1.1,0,0,0-.3-.7,3.5,3.5,0,0,0-2.1-.6h0a3.1,3.1,0,0,0-2.1.5,3.4,3.4,0,0,0-1.4,1.5,2.4,2.4,0,0,0-.4,2,15.4,15.4,0,0,0,.8,1.9,5.7,5.7,0,0,0,1.2,1.8,2.5,2.5,0,0,0,1.8.3,5.2,5.2,0,0,0,2.1-.4l1-.4C78.5,166.8,78.8,166.4,78.7,166.1Zm.1,0c.1.4-.2.7-.5,1l-1,.6a7.6,7.6,0,0,1-2.1.8H74a3.5,3.5,0,0,1-1.3-.5,11.3,11.3,0,0,1-1.3-2,19.5,19.5,0,0,1-.8-2.2,3,3,0,0,1,.7-2.3A6.4,6.4,0,0,1,73,160a5.6,5.6,0,0,1,2.3-.5h-.1a4,4,0,0,1,2.4.5,1.7,1.7,0,0,1,.7,1.3,3.3,3.3,0,0,1-.5,1.2l-.6,1c-.1.1-.2.3-.2.2l.4.4A5.6,5.6,0,0,1,78.8,166.1Z"/><path class="f1095fd4-a3ad-4b85-ac72-b2e6327187ce" d="M80.1,160s-.6-2.2,0-2.8,5,.8,4.7,1.7-2.9-.3-3.5.4S80.4,161.2,80.1,160Z"/><path class="ba68be68-9465-4daa-8f8c-5fa42d03f335" d="M80.1,160c-.1-.5-.4-1.1-.5-1.7a1.8,1.8,0,0,1,.1-1,1.2,1.2,0,0,1,.5-.5h.5l1.8.5,1.7.6a2.1,2.1,0,0,1,.8.6.6.6,0,0,1,0,.7c0,.1-.2.2-.3.3h-.3a5.3,5.3,0,0,1-1.8-.1h-1l-.3.2-.6.7h-.5A.9.9,0,0,1,80.1,160Zm.1,0a.6.6,0,0,0,.1.4c.1.1.2,0,.2-.2a2.5,2.5,0,0,0,.4-.7,1.3,1.3,0,0,1,.3-.5c.1-.2.3-.2.5-.3h1a5,5,0,0,0,1.6.2h.2a1.2,1.2,0,0,0-.5-.5,4.8,4.8,0,0,0-1.6-.8H80.3a1.2,1.2,0,0,0-.2.7A3.3,3.3,0,0,0,80.2,160Z"/><path class="f1095fd4-a3ad-4b85-ac72-b2e6327187ce" d="M81.6,161.8c1-.2,3-.7,3.2.6s-.6,3.3-1.9,3-3-1.3-2.6-2.2A2.8,2.8,0,0,1,81.6,161.8Z"/><path class="ba68be68-9465-4daa-8f8c-5fa42d03f335" d="M81.6,161.8l1.7-.5a2.7,2.7,0,0,1,.9,0,1.1,1.1,0,0,1,.8.7,2.8,2.8,0,0,1-.2,1.8,4.4,4.4,0,0,1-.8,1.5,1.3,1.3,0,0,1-1,.4h-.9a6.5,6.5,0,0,1-1.6-.9,2.2,2.2,0,0,1-.5-.8,1.3,1.3,0,0,1-.1-.6l.3-.5A4.5,4.5,0,0,1,81.6,161.8Zm0,.1a1.7,1.7,0,0,0-1,1.2.5.5,0,0,0,0,.5c.1.2.3.3.5.5a4.1,4.1,0,0,0,1.3.8c.5.2.9.4,1.3.1a2.2,2.2,0,0,0,.9-1.3,2.1,2.1,0,0,0-.2-1.4c-.1-.3-.6-.4-1.1-.5A3.3,3.3,0,0,0,81.6,161.9Z"/><path class="f1095fd4-a3ad-4b85-ac72-b2e6327187ce" d="M76.3,153.9a2.1,2.1,0,0,1-2.1,2.1c-.6,0-2.6-.6-2.4-1.7s.8-2.4,1.4-2.6S76.3,153.9,76.3,153.9Z"/><path class="ba68be68-9465-4daa-8f8c-5fa42d03f335" d="M76.3,153.9a1.8,1.8,0,0,1-.4,1.7,2.9,2.9,0,0,1-1.8.7,4.6,4.6,0,0,1-1.6-.7,2,2,0,0,1-.7-.6c-.1-.1-.1-.3-.2-.4a.7.7,0,0,1,.1-.5,3.3,3.3,0,0,1,.4-1.7,1.6,1.6,0,0,1,.6-.8l.5-.3h.6A6.7,6.7,0,0,1,76.3,153.9Zm-.1,0a20.1,20.1,0,0,0-2.7-1.7h-.3l-.5.5a9.4,9.4,0,0,0-.6,1.5c-.3.5,0,.9.5,1.2a2.7,2.7,0,0,0,1.5.2,2.4,2.4,0,0,0,1.4-.5A1.6,1.6,0,0,0,76.2,153.9Z"/><path class="f1095fd4-a3ad-4b85-ac72-b2e6327187ce" d="M728.4,84.1a6.8,6.8,0,0,0-2.2-2.9l-.7-.6c-.3-.2.1-.9.6-1.7s1.3-2.1,1-3.1-3.7-1.7-4.2-1.7a4.4,4.4,0,0,0-2.6.3c-2,.7-5,3.8-4,6.6a17.9,17.9,0,0,0,3,5.7c1.1,1.3,4.8.7,6.9-.3S728.6,84.9,728.4,84.1Z"/><path class="ba68be68-9465-4daa-8f8c-5fa42d03f335" d="M728.3,84.1a4.7,4.7,0,0,0-2.3-2.7l-.7-.5a.7.7,0,0,1-.2-.8c0-.2.1-.3.1-.5l.9-1.6a3.3,3.3,0,0,0,.5-1.5,1.3,1.3,0,0,0-.5-1.2,6.4,6.4,0,0,0-3.2-1h0a4.9,4.9,0,0,0-3.3.7,7.6,7.6,0,0,0-2.3,2.4,4.8,4.8,0,0,0-.6,3,21.5,21.5,0,0,0,1.3,3.2,18.1,18.1,0,0,0,1.8,2.7c.5.6,1.8.6,2.9.5a9.6,9.6,0,0,0,3.3-.6,4.6,4.6,0,0,0,1.6-.7C728,85.2,728.5,84.7,728.3,84.1Zm.1,0c.2.6-.3,1.2-.7,1.6l-1.5,1a19.6,19.6,0,0,1-3.4,1.2h-1.9a3.4,3.4,0,0,1-2-.8,14.9,14.9,0,0,1-2-3.1,20.6,20.6,0,0,1-1.2-3.5,5.1,5.1,0,0,1,1-3.6,10.1,10.1,0,0,1,2.7-2.4,7.3,7.3,0,0,1,3.6-.8h-.1a6.6,6.6,0,0,1,3.8.8,2.2,2.2,0,0,1,1,2,6.2,6.2,0,0,1-.7,1.9L725.9,80l-.2.4.6.7A6.3,6.3,0,0,1,728.4,84.1Z"/><path class="f1095fd4-a3ad-4b85-ac72-b2e6327187ce" d="M730.6,74.6s-1-3.5,0-4.4,7.7,1.2,7.3,2.7-4.6-.5-5.4.5S730.9,76.4,730.6,74.6Z"/><path class="ba68be68-9465-4daa-8f8c-5fa42d03f335" d="M730.5,74.6c-.2-.9-.5-1.7-.7-2.7a2.2,2.2,0,0,1,.1-1.6,1.1,1.1,0,0,1,.8-.7h.8a12.9,12.9,0,0,1,2.8.8l2.6.9a3.4,3.4,0,0,1,1.3.9.9.9,0,0,1,0,1.1,1,1,0,0,1-.4.5l-.5.2a9,9,0,0,1-2.9-.2h-1.5l-.5.4-.9,1.1-.3.2a.4.4,0,0,1-.5-.1C730.6,75.1,730.6,74.8,730.5,74.6Zm.1,0c.1.2.1.4.3.6s.2-.1.3-.2a7.5,7.5,0,0,0,.6-1.3l.4-.7a1.2,1.2,0,0,1,.9-.4h1.5l2.5.3h.3c-.1-.3-.5-.6-.8-.9a7.4,7.4,0,0,0-2.4-1.1,12.3,12.3,0,0,0-2.7-.2H731l-.2.2a8.1,8.1,0,0,0-.3,1.1A8.3,8.3,0,0,0,730.6,74.6Z"/><path class="f1095fd4-a3ad-4b85-ac72-b2e6327187ce" d="M732.9,77.4c1.5-.3,4.7-1.1,5,.9s-1,5.2-3,4.8-4.6-2.2-4.1-3.5A4.7,4.7,0,0,1,732.9,77.4Z"/><path class="ba68be68-9465-4daa-8f8c-5fa42d03f335" d="M732.9,77.4l2.6-.8h1.4a1.8,1.8,0,0,1,1.3,1.1,5.1,5.1,0,0,1-.3,2.8,5.6,5.6,0,0,1-1.3,2.4,2.1,2.1,0,0,1-1.5.7l-1.4-.3a6.9,6.9,0,0,1-2.5-1.4,3.3,3.3,0,0,1-.9-1.3,2.5,2.5,0,0,1-.1-.9,4.3,4.3,0,0,1,.4-.7A6.9,6.9,0,0,1,732.9,77.4Zm0,.1a3.3,3.3,0,0,0-1.6,1.9.8.8,0,0,0,.1.8,2.1,2.1,0,0,0,.6.8,7.2,7.2,0,0,0,2.1,1.2,2,2,0,0,0,2.1.2,3.1,3.1,0,0,0,1.3-2,3.5,3.5,0,0,0-.2-2.3c-.2-.5-.9-.6-1.8-.7A7.7,7.7,0,0,0,732.9,77.5Z"/><path class="f1095fd4-a3ad-4b85-ac72-b2e6327187ce" d="M724.5,65a3.2,3.2,0,0,1-3.2,3.2c-1,.1-4.1-.8-3.7-2.5s1.1-3.8,2.2-4.1S724.5,65,724.5,65Z"/><path class="ba68be68-9465-4daa-8f8c-5fa42d03f335" d="M724.6,64.9a3,3,0,0,1-.7,2.7,3.6,3.6,0,0,1-2.7,1.1,6.7,6.7,0,0,1-2.6-1,3.2,3.2,0,0,1-1-1,.9.9,0,0,1-.3-.7v-.7a9,9,0,0,1,.7-2.7,4.7,4.7,0,0,1,.9-1.2,1.6,1.6,0,0,1,.8-.5h1A11.8,11.8,0,0,1,724.6,64.9Zm-.1.1a42.8,42.8,0,0,0-4.3-2.7h-.5a2.2,2.2,0,0,0-.7.9,15.1,15.1,0,0,0-1.1,2.2,1.4,1.4,0,0,0,.9,1.9,3.9,3.9,0,0,0,2.3.4,5.2,5.2,0,0,0,2.2-.7A3.7,3.7,0,0,0,724.5,65Z"/><circle class="e9174052-b44a-470f-b6f0-323dad53400e" cx="48.1" cy="247.6" r="28" transform="translate(-203.9 237.6) rotate(-76.7)"/><path class="bb3f97f2-f9c5-4fb3-bf37-aefc86678e30" d="M51.8,226.3c0,2.5-2.7,4.4-6,4.4s-6.1-1.9-6.1-4.4,2.7-4.4,6.1-4.4S51.8,223.9,51.8,226.3Z"/><path class="bb3f97f2-f9c5-4fb3-bf37-aefc86678e30" d="M68.2,258.4c1.3,2,.2,5.1-2.5,7s-6.1,1.8-7.5-.2-.3-5.1,2.5-7S66.8,256.4,68.2,258.4Z"/><path class="bb3f97f2-f9c5-4fb3-bf37-aefc86678e30" d="M57.1,228.5c0,.8-.9,1.4-2,1.4s-2-.6-2-1.4.9-1.4,2-1.4S57.1,227.7,57.1,228.5Z"/><path class="afac323d-a20e-464a-adb9-8792a58b313f" d="M61.7,223.1c.9,2.1,1.7,4.4,1.5,5.4s.1,8.5,2.6,9.4,5.7.5,6,2.8,0,7.1,1.2,8.3a9.3,9.3,0,0,0,3,1.4,24.6,24.6,0,0,0,.2-2.8A28.1,28.1,0,0,0,61.7,223.1Z"/><path class="afac323d-a20e-464a-adb9-8792a58b313f" d="M35.2,222.8a3.9,3.9,0,0,0-.3,2.1c.6,5,7.4,11.5,14.3,9.6,4.9-1.4,10.6-.7,11.5-5.3.5-2.7-1.5-5.9-3.3-8a27.7,27.7,0,0,0-22.2,1.6Z"/><path class="b42cd0ec-33fc-4453-bc91-fc443a237701" d="M69.2,266.1c-4.2,2.3-11.6,5.4-19.1,4.6-23.1-2.6-25.8-20.9-28.5-32a26.4,26.4,0,0,0-1.5,8.9,28,28,0,0,0,49.1,18.5Z"/><path class="f6357756-3982-42bd-8870-6a2a5d237052" d="M33,258.8a.7.7,0,1,1-.7-.7A.7.7,0,0,1,33,258.8Z"/><path class="f6357756-3982-42bd-8870-6a2a5d237052" d="M35.7,257.3a.9.9,0,0,1-.8.8.8.8,0,1,1,0-1.6A.9.9,0,0,1,35.7,257.3Z"/><circle class="f6357756-3982-42bd-8870-6a2a5d237052" cx="36.7" cy="261.9" r="1.1"/><circle class="f6357756-3982-42bd-8870-6a2a5d237052" cx="54.4" cy="259.2" r="1.9"/><circle class="f6357756-3982-42bd-8870-6a2a5d237052" cx="58" cy="256.2" r="0.9"/><path class="f6357756-3982-42bd-8870-6a2a5d237052" d="M36.9,231.1a1.2,1.2,0,1,1-1.2-1.2A1.2,1.2,0,0,1,36.9,231.1Z"/><path class="f6357756-3982-42bd-8870-6a2a5d237052" d="M31.7,234a.7.7,0,1,1-.7-.7A.7.7,0,0,1,31.7,234Z"/><path class="f6357756-3982-42bd-8870-6a2a5d237052" d="M36,234.5a1.3,1.3,0,0,1-1.2,1.2,1.2,1.2,0,0,1-1.2-1.2,1.2,1.2,0,0,1,1.2-1.2A1.2,1.2,0,0,1,36,234.5Z"/><path class="afac323d-a20e-464a-adb9-8792a58b313f" d="M31.7,241.7s.5-2.4,4-2.4,3.7.3,7.3-.6,9.1.9,9.5,4.4-4.4,7.8-5.4,11.2-3.7,6.5-7.4,3.8-6-3.8-9.4-5.9S27.6,242.4,31.7,241.7Z"/><path class="e3ad78f6-0941-4f52-ab31-2a3dd25704af" d="M48.1,276.2a28.6,28.6,0,1,1,28.6-28.6A28.6,28.6,0,0,1,48.1,276.2Zm0-56.1a27.6,27.6,0,1,0,27.6,27.5A27.6,27.6,0,0,0,48.1,220.1Z"/><circle class="a7ea65f0-5b8e-4198-9c53-719ab8eb0f33" cx="760" cy="310.5" r="91.1"/><path class="ef40e51b-858d-42c9-8dc3-c04f61d092c7" d="M807.3,372.5c-12.5,7.6-31.4-.7-47.5-.7s-24.4,11.1-37.7,8.3-9.8-4.2-26.5-21.6a81.1,81.1,0,0,0-21-16.1A91.1,91.1,0,0,0,851,310.5C825.6,308.6,819.9,364.8,807.3,372.5Z"/><path class="ef40e51b-858d-42c9-8dc3-c04f61d092c7" d="M848.4,288.6A91.2,91.2,0,0,0,725.8,226c10.9,6.7,24.2,12.7,37,12.2,28.6-1,51,1.5,57.2,17.9C824.1,267.2,835.9,282.5,848.4,288.6Z"/><path class="f3b10cd2-8655-4347-b13a-ba7fb9afa064" d="M848.9,290.9c-22.3-6.3-35.9-4.8-55.7-2.5-11.4,1.3-24.4,2.7-42.6,3.2-23.6.6-43.9-8.2-60.4-26-2-2.2-3.8-4.4-5.5-6.5l-2.7,4.2c1.4,1.8,3,3.6,4.6,5.4,12,13,32.9,28.4,64.1,27.6,18.4-.4,32.1-2,43.1-3.2,20.5-2.3,33.4-3.8,56.1,3C849.6,294.4,849.3,292.7,848.9,290.9Z"/><path class="be743794-0d58-4263-be50-8daad7180241" d="M708.1,310.4c-19.5-6.6-29.9-17.1-35.4-26a89.5,89.5,0,0,0-3.8,26.1,88.4,88.4,0,0,0,2.8,22.5c33,21.1,89.9,22.6,98.3,9.7C779.9,327.5,747.3,323.7,708.1,310.4Z"/><path class="a3bbb363-8976-473c-b444-c089ae36815c" d="M753.4,248.8c-21.3-1.8-32.7-10.7-38.4-17.6a93.4,93.4,0,0,0-25.4,21.4c6.4,7,18.2,15.6,39.4,22.3,30.9,9.7,83.5.3,82.1-8S788.8,251.8,753.4,248.8Z"/><path class="a380059b-78bd-4ef6-90c0-0ca70a444806" d="M706.4,256.4a7.4,7.4,0,0,0,1.6,1.9c3.5,3.4,17.7,15.3,42.1,15.5,28.5.2,40.7-2.6,38.7-6.5s-32-1.2-48.3-8.1S700.8,247.4,706.4,256.4Z"/><path class="bcaabf8f-eb75-4e16-8bb0-41768cb821ec" d="M739.2,388.4s16-12.1,22.8-12.1,35.9,5.1,34.5,8.2-28.9,13.4-38.1,11.5S730.2,394.6,739.2,388.4Z"/><path class="f395e911-74fd-49a7-8799-309d4594ab1d" d="M677.8,302.7a4.9,4.9,0,0,1,2.8,1.3,59.4,59.4,0,0,0,22.3,13.3c13.9,4.4,46.9,9.6,48.1,13.6s-40.9,3.5-49.6,0S669,301.9,677.8,302.7Z"/><path class="e0de4b90-cf05-42c6-b60f-fdb589067e2d" d="M760,402.5a92.1,92.1,0,1,1,92-92A92.2,92.2,0,0,1,760,402.5Zm0-182.2a90.2,90.2,0,1,0,90.1,90.2A90.3,90.3,0,0,0,760,220.3Z"/><circle class="b3caf85c-b65b-42cd-a4ec-c9bcf3436140" cx="608.6" cy="-50.1" r="153.6" transform="translate(213.7 415.6) rotate(-45)"/><path class="bf1e9284-bcbc-4706-abb7-6856bb47c8b0" d="M468,11.8a153.5,153.5,0,0,0,166.9,89.4,152,152,0,0,0,54.8-20.9c-20-8-43.9-14-65-9.6-47.2,10-85.2,12.3-100.1-13.1C514.5,40.4,490.5,18.3,468,11.8Z"/><path class="fc8d3e1c-9acc-40d0-842a-a12e858bce62" d="M466.4,8.1c38.9,4,61-2.4,93.3-11.9,18.6-5.5,39.8-11.7,69.8-17.7,39-7.8,75.3.8,107.9,25.7,3.9,3,7.6,6.1,11,9.2q1.8-3.7,3.3-7.8c-2.9-2.5-6-5.1-9.3-7.6C718.7-20.2,679.6-39.7,628-29.3c-30.4,6.1-52.7,12.6-70.6,17.9C524.1-1.7,502.9,4.5,463.3-.3,464.2,2.6,465.3,5.3,466.4,8.1Z"/><path class="a2ee7c91-80af-49d5-beed-2ada66a56ff4" d="M637.3,50.4c36-3.2,57.4,8.4,68.9,18.1a156.2,156.2,0,0,0,36-42.9C729.5,15.9,707.4,5,670.3,0,616.1-7.1,531.5,23.7,536.2,37.1S577.7,55.6,637.3,50.4Z"/><path class="bf1e9284-bcbc-4706-abb7-6856bb47c8b0" d="M713.2,24.1a16.9,16.9,0,0,0-3.2-2.7C703.2,16.9,676.2,1.2,635.5,8c-47.4,7.9-66.8,16-62.4,22s53.5-7.4,82.6-.7S725,37.5,713.2,24.1Z"/><path class="b254fed8-65fe-46fc-830e-b1b690f31405" d="M581.9-203c84.3-14.7,164.8,41.9,179.5,126.2S719.5,88.1,635.2,102.8,470.4,60.8,455.7-23.5,497.6-188.3,581.9-203ZM634.7,99.6c82.5-14.4,138-93.3,123.6-175.8S665-214.3,582.4-199.9,444.4-106.6,458.8-24,552.1,114,634.7,99.6Z"/><path class="a7ea65f0-5b8e-4198-9c53-719ab8eb0f33" d="M-7.4,106.9H-9.9a60,60,0,0,1-21-4.2,43.8,43.8,0,0,1-9.8-5.3,41,41,0,0,1-8.1-8,34,34,0,0,1-5.1-10.5,39.4,39.4,0,0,1-1.3-11.5,50,50,0,0,1,6.5-21,78.1,78.1,0,0,1,12.8-17A110.9,110.9,0,0,1-20.1,15.8a135.7,135.7,0,0,1,14-8.7c-9,7.9-18,16.5-25.4,26.1-2.2,2.9-4.1,5.5-5.7,8.1a78,78,0,0,0-4.6,8.5,47.7,47.7,0,0,0-4.7,17.9,28.1,28.1,0,0,0,4.6,16.7,28.5,28.5,0,0,0,6.1,6.5,36.4,36.4,0,0,0,7.9,4.9,66.5,66.5,0,0,0,18.5,5,108.9,108.9,0,0,0,13.8.9h6.2a117.5,117.5,0,0,0,20-3.1A126.3,126.3,0,0,0,50,92c11.1-4.5,22.6-11.1,35.2-20.1a169.1,169.1,0,0,0,15.4-12.3A69.7,69.7,0,0,0,113,44.8a47,47,0,0,0,6.7-18.1,41.6,41.6,0,0,0,.3-9.9l-.5-5.4a38.4,38.4,0,0,1,3.6,15.5,44.7,44.7,0,0,1-5,20.7,62.8,62.8,0,0,1-12.8,17A81.7,81.7,0,0,1,88.6,77.3a147.5,147.5,0,0,1-18.8,8.9L53.1,92.3l-2.6.9c-12.6,4.5-25.7,9.1-39.5,11.7A82.5,82.5,0,0,1,.7,106.4C-2.3,106.7-4.9,106.9-7.4,106.9ZM3.8,85.2c-12,0-20.6-3.3-24-9.1h-.1A27,27,0,0,1-23,72l1.4-6.6c3.3-16.3,25.8-37.2,55.9-52.1,20.6-10.2,41.8-16,58.2-16,12.6,0,21.3,3.4,24.5,9.8l.5,1h.1a23.4,23.4,0,0,1,1.5,2.7L118,16.6c-3,16.1-26,37.7-56,52.6C41.4,79.3,20.2,85.2,3.8,85.2Zm100.7-5.4c8.5-7.8,17-16.4,23.9-26.2A77.1,77.1,0,0,0,137.7,37a43.5,43.5,0,0,0,3.5-17.7,27.9,27.9,0,0,0-1.3-8.5,6.5,6.5,0,0,0-.4-1.3,1.9,1.9,0,0,1-.2-.7h-.1l-.3-.8-.5-1.2-.3-.5a9.1,9.1,0,0,0-.7-1.4l-.5-.9-.6-.9A34.6,34.6,0,0,0,122.9-8.5,65.3,65.3,0,0,0,105-13.9a104.8,104.8,0,0,0-13.5-1l-6,.2A98.2,98.2,0,0,0,66-11.4l-3.1,1-1.6.5-1.2.4L56.6-8.3,51.9-6.4l-1.6.7-3,1.3C34.5,1.3,22.8,8.9,13.1,15.5,8.1,19,2.7,22.8-2.4,27A79.5,79.5,0,0,0-15.5,40.8a40.5,40.5,0,0,0-7.6,17.1,30.6,30.6,0,0,0-.5,7.3l.3,6.3a29.3,29.3,0,0,1-3.1-13.9,35.8,35.8,0,0,1,1.7-10.4,45.6,45.6,0,0,1,4.4-9.5A66.7,66.7,0,0,1-6.9,21.9a70.1,70.1,0,0,1,8-6.4A72,72,0,0,1,9.7,10,144.9,144.9,0,0,1,28,1.4l9.4-3.6,4.7-1.7,3.7-1.4L56.2-9.2l9.4-3.4,9.7-2.9,4.9-1.3,2.4-.6,2.5-.5a87.4,87.4,0,0,1,17.6-1.9h2.8A57.9,57.9,0,0,1,126-15.2a43.7,43.7,0,0,1,9.4,5.5,36.6,36.6,0,0,1,7.8,7.9,33.8,33.8,0,0,1,5.1,10,39.2,39.2,0,0,1,1.6,11.1,48.3,48.3,0,0,1-5.1,20.9,72.5,72.5,0,0,1-5.3,9,85.6,85.6,0,0,1-6.4,8.1c-2,2.2-4.3,4.5-7.3,7.3l-.7.6L122,67.9l-.5.4L118,71A120.2,120.2,0,0,1,104.5,79.8Z"/><path class="bce246b7-0a74-4d47-b430-148fa267ef18" d="M102.7-18.8h2.8a58.3,58.3,0,0,1,20.1,4.4A55.1,55.1,0,0,1,134.8-9a37.5,37.5,0,0,1,7.6,7.8,31.7,31.7,0,0,1,4.9,9.7,34,34,0,0,1,1.6,10.8,47.1,47.1,0,0,1-5,20.4,64.8,64.8,0,0,1-5.2,9,101.1,101.1,0,0,1-6.4,8,94.5,94.5,0,0,1-7.1,7.1l-.7.6-3.1,2.7-.5.4-3.5,2.7c-1.8,1.3-3.5,2.6-5.4,3.8a148.8,148.8,0,0,0,17.3-19.8,85.6,85.6,0,0,0,9.3-16.8,44.2,44.2,0,0,0,3.6-18.1,34.1,34.1,0,0,0-1.3-8.8c-.1-.5-.3-.9-.4-1.3l-.3-.7h-.1l-.3-.7a6.9,6.9,0,0,0-.5-1.3l-.3-.6-.7-1.4-.5-.9h-.1l-.6-.9A35.8,35.8,0,0,0,123.3-9.4a63.1,63.1,0,0,0-18.2-5.5,106.3,106.3,0,0,0-13.6-1l-6,.2a93,93,0,0,0-10.3,1.2h.3l4.9-1.2,2.4-.6,2.5-.5a85.5,85.5,0,0,1,17.4-1.9M40.3-2.2A252,252,0,0,0,12.5,14.7C7.5,18.2,2.1,22-3.1,26.3A77,77,0,0,0-16.3,40.2a41.2,41.2,0,0,0-7.8,17.5,36.4,36.4,0,0,0-.5,7.3,26.3,26.3,0,0,1-.8-7.4,37.2,37.2,0,0,1,1.6-10.1,43.7,43.7,0,0,1,4.3-9.3A67.2,67.2,0,0,1-6.3,22.6a96.2,96.2,0,0,1,8-6.3,97.7,97.7,0,0,1,8.5-5.4A129.2,129.2,0,0,1,28.3,2.4l9.4-3.7,2.6-.9m52.2.5c12.2,0,20.5,3.3,23.6,9.2l.9,1.9h.2l.9,1.5L117,16.5c-2.9,15.8-25.7,37.1-55.5,51.8C41.1,78.4,20.1,84.2,3.8,84.2c-11.7,0-19.9-3.1-23.2-8.6v-.2h-.1a30.3,30.3,0,0,1-2.3-3.5l1.3-6.2c3.2-15.8,26-36.9,55.4-51.4C55.2,4.1,76.3-1.7,92.5-1.7M-14,12.9A162.4,162.4,0,0,0-32.3,32.6c-2.2,2.9-4.1,5.6-5.7,8.2a65.9,65.9,0,0,0-4.7,8.6,47.5,47.5,0,0,0-4.8,18.3,29.7,29.7,0,0,0,4.7,17.2,31.1,31.1,0,0,0,6.3,6.8,40.9,40.9,0,0,0,8.1,5c5.2,2.4,11.2,4,18.9,5.1a110.5,110.5,0,0,0,13.9.9h6.2a115.8,115.8,0,0,0,12-1.4c-3.9,1-7.8,2-11.8,2.8A101.5,101.5,0,0,1,.6,105.4a78,78,0,0,1-8,.5H-9.8a60.5,60.5,0,0,1-20.7-4.1,49,49,0,0,1-9.6-5.2A36.6,36.6,0,0,1-48,88.7a29.1,29.1,0,0,1-4.9-10.2,36.8,36.8,0,0,1-1.3-11.1,47.8,47.8,0,0,1,6.4-20.6A79.3,79.3,0,0,1-35.2,30,108.5,108.5,0,0,1-19.5,16.6l5.5-3.7m135.2,6.3a46.4,46.4,0,0,1,.9,7.7,43.6,43.6,0,0,1-4.9,20.2,63.2,63.2,0,0,1-12.6,16.8A83.2,83.2,0,0,1,88.1,76.4a137.5,137.5,0,0,1-18.6,8.8L58.4,89.4A195.1,195.1,0,0,0,85.7,72.7a160.6,160.6,0,0,0,15.6-12.3,74.8,74.8,0,0,0,12.6-15.1,48.3,48.3,0,0,0,6.8-18.5,50.1,50.1,0,0,0,.5-7.6m-18.5-40a96,96,0,0,0-17.8,1.9l-2.5.6-2.5.5L75-16.5c-3.2,1-6.5,1.9-9.7,3l-9.5,3.4L46.5-6.6,41.7-4.9,37-3.1C33.9-1.9,30.7-.8,27.6.5A161.6,161.6,0,0,0,9.2,9.1c-3,1.7-5.9,3.6-8.7,5.5a100.2,100.2,0,0,0-8.1,6.5A68.4,68.4,0,0,0-21.2,37.2a47.6,47.6,0,0,0-4.5,9.7,39.2,39.2,0,0,0-1.7,10.7,29.2,29.2,0,0,0,6.3,19c3.8,6.4,12.8,9.6,24.9,9.6,15.9,0,37.1-5.5,58.6-16.1C93.7,54.6,116,32.9,119,16.8h0a38.5,38.5,0,0,1-.3,9.6,46.6,46.6,0,0,1-6.5,17.8A73.9,73.9,0,0,1,99.9,58.9,151.5,151.5,0,0,1,84.6,71.1c-10.8,7.7-22.4,14.8-35,20a131,131,0,0,1-19.2,6.4,103,103,0,0,1-19.9,3.1H4.4a121.2,121.2,0,0,1-13.6-.8c-6.5-1-12.7-2.4-18.3-5a35.6,35.6,0,0,1-7.7-4.8,27.1,27.1,0,0,1-5.9-6.3,27.1,27.1,0,0,1-4.4-16,45.1,45.1,0,0,1,4.6-17.6,87.2,87.2,0,0,1,4.6-8.4c1.7-2.7,3.6-5.4,5.6-8,8-10.4,18-19.7,28.3-28.7L-3,4.3A138.8,138.8,0,0,0-20.7,15a114,114,0,0,0-16,13.6A81.4,81.4,0,0,0-49.6,45.8a52,52,0,0,0-6.6,21.5,39.6,39.6,0,0,0,1.3,11.8,32.5,32.5,0,0,0,5.3,10.7,34.8,34.8,0,0,0,8.4,8.3,45.6,45.6,0,0,0,9.9,5.4,62.3,62.3,0,0,0,21.4,4.3h2.5a73.7,73.7,0,0,0,8.2-.5,93,93,0,0,0,10.4-1.5c13.7-2.6,26.7-7.2,39.6-11.7,6.5-2.3,13-4.6,19.4-7.1a136.1,136.1,0,0,0,18.9-9A83.6,83.6,0,0,0,106,65.3,65,65,0,0,0,119,48a45.9,45.9,0,0,0,5.1-21.1c-.2-7.3-2.1-14.5-6.2-20.3h-.1C114.3-.3,105.1-3.7,92.5-3.7c-15.9,0-37.1,5.4-58.6,16.1C2.9,27.7-19.3,49.1-22.6,65.2a43.5,43.5,0,0,1,.4-7.2,40.3,40.3,0,0,1,7.5-16.6A78.9,78.9,0,0,1-1.8,27.8C3.1,23.7,8.3,20,13.7,16.3,24.4,9,35.6,1.9,47.7-3.5l4.6-2,4.6-1.8L61.6-9l4.7-1.4a97.4,97.4,0,0,1,19.3-3.3l5.9-.2a98,98,0,0,1,13.3,1,60,60,0,0,1,17.6,5.3A34,34,0,0,1,135.5,3.5l.5.9.5.9a17.4,17.4,0,0,1,1,1.9c.3.6.5,1.3.8,1.9s.5,1.3.7,2a32,32,0,0,1,1.2,8.3,43.6,43.6,0,0,1-3.4,17.2A80.7,80.7,0,0,1,127.6,53c-7.4,10.5-16.8,19.7-26.7,28.7l.6.9a117.2,117.2,0,0,0,17.1-10.8l4-3.1c1.4-1.1,2.6-2.3,3.9-3.4a100.5,100.5,0,0,0,7.3-7.3,86.7,86.7,0,0,0,6.5-8.2,76.4,76.4,0,0,0,5.4-9.2,49.6,49.6,0,0,0,5.2-21.3,37.1,37.1,0,0,0-1.7-11.4A35.7,35.7,0,0,0,144-2.4a38.4,38.4,0,0,0-8-8.1,49,49,0,0,0-9.6-5.6,59.6,59.6,0,0,0-20.9-4.6Z"/><path class="acf50f07-68e5-4ffe-a2da-82d88e24eddc" d="M69.1,98s-77.2,44.2-120.7,3C-51.6,101-30.6,163.2,69.1,98Z"/><path class="acf50f07-68e5-4ffe-a2da-82d88e24eddc" d="M33.8,126.6s55-3.4,108.5-62.5c0,0-39.3,26.2-54.5,35.7C74.9,107.9,33.8,126.6,33.8,126.6Z"/><path class="acf50f07-68e5-4ffe-a2da-82d88e24eddc" d="M147.4-18s27.3,25.5,5.1,65C152.5,47,185.5,13.1,147.4-18Z"/><path class="acf50f07-68e5-4ffe-a2da-82d88e24eddc" d="M-7.2,71S-23.1,49,39.1,23C39.1,23-3.4,48.4-7.2,71Z"/><path class="acf50f07-68e5-4ffe-a2da-82d88e24eddc" d="M28.7,72.7s59.2-24.5,78.6-59.4C107.3,13.3,99.7,53.7,28.7,72.7Z"/><path class="acf50f07-68e5-4ffe-a2da-82d88e24eddc" d="M25.8-19.2c-1.8,0-61,22-83.6,65.7,0,0,3.7-46.4,81.8-65.7"/><g class="a061a4a3-10bc-43b2-b971-be19e3b0da35"><path class="eb000c3c-12b3-4838-873f-9b5e42bcc073" d="M56.5,21.5c-2.9.7-4.6-3.3-2-4.8,9.5-5.5,22.4-11.1,34-9.4s-.7,23.5-11.1,27.3,8.8-17.3-3.1-16.5C69.3,18.4,62.6,19.9,56.5,21.5Z"/></g><g class="a061a4a3-10bc-43b2-b971-be19e3b0da35"><path class="eb000c3c-12b3-4838-873f-9b5e42bcc073" d="M7.4,63.2,61.5,46.1S17.3,77.2,7.4,63.2Z"/></g><polygon class="b6dc6536-60ad-4889-9fb9-14936ba720d1" points="713.2 134.8 712.4 138.1 694.2 155.9 660.2 129.5 660 126.4 713.2 134.8"/><polygon class="bd578dcf-e458-4ac9-8aca-392b9d5806a6" points="678.2 110 713.2 134.8 693.7 153.1 660 126.4 678.2 110"/><path class="b4c78136-6fa9-4542-a9e2-a2d7fcc496e3" d="M695.4,151.4,711.9,136l1.1-1.4-8.7-6.1c-5.2,3.9-14.9,10.6-19.1,11-6,.6-14-4.2-14.6-4.7h0l22,17.4Z"/><rect class="bfa897ff-11b5-4b2e-8fb2-89fe12e37010" x="681" y="134.1" width="54.4" height="35.51" rx="14.6" transform="translate(89.1 527.8) rotate(-43.4)"/><path class="e4cba73f-04e9-4df4-badd-e2187e1e493e" d="M734.1,146.5c-2.4-.8-5.2-1.6-6.1-1.5s-16.5,15.1-19,17.2a6.4,6.4,0,0,0-2,4,1.2,1.2,0,0,1-2.2.2c-1.6-3.2-4.2-7.8-7.2-10.2s-9.9-5.2-12.8-6.1a14.7,14.7,0,0,0,1.5,18.2l4.3,4.5a14.6,14.6,0,0,0,20.7.6l18.3-17.3A14,14,0,0,0,734.1,146.5Z"/><path class="be3de8bd-099d-4cc2-9e12-d970cf1f3b08" d="M729,134.2l-3.1-3.3a14.7,14.7,0,0,0-20.7-.6l-18,17.1-.4.8s24.1-17.7,31.3-16.8A49,49,0,0,1,729,134.2Z"/><path class="e9139d78-1d27-4f6e-af5c-d38b91056439" d="M734.9,145.9a15.5,15.5,0,0,0-4.2-11l-4.3-4.5a14.9,14.9,0,0,0-8.7-4.6,15.1,15.1,0,0,0-13,4l-18.3,17.3a15.2,15.2,0,0,0-.6,21.7l4.3,4.5a15.3,15.3,0,0,0,8.7,4.7,15.5,15.5,0,0,0,13-4l18.1-17.2-.5-.5.4-.3.5.5A15.4,15.4,0,0,0,734.9,145.9Zm-5.8,9.7-18.3,17.3a13.7,13.7,0,0,1-10,3.7H699a13.9,13.9,0,0,1-7.9-4.2l-4.3-4.5a14,14,0,0,1,.6-19.7l18.3-17.2a13.7,13.7,0,0,1,19.6.5l4.3,4.6a13.6,13.6,0,0,1,3.8,9.9A13.8,13.8,0,0,1,729.1,155.6Z"/><path class="eb39ae02-1b36-4f9a-996b-026ed1aa65fd" d="M700.3,202.1s15.5-18-4.8-39.6-39.3-7.1-39.3-7.1Z"/><ellipse class="b426ea6f-1f00-4c7a-8363-40499cb47f6f" cx="678.2" cy="178.8" rx="11.3" ry="32.2" transform="translate(62.4 514.5) rotate(-43.4)"/><path class="b978a6a6-9e26-4c45-8394-a63d0bc36c31" d="M701.8,197.5c-.3-6.3-6.1-16.7-15.3-26.5s-21.1-17.3-27.2-16.9h0s9,1.3,13.3,9.1,3.5,14.6,13.3,20.4a74.9,74.9,0,0,1,15.9,13.9Z"/><polygon class="b426ea6f-1f00-4c7a-8363-40499cb47f6f" points="762.7 173.4 761.9 176.7 743.7 194.5 709.6 168.1 709.5 165 762.7 173.4"/><path class="e9174052-b44a-470f-b6f0-323dad53400e" d="M730.9,151l31.8,22.4-19.5,18.2L709.5,165l15.2-13.7A5,5,0,0,1,730.9,151Z"/><path class="eb39ae02-1b36-4f9a-996b-026ed1aa65fd" d="M762.7,173.4l-8.2-5.8,1.8,4.9s-10.7,4.3-17.4,3.2S709.5,165,709.5,165l33.7,26.6Z"/><path class="e9174052-b44a-470f-b6f0-323dad53400e" d="M687.5,171.8a19.5,19.5,0,0,0-2.4-2.5l-15.3,14.9h-.6a3.6,3.6,0,0,0-4.3,3,3.8,3.8,0,0,0,3.1,4.3,3.9,3.9,0,0,0,4.3-3.1,8.6,8.6,0,0,0-.1-1.6Z"/><path class="eb39ae02-1b36-4f9a-996b-026ed1aa65fd" d="M674.2,183.2c-.5.1-1.3-.5-2.1-1.3l-2.3,2.3h-.6a3.6,3.6,0,0,0-4.3,3,3.8,3.8,0,0,0,3.1,4.3,3.9,3.9,0,0,0,4.3-3.1,8.6,8.6,0,0,0-.1-1.6l4.4-4.3A22.3,22.3,0,0,1,674.2,183.2Z"/></g></g></g></svg>