<?xml version="1.0" encoding="utf-8"?>
<!-- Generator: Adobe Illustrator 24.2.1, SVG Export Plug-In . SVG Version: 6.00 Build 0)  -->
<svg version="1.1" id="图层_1" xmlns="http://www.w3.org/2000/svg" xmlns:xlink="http://www.w3.org/1999/xlink" x="0px" y="0px"
	 viewBox="0 0 340.16 453.54" style="enable-background:new 0 0 340.16 453.54;" xml:space="preserve">
<style type="text/css">
	.st0{opacity:0.29;fill:#5476FF;}
	.st1{opacity:0.2;}
	.st2{fill:url(#SVGID_1_);}
	.st3{fill:url(#SVGID_2_);}
	.st4{fill:#A67070;}
	.st5{fill:#FF8888;}
	.st6{fill:#FFADAD;}
	.st7{fill:url(#SVGID_3_);}
	.st8{fill:url(#SVGID_4_);}
	.st9{fill:#5476FF;}
	.st10{fill:#544DFF;}
	.st11{fill:url(#SVGID_5_);}
	.st12{fill:#3931A3;}
	.st13{fill:#402C2C;}
	.st14{opacity:0.27;}
	.st15{fill:url(#SVGID_6_);}
	.st16{fill:url(#SVGID_7_);}
	.st17{fill:#FFE7DB;}
	.st18{fill:url(#SVGID_8_);}
	.st19{fill:url(#SVGID_9_);}
	.st20{fill:url(#SVGID_10_);}
	.st21{fill:url(#SVGID_11_);}
	.st22{fill:url(#SVGID_12_);}
	.st23{fill:url(#SVGID_13_);}
	.st24{fill:url(#SVGID_14_);}
	.st25{fill:#FFFFFF;}
	.st26{fill:url(#SVGID_15_);}
	.st27{fill:url(#SVGID_16_);}
	.st28{fill:#9FA9D1;}
	.st29{font-family:'Gilroy-ExtraBold';}
	.st30{font-size:4px;}
	.st31{fill:url(#SVGID_17_);}
	.st32{fill:url(#SVGID_18_);}
	.st33{fill:url(#SVGID_19_);}
	.st34{fill:url(#SVGID_20_);}
</style>
<g>
	<path class="st0" d="M72.88,250.67c6.9-3.01,11.67-9.33,13.67-15.67c2-6.33,0.5-9-2-8.67c-2.5,0.33-2.29,7.54-6.83,12.15
		c-6.97,7.08-13,4.35-14.17,8.51C62.38,251.17,66.38,253.51,72.88,250.67z"/>
	<path class="st0" d="M43.21,271.97c0,0,8.38-7.66,20.14-4.96c11.76,2.7,20.32,13.23,37.75,10.75c17.43-2.47,25.87-3.04,35.78,4.12
		c9.9,7.16,8.47,23.56,24.19,21.36c15.72-2.2,30.2-11.93,49.46-8.9c19.26,3.03,49.59,18.26,53.59,32.15c4,13.89-13,29.22-27,22.22
		s-22.81-26.09-41.93-30.03c-24.24-4.99-43.2,8.02-53.47,1.73c-23.62-14.48-16.29-33.79-28.87-29.01
		c-19.14,7.27-34.57,3.8-44.53-8.35c-9.95-12.16-16.5-10.61-25.01-6.14L43.21,271.97z"/>
	<path class="st1" d="M86.38,444.41c0,2.12-14.79,3.83-33.03,3.83c-18.24,0-33.03-1.72-33.03-3.83c0-2.12,14.79-3.83,33.03-3.83
		C71.59,440.57,86.38,442.29,86.38,444.41z"/>
	<linearGradient id="SVGID_1_" gradientUnits="userSpaceOnUse" x1="40.6218" y1="450.6904" x2="40.6218" y2="423.5236">
		<stop  offset="0" style="stop-color:#FFE7DB"/>
		<stop  offset="0.326" style="stop-color:#FFE4D9"/>
		<stop  offset="0.5573" style="stop-color:#FFDBD1"/>
		<stop  offset="0.7592" style="stop-color:#FFCBC5"/>
		<stop  offset="0.9434" style="stop-color:#FFB5B4"/>
		<stop  offset="1" style="stop-color:#FFADAD"/>
	</linearGradient>
	<path class="st2" d="M43.62,426.31v8.46l-5.09,4.06l-9.56,3.23l-1.31,3.65h25.92c0,0-0.19-4.54-3.15-10.6v-8.81H43.62z"/>
	<linearGradient id="SVGID_2_" gradientUnits="userSpaceOnUse" x1="68.3056" y1="450.6904" x2="68.3056" y2="423.5237">
		<stop  offset="0" style="stop-color:#FFE7DB"/>
		<stop  offset="0.326" style="stop-color:#FFE4D9"/>
		<stop  offset="0.5573" style="stop-color:#FFDBD1"/>
		<stop  offset="0.7592" style="stop-color:#FFCBC5"/>
		<stop  offset="0.9434" style="stop-color:#FFB5B4"/>
		<stop  offset="1" style="stop-color:#FFADAD"/>
	</linearGradient>
	<path class="st3" d="M64.21,423.15l3.51,8.81l-2.96,5.92l-7.36,3.16l-1.24,3.37h13.97l10.32-8.74c0,0-2.89-3.37-6.81-5.37
		l-2.2-7.77L64.21,423.15z"/>
	<path class="st4" d="M28.97,441.62l-1.31,3.65h25.92c0,0-0.19-4.54-3.15-10.6l-6.81-0.34l-5.09,4.06L28.97,441.62z"/>
	<path class="st5" d="M51.51,342.51h18.53l-8.81,42.66c0,0,8.44,5.96,12.11,39.17l-9.56,1.08l-15.02-37.77L51.51,342.51z"/>
	<path class="st1" d="M51.51,342.51l-2.75,45.13l5.47,13.76l16.47,6.24c-4.04-18.62-9.46-22.47-9.46-22.47l8.81-42.66H51.51z"/>
	<polygon class="st6" points="36.1,315.87 33.48,314.59 35.94,311.53 37.23,313.24 	"/>
	<linearGradient id="SVGID_3_" gradientUnits="userSpaceOnUse" x1="19.3594" y1="307.9396" x2="39.065" y2="307.9396">
		<stop  offset="0" style="stop-color:#FFE7DB"/>
		<stop  offset="0.326" style="stop-color:#FFE4D9"/>
		<stop  offset="0.5573" style="stop-color:#FFDBD1"/>
		<stop  offset="0.7592" style="stop-color:#FFCBC5"/>
		<stop  offset="0.9434" style="stop-color:#FFB5B4"/>
		<stop  offset="1" style="stop-color:#FFADAD"/>
	</linearGradient>
	<path class="st7" d="M19.36,306.93l1.51-3.3c0,0,1.19-5.14,9.59-4.95l8.61,14.9c0,0-4.25-0.59-7.83,3.63L19.36,306.93z"/>
	<linearGradient id="SVGID_4_" gradientUnits="userSpaceOnUse" x1="7.48" y1="310.9656" x2="31.2389" y2="310.9656">
		<stop  offset="0" style="stop-color:#FFE7DB"/>
		<stop  offset="0.326" style="stop-color:#FFE4D9"/>
		<stop  offset="0.5573" style="stop-color:#FFDBD1"/>
		<stop  offset="0.7592" style="stop-color:#FFCBC5"/>
		<stop  offset="0.9434" style="stop-color:#FFB5B4"/>
		<stop  offset="1" style="stop-color:#FFADAD"/>
	</linearGradient>
	<path class="st8" d="M20.87,303.63l10.37,13.58c0,0-8.43-2.82-12.38,1.48L7.48,307.65C7.48,307.65,12.53,301.7,20.87,303.63z"/>
	<path class="st6" d="M29.5,280.93l1.01,1.05c0,0,1.28,1.7,1.56,2.52c0.28,0.83,0,2.39,0,2.39l2.16-0.23c0,0,2.94,3.99,3.9,4.4
		c0.96,0.41,3.94-1.51,5-1.61c1.05-0.09,3.07,2.29,3.07,2.29l6.93-4.31l-4.95-6.01l-2.52-8.03l-17.25,0.92l-2.94,5.05L29.5,280.93z"
		/>
	<path class="st1" d="M47.83,280.37c0,0-3.24,0.7-3.29,1.61c-0.28,4.76-4.24,8.59-4.24,8.59c1.09-0.47,2.24-1.06,2.82-1.11
		c1.05-0.09,3.07,2.29,3.07,2.29l6.93-4.31l-4.95-6.01L47.83,280.37z"/>
	<path class="st9" d="M45,294.25c0,0-1.1-6.05,10.46-8.39l2.41,4.68c0,0,4.47,3.3,6.6,11.7c2.13,8.39,3.1,23.94,4.06,28.55
		c0.96,4.61,2.55,13.69,2.55,13.69H41.33C41.33,344.47,40.39,301.47,45,294.25z"/>
	<path class="st5" d="M43.49,341.27l-2.23,42.11l1.13,45.68h10.07c0,0,4.01-32.06,0-42.24l13.46-45.55H43.49z"/>
	<polygon class="st1" points="65.55,342.07 65.91,340.83 43.49,340.83 43.29,344.49 68.3,350.51 70.04,342.07 	"/>
	<path class="st6" d="M20.63,318.19c0,0-2.91-5.03-4.72-7.25c0,0-3.85-0.87-3.85-0.18c0,0.69,3.51,0.96,2.64,2.29
		c-0.87,1.33-5.34-3.49-5.34-3.49s-1.88,6.8,1.01,8.64c2.89,1.83,9.68,3.67,9.68,3.67L20.63,318.19z"/>
	<path class="st6" d="M37.52,310.74c0,0,0.03-1.66-1.61-3.99c-1.45-2.06-5.46-2.2-5.46-2.2s1.38,2.29,3.07,3.1
		c0,0,0.76,4.67,2.84,5.23C36.75,312.98,37.44,311.45,37.52,310.74z"/>
	<polygon class="st10" points="34.92,315.56 37.52,310.74 43.21,313.58 40.18,319.55 	"/>
	<linearGradient id="SVGID_5_" gradientUnits="userSpaceOnUse" x1="441.2353" y1="109.6939" x2="-41.0358" y2="288.0388">
		<stop  offset="0" style="stop-color:#3931A3"/>
		<stop  offset="0.2745" style="stop-color:#3A32A6"/>
		<stop  offset="0.4693" style="stop-color:#3D35AF"/>
		<stop  offset="0.6394" style="stop-color:#4139BF"/>
		<stop  offset="0.7953" style="stop-color:#4840D5"/>
		<stop  offset="0.9403" style="stop-color:#5049F1"/>
		<stop  offset="1" style="stop-color:#544DFF"/>
	</linearGradient>
	<path class="st11" d="M42.01,268.59c0,0,2.92-11.01,14.67-12.17c19.45-1.92,25.3-6.11,35.2-23.92c9.9-17.82,27.02-20.62,36-33
		c8.98-12.38,5.75-27.5,36.91-35.87c24.43-6.56,35.16-26.58,26.59-44.54c-7.06-14.79-45.61-18.78-54.87-40.76
		c-16.39-38.89,18.05-59.18,46.31-57.82c28.26,1.36,78.75,20.06,99.05,49.38s22.13,147.14,40.2,183.99
		c18.07,36.84,15.85,73.66,2.29,83.84c-13.56,10.18-38.12,27.17-66,7.27c-27.88-19.9-43.41-31.41-58.97-34.02
		c-19.75-3.31-43.26,1.75-53.25-1.6c-9.99-3.35-6.2-15.16-18.25-23.51c-8.15-5.65-20.27-1.2-31.69-0.77
		c-20.73,0.77-25.37-20.34-50.81-11.68L42.01,268.59z"/>
	<path class="st12" d="M118.55,291.75c5.36-2.09,9.83,5.66,11,10.16c1.17,4.5,3,9.01,8.5,13.26c5.5,4.24,4,9.84,0.67,10.79
		c-3.33,0.95-9.17-1.29-18.17-8.75C111.55,309.74,109.55,295.26,118.55,291.75z"/>
	<path class="st12" d="M214.64,327.96c4.07-4.07,11.28,1.23,14.16,4.88c2.88,3.65,6.37,7.04,13.11,8.72
		c6.74,1.67,7.62,7.4,4.95,9.61c-2.67,2.21-8.91,2.51-20.15-0.7C215.47,347.25,207.81,334.79,214.64,327.96z"/>
	<path class="st10" d="M162.55,325.74c0,2.95-2.39,5.33-5.33,5.33c-2.95,0-5.33-2.39-5.33-5.33s2.39-5.33,5.33-5.33
		C160.16,320.41,162.55,322.8,162.55,325.74z"/>
	<path class="st9" d="M171.26,317.36c0,1.21-0.98,2.19-2.19,2.19c-1.21,0-2.19-0.98-2.19-2.19c0-1.21,0.98-2.19,2.19-2.19
		C170.28,315.17,171.26,316.15,171.26,317.36z"/>
	<path class="st10" d="M72.88,247.41c6.9-3.01,11.67-9.33,13.67-15.67c2-6.33,0.5-9-2-8.67c-2.5,0.33-2.29,7.54-6.83,12.15
		c-6.97,7.08-13,4.35-14.17,8.51C62.38,247.91,66.38,250.24,72.88,247.41z"/>
	<circle class="st12" cx="91.69" cy="218.68" r="2.94"/>
	<circle class="st12" cx="116.05" cy="204.63" r="1"/>
	<path class="st13" d="M29.08,277.81c0,0,4.17,0.78,6.83,0.6c2.66-0.18,2.94,3.21,5.41,3.58c0,0-1.01-2.84,0-4.31
		c1.01-1.47,3.21-0.92,3.21,1.1c0,2.02,0,3.21,0,3.21s2.39,1.56,3.94,0c1.56-1.56-0.18-2.58,0-5.14c0.18-2.56,0.46-11.55-9.45-13.48
		c-9.91-1.93-12.11,6.11-12.57,9.66c-0.46,3.55-2.39,5.11-2.2,6.95c0.18,1.83,3.76,3.21,6.24,2.02L29.08,277.81z"/>
	<path class="st14" d="M25.94,278.87c-0.47,0.83-0.54,2.11,0.32,3.14c1.27,0.51,2.91,0.62,4.24-0.02l-1.42-4.17
		C29.08,277.81,26.76,277.43,25.94,278.87z"/>
	<linearGradient id="SVGID_6_" gradientUnits="userSpaceOnUse" x1="56.1625" y1="351.0237" x2="56.1625" y2="324.8548">
		<stop  offset="0.1741" style="stop-color:#544DFF"/>
		<stop  offset="0.4805" style="stop-color:#5450FF"/>
		<stop  offset="0.6978" style="stop-color:#5459FF"/>
		<stop  offset="0.8871" style="stop-color:#5469FF"/>
		<stop  offset="1" style="stop-color:#5476FF"/>
	</linearGradient>
	<path class="st15" d="M68.53,331.23c-0.12-0.56-0.24-1.29-0.36-2.15h0l-26.89,1.23c-0.09,8.25,0.05,14.61,0.05,14.61h29.74
		C71.07,344.92,69.49,335.84,68.53,331.23z"/>
	<path class="st1" d="M47.22,307.65l-5.63,10.18c-0.55,13.14-0.26,26.64-0.26,26.64c10.45-12.27,11.08-40.54,11.08-40.54
		L47.22,307.65z"/>
	<path class="st9" d="M19.61,316.61l17.61,3.72c0,0,4.47-14.93,5.57-18.71s3.05-6.95,6.34-6.19c3.29,0.76,4.25,7.29,2.33,13.97
		c-1.93,6.67-5.23,21.67-9.63,22.43c-4.4,0.76-24.22-9.7-24.22-9.7L19.61,316.61z"/>
	<path class="st4" d="M64.76,437.87l-7.36,3.16l-1.24,3.37h13.97l10.32-8.74c0,0-2.89-3.37-6.81-5.37l-5.92,1.65L64.76,437.87z"/>
	<g>
		
			<linearGradient id="SVGID_7_" gradientUnits="userSpaceOnUse" x1="93.2318" y1="203.9659" x2="60.3413" y2="229.7597" gradientTransform="matrix(0.9539 -0.3002 0.3002 0.9539 -40.902 91.7473)">
			<stop  offset="0" style="stop-color:#FFE7DB"/>
			<stop  offset="0.326" style="stop-color:#FFE4D9"/>
			<stop  offset="0.5573" style="stop-color:#FFDBD1"/>
			<stop  offset="0.7592" style="stop-color:#FFCBC5"/>
			<stop  offset="0.9434" style="stop-color:#FFB5B4"/>
			<stop  offset="1" style="stop-color:#FFADAD"/>
		</linearGradient>
		<circle class="st16" cx="100.77" cy="270.71" r="18.82"/>
		
			<ellipse transform="matrix(0.4504 -0.8928 0.8928 0.4504 -185.0741 239.0727)" class="st17" cx="101.65" cy="269.86" rx="17.73" ry="17.73"/>
		
			<linearGradient id="SVGID_8_" gradientUnits="userSpaceOnUse" x1="138.209" y1="265.2546" x2="110.1567" y2="259.1223" gradientTransform="matrix(1.1495 -0.0625 0.0996 0.9992 -59.0698 16.2668)">
			<stop  offset="0" style="stop-color:#FFE7DB"/>
			<stop  offset="0.326" style="stop-color:#FFE4D9"/>
			<stop  offset="0.5573" style="stop-color:#FFDBD1"/>
			<stop  offset="0.7592" style="stop-color:#FFCBC5"/>
			<stop  offset="0.9434" style="stop-color:#FFB5B4"/>
			<stop  offset="1" style="stop-color:#FFADAD"/>
		</linearGradient>
		<path class="st18" d="M117.53,271.2c-0.35,4.16-3.42,7.31-6.86,7.02c-3.44-0.29-5.95-3.9-5.6-8.06c0.35-4.16,3.42-7.31,6.86-7.02
			C115.37,263.43,117.88,267.04,117.53,271.2z"/>
		
			<linearGradient id="SVGID_9_" gradientUnits="userSpaceOnUse" x1="99.8747" y1="198.7677" x2="91.2767" y2="207.9117" gradientTransform="matrix(0.9539 -0.3002 0.3002 0.9539 -40.902 91.7473)">
			<stop  offset="0" style="stop-color:#FFE7DB"/>
			<stop  offset="0.326" style="stop-color:#FFE4D9"/>
			<stop  offset="0.5573" style="stop-color:#FFDBD1"/>
			<stop  offset="0.7592" style="stop-color:#FFCBC5"/>
			<stop  offset="0.9434" style="stop-color:#FFB5B4"/>
			<stop  offset="1" style="stop-color:#FFADAD"/>
		</linearGradient>
		<path class="st19" d="M111.35,257.84c1.31,1.01,1.85,2.52,1.2,3.36c-0.65,0.84-2.24,0.7-3.55-0.32c-1.31-1.01-1.85-2.52-1.2-3.36
			C108.45,256.69,110.04,256.83,111.35,257.84z"/>
		
			<linearGradient id="SVGID_10_" gradientUnits="userSpaceOnUse" x1="90.5588" y1="202.8451" x2="80.5262" y2="213.5147" gradientTransform="matrix(0.9678 -0.2517 0.2517 0.9678 -36.8078 75.8764)">
			<stop  offset="0" style="stop-color:#FFE7DB"/>
			<stop  offset="0.326" style="stop-color:#FFE4D9"/>
			<stop  offset="0.5573" style="stop-color:#FFDBD1"/>
			<stop  offset="0.7592" style="stop-color:#FFCBC5"/>
			<stop  offset="0.9434" style="stop-color:#FFB5B4"/>
			<stop  offset="1" style="stop-color:#FFADAD"/>
		</linearGradient>
		<path class="st20" d="M99.53,257.81c0.27,1.02-0.69,2.15-2.12,2.53c-1.44,0.37-2.82-0.15-3.09-1.17
			c-0.27-1.02,0.69-2.15,2.12-2.53C97.88,256.26,99.26,256.79,99.53,257.81z"/>
		
			<linearGradient id="SVGID_11_" gradientUnits="userSpaceOnUse" x1="90.7152" y1="201.0197" x2="86.3481" y2="206.7516" gradientTransform="matrix(0.9539 -0.3002 0.3002 0.9539 -40.902 91.7473)">
			<stop  offset="0" style="stop-color:#FFE7DB"/>
			<stop  offset="0.326" style="stop-color:#FFE4D9"/>
			<stop  offset="0.5573" style="stop-color:#FFDBD1"/>
			<stop  offset="0.7592" style="stop-color:#FFCBC5"/>
			<stop  offset="0.9434" style="stop-color:#FFB5B4"/>
			<stop  offset="1" style="stop-color:#FFADAD"/>
		</linearGradient>
		<path class="st21" d="M104.8,259.67c0.49,0.23,0.8,0.6,0.68,0.84c-0.11,0.24-0.6,0.25-1.08,0.03s-0.79-0.6-0.68-0.84
			C103.82,259.45,104.31,259.44,104.8,259.67z"/>
		
			<linearGradient id="SVGID_12_" gradientUnits="userSpaceOnUse" x1="179.5082" y1="21.0294" x2="175.1405" y2="26.762" gradientTransform="matrix(0.0882 -0.9961 0.9961 0.0882 70.5973 455.3439)">
			<stop  offset="0" style="stop-color:#FFE7DB"/>
			<stop  offset="0.326" style="stop-color:#FFE4D9"/>
			<stop  offset="0.5573" style="stop-color:#FFDBD1"/>
			<stop  offset="0.7592" style="stop-color:#FFCBC5"/>
			<stop  offset="0.9434" style="stop-color:#FFB5B4"/>
			<stop  offset="1" style="stop-color:#FFADAD"/>
		</linearGradient>
		<path class="st22" d="M110.06,280.78c0.4-0.36,0.86-0.5,1.04-0.31c0.18,0.19,0,0.65-0.39,1.01c-0.4,0.36-0.86,0.5-1.04,0.31
			C109.49,281.6,109.67,281.15,110.06,280.78z"/>
		
			<linearGradient id="SVGID_13_" gradientUnits="userSpaceOnUse" x1="76.9314" y1="207.3393" x2="64.9216" y2="199.0143" gradientTransform="matrix(0.9539 -0.3002 0.3002 0.9539 -40.902 91.7473)">
			<stop  offset="0" style="stop-color:#FFE7DB"/>
			<stop  offset="0.326" style="stop-color:#FFE4D9"/>
			<stop  offset="0.5573" style="stop-color:#FFDBD1"/>
			<stop  offset="0.7592" style="stop-color:#FFCBC5"/>
			<stop  offset="0.9434" style="stop-color:#FFB5B4"/>
			<stop  offset="1" style="stop-color:#FFADAD"/>
		</linearGradient>
		<path class="st23" d="M90.3,264.99c-0.35,1.31-1.28,2.2-2.08,1.99c-0.8-0.21-1.17-1.45-0.82-2.76c0.35-1.31,1.28-2.2,2.08-1.99
			C90.28,262.45,90.64,263.68,90.3,264.99z"/>
		<path class="st6" d="M116.09,259.79c0.43,0.6,0.82,1.22,1.18,1.87c7.63-1.64,12.81-2.04,13.2-0.79c0.66,2.1-12.17,8-28.65,13.19
			c-16.48,5.19-30.38,7.69-31.04,5.59c-0.4-1.26,4.07-3.89,11.27-6.92c-0.08-0.74-0.11-1.48-0.11-2.21
			c-11.07,4.56-18.21,8.92-17.52,11.13c1.01,3.2,18.03,0.69,38.01-5.6c19.99-6.29,35.38-13.98,34.37-17.18
			C136.13,256.67,127.78,257.18,116.09,259.79z"/>
		
			<linearGradient id="SVGID_14_" gradientUnits="userSpaceOnUse" x1="70.2516" y1="210.0702" x2="67.2678" y2="209.4179" gradientTransform="matrix(0.9539 -0.3002 0.3002 0.9539 -40.902 91.7473)">
			<stop  offset="0" style="stop-color:#FFE7DB"/>
			<stop  offset="0.326" style="stop-color:#FFE4D9"/>
			<stop  offset="0.5573" style="stop-color:#FFDBD1"/>
			<stop  offset="0.7592" style="stop-color:#FFCBC5"/>
			<stop  offset="0.9434" style="stop-color:#FFB5B4"/>
			<stop  offset="1" style="stop-color:#FFADAD"/>
		</linearGradient>
		<path class="st24" d="M88.36,271.08c0.06,0.44-0.14,0.83-0.45,0.88c-0.31,0.05-0.62-0.27-0.69-0.71
			c-0.06-0.44,0.14-0.83,0.45-0.88C87.99,270.33,88.3,270.64,88.36,271.08z"/>
	</g>
	<path class="st25" d="M153.95,288.4c-0.86,0.05-1.65-0.44-2-1.22l-1.4-3.16l0.2,3.45c0.05,0.86-0.44,1.65-1.22,2l-3.16,1.4
		l3.45-0.2c0.86-0.05,1.65,0.44,2,1.22l1.4,3.16l-0.2-3.45c-0.05-0.86,0.44-1.65,1.22-2l3.16-1.4L153.95,288.4z"/>
	<path class="st25" d="M213.98,294.01c-1-0.34-1.69-1.28-1.72-2.34l-0.12-4.28l-1.39,4.05c-0.34,1-1.28,1.69-2.34,1.72l-4.28,0.12
		l4.05,1.39c1,0.34,1.69,1.27,1.72,2.34l0.12,4.28l1.39-4.05c0.34-1,1.28-1.69,2.34-1.72l4.28-0.12L213.98,294.01z"/>
	<path class="st25" d="M105.9,237.73c-0.53,0.01-1.01-0.31-1.2-0.8l-0.78-1.98l0.04,2.13c0.01,0.53-0.31,1.01-0.8,1.2l-1.98,0.78
		l2.13-0.04c0.53-0.01,1.01,0.31,1.2,0.8l0.78,1.98l-0.04-2.13c-0.01-0.53,0.31-1.01,0.8-1.2l1.98-0.78L105.9,237.73z"/>
	<path class="st25" d="M181.69,288.82c-0.45,0.07-0.9-0.14-1.13-0.54l-0.92-1.61l0.3,1.83c0.07,0.45-0.14,0.9-0.54,1.13l-1.61,0.92
		l1.83-0.3c0.45-0.07,0.9,0.14,1.13,0.54l0.92,1.61l-0.3-1.83c-0.07-0.45,0.14-0.9,0.54-1.13l1.61-0.92L181.69,288.82z"/>
	<path class="st25" d="M158.47,197.76c-0.43-0.17-0.7-0.59-0.69-1.04l0.04-1.85l-0.69,1.72c-0.17,0.43-0.59,0.7-1.04,0.69
		l-1.85-0.04l1.72,0.69c0.43,0.17,0.7,0.59,0.69,1.04l-0.04,1.85l0.69-1.72c0.17-0.43,0.59-0.7,1.04-0.69l1.85,0.04L158.47,197.76z"
		/>
	<path class="st25" d="M189.66,256.91c-0.46,0.02-0.88-0.25-1.05-0.68l-0.71-1.71l0.06,1.85c0.02,0.46-0.25,0.88-0.68,1.05
		l-1.71,0.71l1.85-0.06c0.46-0.02,0.88,0.25,1.05,0.68l0.71,1.71l-0.06-1.85c-0.02-0.46,0.25-0.88,0.68-1.05l1.71-0.71
		L189.66,256.91z"/>
	<g>
		<g>
			<path class="st9" d="M150.11,255.52l2.9-3.17l-13.85-6.57l3.47,10.53c0.62,1.88,2.07,3.36,3.94,4.02l14.81,5.24l-10.83-6.82
				C149.43,258.05,149.22,256.5,150.11,255.52z"/>
			<path class="st9" d="M160.86,241.71l-2.36,3.59l-9.78-11.81l11.06,0.78c1.97,0.14,3.77,1.18,4.87,2.83l8.72,13.06l-9.28-8.82
				C163.15,240.42,161.59,240.6,160.86,241.71z"/>
		</g>
		
			<linearGradient id="SVGID_15_" gradientUnits="userSpaceOnUse" x1="163.2967" y1="256.5323" x2="117.5071" y2="225.4666" gradientTransform="matrix(0.9989 0.0467 -0.0467 0.9989 7.0888 -13.9977)">
			<stop  offset="0" style="stop-color:#FFE7DB"/>
			<stop  offset="0.326" style="stop-color:#FFE4D9"/>
			<stop  offset="0.5573" style="stop-color:#FFDBD1"/>
			<stop  offset="0.7592" style="stop-color:#FFCBC5"/>
			<stop  offset="0.9434" style="stop-color:#FFB5B4"/>
			<stop  offset="1" style="stop-color:#FFADAD"/>
		</linearGradient>
		<path class="st26" d="M135.01,220.08c-10.09-8.2-22.82-9.55-27.22-9.76c-0.8-0.04-1.39,0.72-1.15,1.48
			c1.29,4.21,5.73,16.22,16.16,23.99c8.25,6.14,22.98,14.18,29.44,17.62c1.83,0.97,4.09,0.49,5.37-1.15l1.94-2.49
			c1.27-1.64,1.19-3.95-0.21-5.48C154.42,238.87,142.99,226.57,135.01,220.08z"/>
		<path class="st6" d="M124.98,224.88c2.04-2.62,3.85-5.3,5.44-7.97c-9.07-5.38-18.88-6.4-22.63-6.59c-0.8-0.04-1.39,0.72-1.15,1.48
			c1.1,3.59,4.51,12.85,11.95,20.32C120.79,229.92,122.94,227.51,124.98,224.88z"/>
		<path class="st9" d="M147.68,240.74l-4.41-1.63l2.66,3.87c1.22,1.78,2.9,3.37,4.82,4.56l16.62,10.32l-14.09-13.57
			C151.66,242.73,149.71,241.49,147.68,240.74z"/>
		<g>
			<polygon class="st25" points="175.08,268.39 155.61,256.16 158.16,255.23 			"/>
			<polygon class="st25" points="179.48,262.74 162.83,246.88 162.56,249.57 			"/>
		</g>
		<polygon class="st25" points="186.47,272.72 168.93,260.35 170.17,258.76 		"/>
	</g>
	<g>
		<linearGradient id="SVGID_16_" gradientUnits="userSpaceOnUse" x1="193.0449" y1="187.171" x2="193.0449" y2="217.9537">
			<stop  offset="0" style="stop-color:#FFFFFF"/>
			<stop  offset="0.2865" style="stop-color:#FFFCFC"/>
			<stop  offset="0.4898" style="stop-color:#FFF3F3"/>
			<stop  offset="0.6674" style="stop-color:#FFE3E3"/>
			<stop  offset="0.8302" style="stop-color:#FFCDCD"/>
			<stop  offset="0.9816" style="stop-color:#FFB1B1"/>
			<stop  offset="1" style="stop-color:#FFADAD"/>
		</linearGradient>
		<rect x="169.62" y="178.51" class="st27" width="46.85" height="31.81"/>
		<g>
			<polygon class="st25" points="216.47,210.32 169.62,210.32 166.77,215.79 219.32,215.79 			"/>
			<polygon class="st28" points="215.27,212.11 170.82,212.11 170.05,213.71 216.04,213.71 			"/>
		</g>
		<rect x="172.28" y="181.24" class="st12" width="41.53" height="26.34"/>
		<rect x="166.77" y="215.79" class="st28" width="52.55" height="2.15"/>
		<g>
			<g>
				<text transform="matrix(1 0 0 1 184.4892 188.7717)" class="st25 st29 st30">011100</text>
			</g>
			<g>
				<text transform="matrix(1 0 0 1 184.4892 193.306)" class="st25 st29 st30">101100</text>
			</g>
			<g>
				<text transform="matrix(1 0 0 1 185.0537 197.8402)" class="st25 st29 st30">001100</text>
			</g>
			<g>
				<text transform="matrix(1 0 0 1 183.9731 202.3744)" class="st25 st29 st30">011110</text>
			</g>
		</g>
	</g>
	<g>
		
			<linearGradient id="SVGID_17_" gradientUnits="userSpaceOnUse" x1="230.2488" y1="266.6783" x2="236.6658" y2="266.6783" gradientTransform="matrix(0.9883 0.1523 -0.1523 0.9883 29.5226 -54.4709)">
			<stop  offset="0" style="stop-color:#FFE7DB"/>
			<stop  offset="0.326" style="stop-color:#FFE4D9"/>
			<stop  offset="0.5573" style="stop-color:#FFDBD1"/>
			<stop  offset="0.7592" style="stop-color:#FFCBC5"/>
			<stop  offset="0.9434" style="stop-color:#FFB5B4"/>
			<stop  offset="1" style="stop-color:#FFADAD"/>
		</linearGradient>
		<polygon class="st31" points="222.53,246.9 216.19,245.92 216.74,242.38 223.08,243.36 		"/>
		<g>
			<g>
				
					<rect x="182.39" y="234.49" transform="matrix(0.9883 0.1523 -0.1523 0.9883 38.7047 -25.7704)" class="st25" width="10.27" height="10.42"/>
				
					<linearGradient id="SVGID_18_" gradientUnits="userSpaceOnUse" x1="197.1019" y1="262.4213" x2="197.1019" y2="270.3703" gradientTransform="matrix(0.9883 0.1523 -0.1523 0.9883 29.5226 -54.4709)">
					<stop  offset="0" style="stop-color:#FFE7DB"/>
					<stop  offset="0.326" style="stop-color:#FFE4D9"/>
					<stop  offset="0.5573" style="stop-color:#FFDBD1"/>
					<stop  offset="0.7592" style="stop-color:#FFCBC5"/>
					<stop  offset="0.9434" style="stop-color:#FFB5B4"/>
					<stop  offset="1" style="stop-color:#FFADAD"/>
				</linearGradient>
				<polygon class="st32" points="184.17,244.45 181.65,244.06 183.24,233.76 185.75,234.15 				"/>
			</g>
			<g>
				
					<rect x="192.55" y="236.56" transform="matrix(0.9883 0.1523 -0.1523 0.9883 39.0361 -27.1873)" class="st25" width="8.77" height="9.17"/>
				
					<linearGradient id="SVGID_19_" gradientUnits="userSpaceOnUse" x1="207.3763" y1="262.9323" x2="207.3763" y2="269.9275" gradientTransform="matrix(0.9883 0.1523 -0.1523 0.9883 29.5226 -54.4709)">
					<stop  offset="0" style="stop-color:#FFE7DB"/>
					<stop  offset="0.326" style="stop-color:#FFE4D9"/>
					<stop  offset="0.5573" style="stop-color:#FFDBD1"/>
					<stop  offset="0.7592" style="stop-color:#FFCBC5"/>
					<stop  offset="0.9434" style="stop-color:#FFB5B4"/>
					<stop  offset="1" style="stop-color:#FFADAD"/>
				</linearGradient>
				<polygon class="st33" points="194.42,245.39 191.9,245.01 193.3,235.95 195.81,236.33 				"/>
			</g>
			<g>
				
					<rect x="201.17" y="239.25" transform="matrix(0.9883 0.1523 -0.1523 0.9883 39.4755 -29.0793)" class="st25" width="16.69" height="7.66"/>
				
					<linearGradient id="SVGID_20_" gradientUnits="userSpaceOnUse" x1="216.1442" y1="263.5484" x2="216.1442" y2="269.3936" gradientTransform="matrix(0.9883 0.1523 -0.1523 0.9883 29.5226 -54.4709)">
					<stop  offset="0" style="stop-color:#FFE7DB"/>
					<stop  offset="0.326" style="stop-color:#FFE4D9"/>
					<stop  offset="0.5573" style="stop-color:#FFDBD1"/>
					<stop  offset="0.7592" style="stop-color:#FFCBC5"/>
					<stop  offset="0.9434" style="stop-color:#FFB5B4"/>
					<stop  offset="1" style="stop-color:#FFADAD"/>
				</linearGradient>
				<polygon class="st34" points="203.2,245.98 200.68,245.6 201.85,238.03 204.36,238.41 				"/>
			</g>
		</g>
		<path class="st6" d="M205.14,254.97L205.14,254.97c-0.61-0.09-1.04-0.67-0.94-1.28l1.17-7.61l2.22,0.34l-1.17,7.61
			C206.33,254.65,205.75,255.07,205.14,254.97z"/>
		
			<rect x="201.94" y="244.41" transform="matrix(0.9883 0.1523 -0.1523 0.9883 39.9058 -28.5879)" class="st9" width="9.17" height="3.46"/>
		
			<rect x="202.3" y="252.24" transform="matrix(0.9883 0.1523 -0.1523 0.9883 40.9901 -28.3325)" class="st9" width="6.19" height="2.19"/>
		<g>
			<path class="st9" d="M194.77,277.17L194.77,277.17c-0.39-0.12-0.6-0.54-0.48-0.92l7.83-24.46c0.12-0.39,0.54-0.6,0.92-0.48l0,0
				c0.39,0.12,0.6,0.54,0.48,0.92l-7.83,24.46C195.57,277.08,195.15,277.29,194.77,277.17z"/>
			<path class="st9" d="M208.35,279.27L208.35,279.27c0.41,0,0.73-0.33,0.73-0.74l-0.1-25.68c0-0.41-0.33-0.73-0.74-0.73l0,0
				c-0.41,0-0.73,0.33-0.73,0.74l0.1,25.68C207.61,278.94,207.94,279.27,208.35,279.27z"/>
		</g>
	</g>
	<path class="st25" d="M145.02,207.13c-2.35-2.39-2.78-5.92-1.37-8.76c-0.74,0.36-1.45,0.81-2.08,1.42
		c-3.01,2.96-3.05,7.8-0.09,10.81c2.96,3.01,7.8,3.05,10.81,0.09c0.62-0.61,1.08-1.31,1.45-2.05
		C150.9,210.01,147.37,209.52,145.02,207.13z"/>
</g>
</svg>
