<svg xmlns="http://www.w3.org/2000/svg" xmlns:xlink="http://www.w3.org/1999/xlink" viewBox="0 0 750 500"><defs><style>.b9a8cda0-f766-4db0-a09e-fd1708e73425{fill:none;}.e58dc0f0-1a6d-4c22-ab13-8e79ab872d1e{isolation:isolate;}.aa422a14-e037-4958-8ee9-6965f1df0f41,.bcd15c9d-2e40-4046-9b9f-f6fdf96b8664,.bee2f818-cf1d-4b51-998f-9db575c476de{mix-blend-mode:multiply;}.bd1ad962-a006-4ed2-9092-9a9e22cda8c7{clip-path:url(#b42f51ba-ab78-45c6-878c-7f39635eb67a);}.b2a17001-34e0-40ff-bc37-8537c8a4d0db{fill:#1992b7;}.a23b6013-ca3c-4566-909d-77e7c4f29ac8{fill:#34b8d6;}.f6d49fe9-b2dc-4900-8083-819ac1bbc2fb{fill:#11608c;}.b0a2071f-0ad5-48bb-9534-7139ed46397b,.f6d49fe9-b2dc-4900-8083-819ac1bbc2fb{opacity:0.45;}.b1601404-71a4-4dff-bb79-05578e3f120b{fill:#81d152;}.b008a1a3-66fd-4034-a765-ffa047f1276b{fill:#5fb229;}.b3c00846-85e6-410e-be86-2b141893f3d6{fill:#afe264;}.bee2f818-cf1d-4b51-998f-9db575c476de{fill:#02678b;opacity:0.33;}.b3304754-9069-4c32-b2cf-9c65b7800e87{fill:#053e6d;}.e93cd923-9188-4327-9e5e-f108e8cfdda6{fill:#f4ca53;}.b9113b24-c6ff-4949-b43c-901d05c23b17{fill:#c69e3c;}.b8b0cae9-3262-4f73-aafe-dceace3a60f4{fill:#ffe576;}.e09f562b-83bb-4221-a21c-53ebb4f3ae47{fill:#af6605;}.a24a9b51-1b1f-4318-9d3c-710d62fd1924,.e9435f4d-21cc-4166-b8a2-0fc05ba88b15{fill:#efdaee;}.f88cfcfc-1fdc-4ffa-bc5e-6e8e36db6f06{fill:#d2aed3;}.bab4cbfc-d0ef-41d0-8aea-92ca0a156103,.e9435f4d-21cc-4166-b8a2-0fc05ba88b15{opacity:0.61;}.a065e231-a9e3-4780-b7ab-ecaff347ba15{fill:#957196;}.bf163d9f-966e-46b3-bf2a-ba14dc27ec46{fill:#4da7d6;}.aa422a14-e037-4958-8ee9-6965f1df0f41,.b0a2071f-0ad5-48bb-9534-7139ed46397b{fill:#2f5b9b;}.adc5daa9-f788-44f0-8bf9-45c97f61fa82{fill:#fdc111;}.ae90d66e-6088-45c5-8665-7da2c4f36e3a{fill:#ce9b1d;}.a5dd9e92-cd63-46df-aa25-0e91ff1567ec{fill:#3d7e9b;}.b42c389d-6a64-429d-abfa-1bd798b0a820{fill:#275b6d;opacity:0.63;}.aa422a14-e037-4958-8ee9-6965f1df0f41{opacity:0.39;}.f588ed05-3447-4c99-8084-0d3f17d826cf{fill:#776cbc;}.a44169e0-1360-4060-9822-45b90bcd548a{fill:#c5f1ff;}.af09cbc2-53ec-4339-bb09-76fcf3cb51d8{fill:#fafeff;}.f175a372-5828-44f2-849c-3ee1862dbb51{fill:#c683c4;}.e54ec624-d53f-4d58-8d6e-9ed6d3aae248{fill:#a35152;}.eeeb686d-8d4b-4d35-ae38-30fb83364f1d{fill:#ff7683;}.fb9d8963-3c01-4bf9-9cd3-ed8aa42ac6d9{fill:#804446;}.b488eb8f-1655-42ad-8274-26dcb6906a4f{fill:#663236;}.ed121175-e854-4244-83fa-344fbee3091a{fill:#91a8c1;}.a75cb2a4-36cc-41e3-bfa5-e8535521662a,.bae6ea8c-1bf7-4615-b2cb-323fa91946d3{fill:#6c869e;}.a19a7b71-4934-42ce-abd5-8e2137b8778c,.a3851c6b-01f1-4d22-8afd-57d61298ee66,.bae6ea8c-1bf7-4615-b2cb-323fa91946d3{opacity:0.57;}.a38a6bf7-9f6e-45b2-821b-70d7cbdb934e,.ab8274a0-9e75-4419-86e3-dbf7cf61e8ba{fill:#c9e0f4;}.ab8274a0-9e75-4419-86e3-dbf7cf61e8ba{opacity:0.74;}.f4e5e9a5-7767-463c-ace9-8f0ea94ef077{fill:#405768;}.ab2d0d29-b2df-4d02-80e9-45e0ad614a39{fill:#ed8c4a;}.a19a7b71-4934-42ce-abd5-8e2137b8778c,.b31c189d-3400-470d-8ecf-b488cf4eb3de{fill:#bf6421;}.a0d6f1c9-f30b-4dd4-b53f-95592f054810,.b4a4b378-b5ee-4cc7-92b1-bfa907891321{fill:#fdd51a;}.a80bdde4-f993-4cf4-bcad-ca41c9df3146,.b4a4b378-b5ee-4cc7-92b1-bfa907891321{opacity:0.67;}.a0d6f1c9-f30b-4dd4-b53f-95592f054810,.fdaa8a93-e3d7-4f0f-a8d9-b7048ffbb03d{opacity:0.54;}.a3851c6b-01f1-4d22-8afd-57d61298ee66{fill:#a04e17;}.a3647333-eae6-47b1-a570-8477c5a7af67{fill:#a34d13;}.fdaa8a93-e3d7-4f0f-a8d9-b7048ffbb03d{fill:#f9db5d;}.a6988685-11c8-4ef5-be28-db32c560980b{fill:#4c260d;}.f9adbb7d-3063-45f0-8a18-c70e2ebb444d{fill:#f95387;}.a80bdde4-f993-4cf4-bcad-ca41c9df3146,.e67c5b2b-1407-4cdb-866a-43b4b0af33bf{fill:#a82258;}.b8ecec59-02e6-46b6-a780-ed5640e2ad5a{fill:#ff80d2;}.f2a0751e-7b0a-4c05-89ac-8c5a652828ca{fill:#601135;}.f4dda856-17fb-4d4d-940d-02a378ec0a9f{fill:#a54216;}.bb0dbfeb-8136-4b0a-a57c-0035bf47c3a9{fill:#f9d332;}.edfe99f5-8fc2-426f-b521-cb732868c538{opacity:0.53;}.e22b05ca-b5d7-4f2b-912c-a622e1678eed{fill:#c16527;}.b782667f-eab6-4550-a140-fafac44d3114{fill:#375972;}.ac4a0dba-f24a-4f02-ab1c-30970391da0e{fill:#afcde8;}.bab4cbfc-d0ef-41d0-8aea-92ca0a156103{fill:#5d83a5;}.b9831036-43a9-4169-b8d4-dcb8d51f045a{fill:#54829e;}.e2e45207-da6e-4664-bdfe-7fa8b9966592{fill:#2c4c60;opacity:0.49;}.f30d5422-aea5-408a-9a80-f833fbf3002a{fill:#72afce;}.a18db971-db84-4281-a9ef-d2f58059127b{fill:#1b3a49;}.a645badf-6ce7-4c02-b52a-f0535a761b08{fill:#b7cee2;}.f6815fa3-d714-455b-ba6e-7137c65266b0{fill:#4a7093;}.a7f142f8-a368-4fd8-957f-b672731e167e{fill:#365d7a;}</style><clipPath id="b42f51ba-ab78-45c6-878c-7f39635eb67a"><rect class="b9a8cda0-f766-4db0-a09e-fd1708e73425" width="750" height="500"/></clipPath></defs><g class="e58dc0f0-1a6d-4c22-ab13-8e79ab872d1e"><g id="f84009ae-1cdb-4318-b636-ec546e76596b" data-name="Camada 2"><g class="bd1ad962-a006-4ed2-9092-9a9e22cda8c7"><circle class="b2a17001-34e0-40ff-bc37-8537c8a4d0db" cx="125.34" cy="407.05" r="83.25"/><path class="a23b6013-ca3c-4566-909d-77e7c4f29ac8" d="M129.54,354.7c-3.09-4.52-12.95-8.22-15-13.77-1.61-4.34-1-12.84-.66-16.33a83.44,83.44,0,0,0-9.69,1.92c.46.66,2,3.24,2.54,8.65.62,6.38-4.93,16.24-4.11,20.35s6.16,12.54,5.34,17.07c0,0-10.48,20.14-10.48,22.2s8.84,17.47,8.84,18.29.82,9.66,2.46,10.89,15.83,7.82,20.35,5.35,13.16-19.53,13.57-22.41-9-17.67-9-25.07S132.62,359.22,129.54,354.7Z"/><path class="a23b6013-ca3c-4566-909d-77e7c4f29ac8" d="M90.27,421.07c-3.42-1.37-7.53,2.28-11.18,2.51s-14.82-8.44-16-10.72.23-7.3-1.14-9.35-5.48,1.82-8.67,1.82-1.14-3.87-1.37-5.47-.91-1.6-4.79-1.6A8.05,8.05,0,0,1,42.72,397a83.64,83.64,0,0,0-.63,10.07,82.54,82.54,0,0,0,.77,11.18c1,4.76,2,9.49,2.94,13.46a83.21,83.21,0,0,0,3.61,9.49l9.84-6.42s11.4,3,13.69,2.73,18.93-7.52,21.89-8.44,1.6-3.65,1.37-5.47S93.69,422.44,90.27,421.07Z"/><path class="a23b6013-ca3c-4566-909d-77e7c4f29ac8" d="M159,367.49s13.15-6.09,17.29-5.12,7.56,3.17,7.31,5.12-1.7,7.79-1.7,9.25,6.33,7.07,5.84,10-7.79,15.11-7.55,17,2.68,6.58.25,9-17.06,9-17.54,11.45,1.46,13.4-1,16.56-18.51,10.48-19.73,7.8-2-6.09-1.22-7.55,10.72-14.13,11.45-16.81,4.39-21.68,5.85-22.41,8.52-10,9-14.62-2.21-14.37-3.05-14.86-15.46,2.92-15.95,1S159,367.49,159,367.49Z"/><path class="f6d49fe9-b2dc-4900-8083-819ac1bbc2fb" d="M208.59,407.05a83.25,83.25,0,0,0-83.25-83.25c-1.86,0-3.69.08-5.51.2-2,.55-3.2.91-3.2.91s-.41,13.56,4.11,16.85,12.13,4.32,13.57,4.73,2.05,6.78,5.55,7.19,6.37-2.67,9.45,0,.82,9.05,8.43,9.46,16.44-6,20.76-4.52,7.81,4.93,8.43,6.78-2.67,9.87,0,13.36,5.14,6,5.14,7.81-7.81,19.32-8,22.61,0,5.35-2.47,8-12.12,18.09-11.71,24.46c.36,5.7,18.67,13.21,22.51,14.73A82.87,82.87,0,0,0,208.59,407.05Z"/><path class="f6d49fe9-b2dc-4900-8083-819ac1bbc2fb" d="M127.88,445.7c0-3.14-4.32-11.59-7.08-13.56s-16.48-1.16-17.09-6.48a35.08,35.08,0,0,0-2.75-9.83s-5.3-11.07-6.91-13.87-3.31-7.55,2.19-16,9-13.75,6.68-19.45S98.8,355.31,99.58,352s6.1-14.8,4.32-19.06-3.73-5.11-3.73-5.11l-.93.19a83.36,83.36,0,0,0-55.73,63.79c.9,1.72,2.24,3.73,3.61,3.62A51.85,51.85,0,0,0,53.8,394s1.37,6.48,2.94,6.48,10.41-3.31,12.11-2.83-2.24,8.53,0,12.86,10.69,7.07,11.87,7.07,7.46-2.36,10.61-2,6.88,2.69,8.06,4.51,1.57,10.22,0,11.21S80.91,437.45,78.56,440,74,455.72,75.22,460s6.84,10.81,7.46,14c.58,2.91,5.81,7.5,8.46,8.94l1,.44c3.09,1.14,14.75,4.37,14.75,4.37L123,490.11s-3.76-16.51-1.79-21.42S127.88,448.84,127.88,445.7Z"/><path class="b1601404-71a4-4dff-bb79-05578e3f120b" d="M44.53,387c1.15,1.86,2.35,3.49,3.21,3.83,2.23.89,4.9-.44,6.24,0s1.22,4.44,3.78,5.34c6,2.11,8.46-4.45,11.35-4.23s-4.45,14.7-2,16.48,7.35,5.56,13.36,6,6.9-3.56,12.24-1.56,4.9,2.23,6.9,4.23.45,5.79.89,7.79,1.88,6.49,1.56,7.35c-1.35,3.58-19.37,6.67-20.92,10s-4,15.81-2.68,19.37,4,6.23,4.68,8.24-.45,4,4.45,6.67,10,3.39,11.13,5.79c.8,1.7,3.85,3.68,6.85,5.6A84,84,0,0,0,123,490.24a.57.57,0,0,1,0-.13c-.23-2.67-4-11.57-4.46-14.91a26.43,26.43,0,0,1,2-14.69,64.55,64.55,0,0,0,3.68-10.8,13.13,13.13,0,0,0-.08-6.9,16.21,16.21,0,0,0-2.94-6.12c-2.67-2.9-14.17-3.07-16.69-6.23-1-1.24-2-6.68-1.56-8.91a16,16,0,0,0-1.11-8.46c-1.12-2.22-4.67-6-7.79-11.13-1.52-2.5-3.57-5.56-2.9-9.79s9.57-17.59,9.8-22-4.23-12.91-4-16.25,4.67-14.69,4-18.48c-.33-1.85-2.21-4.45-4-6.62A83.4,83.4,0,0,0,44.53,387Z"/><path class="b1601404-71a4-4dff-bb79-05578e3f120b" d="M208.59,407.05a83.25,83.25,0,0,0-83.25-83.25q-2.27,0-4.5.12l-.6.31s3.11,14.52,9.33,17.63S142.36,345,145.13,346s4.15,5.88,9.68,9,13.14-1,18.67,0,12.1,3.11,14.86,5.88-.69,9.68,3.8,14.52,5.19,5.87,5.19,10-6.91,12.1-7.26,18-.69,13.48-5.18,16.59-9,13.14-9,17.63c0,3.5,10.49,12.46,18.39,16.08A82.87,82.87,0,0,0,208.59,407.05Z"/><path class="b008a1a3-66fd-4034-a765-ffa047f1276b" d="M46,382.34s1,4.86,4.11,5.08,6.72-.89,7.32,0,.82,5.31,2.17,5.53,7.84-2.24,9.33-3.59-.59-8.66-.59-10.08,2.84-12,2.84-14.12-7-13.38-7-13.38l-8.29,8.45Z"/><path class="b008a1a3-66fd-4034-a765-ffa047f1276b" d="M71.39,395.1s-2.77,9.46-2.11,11,6.89,6.31,10.23,6.31,8.22-.86,8.31-1.53-4.49-6.69-4.58-8.41.67-10.32-.48-11.18S72.53,390.85,71.39,395.1Z"/><path class="b008a1a3-66fd-4034-a765-ffa047f1276b" d="M97.6,437.33s-14.19,4.47-15.09,5.86-2.38,15.39-2.38,16.08,4,7.25,4.37,8.74.89,4.57,1.69,5.56,9.72,5.06,10.62,4.67,3-4.17,2.88-5.07-6-9-6.06-9.92,5.46-11.82,5.56-13.9-2.78-7.25-2.78-7.25,6-5.66,6.16-6.45S97.6,437.33,97.6,437.33Z"/><path class="b008a1a3-66fd-4034-a765-ffa047f1276b" d="M121.12,490.21s-3.71-9.47-4.68-14,1.85-14.93,1.66-16-6.44,2.34-7.22,3-3.42,15.42-3.61,16.39,1.66,8.88,1.66,8.88Z"/><path class="b3c00846-85e6-410e-be86-2b141893f3d6" d="M92.08,330.3s4.28,4.15,5.08,6S95.29,353,93.82,354.25s-13.24-1.88-14.58-3.88-5.08-8.56-5.08-8.56S85.79,332.31,92.08,330.3Z"/><path class="b3c00846-85e6-410e-be86-2b141893f3d6" d="M107.85,435.6s10,1.11,11.58,2.92,3.52,8.66,3.52,8.66S119.33,458,118.62,458s.51-8.56-.4-10.47a39.91,39.91,0,0,0-4.83-6.65C112.89,440.43,107.85,435.6,107.85,435.6Z"/><path class="b3c00846-85e6-410e-be86-2b141893f3d6" d="M86.42,385.48a3.36,3.36,0,0,0,5.45-.47c2.66-4.52,6.67-11.38,6.92-12.71.38-2-1.71-9.53-2.19-10s-8.48.47-9.81.95S80.22,374.68,80,376.49C79.91,377.61,83.6,382.17,86.42,385.48Z"/><path class="b008a1a3-66fd-4034-a765-ffa047f1276b" d="M160.41,351.36c4.6.73,19.31-1.67,24.4-2.55a83,83,0,0,0-59.25-25c.57,3.33,2.27,11.14,6,12.53,4.72,1.77,14.74,2.95,17.39,5.6S154.81,350.48,160.41,351.36Z"/><path class="b3c00846-85e6-410e-be86-2b141893f3d6" d="M208.59,407.05a83.12,83.12,0,0,0-4.89-28.16l-.38-.11s.21,9.14-2.28,13.71-6.44,7.06-6.65,11.21.42,9.77-1.24,12.67S181.31,428.21,180.89,434c-.37,5.19,13.65,12.86,16.67,14.45A82.92,82.92,0,0,0,208.59,407.05Z"/><path class="bee2f818-cf1d-4b51-998f-9db575c476de" d="M208.59,407.05c0-.2,0-.4,0-.6-5.89,23.62-21.07,46-55.88,53.38C73.27,476.62,44.9,419,42.35,413.39a83.24,83.24,0,0,0,166.24-6.34Z"/><path class="b3304754-9069-4c32-b2cf-9c65b7800e87" d="M125.34,491.8a84.75,84.75,0,1,1,84.75-84.75A84.85,84.85,0,0,1,125.34,491.8Zm0-166.5a81.75,81.75,0,1,0,81.75,81.75A81.84,81.84,0,0,0,125.34,325.3Z"/><path class="e93cd923-9188-4327-9e5e-f108e8cfdda6" d="M286.68,373.07l1.51,3.05a1,1,0,0,0,.78.57l3.36.49a1,1,0,0,1,.58,1.77l-2.44,2.37a1,1,0,0,0-.29.92l.57,3.35a1,1,0,0,1-1.5,1.1l-3-1.58a1,1,0,0,0-1,0l-3,1.58a1,1,0,0,1-1.51-1.1l.58-3.35a1,1,0,0,0-.3-.92L278.6,379a1,1,0,0,1,.57-1.77l3.37-.49a1,1,0,0,0,.78-.57l1.5-3.05A1,1,0,0,1,286.68,373.07Z"/><path class="b9113b24-c6ff-4949-b43c-901d05c23b17" d="M284.82,373.07l-1.5,3.05a1,1,0,0,1-.78.57l-3.37.49a1,1,0,0,0-.87,1.13,13.21,13.21,0,0,0,6-.09c.43-.32,1.36-3.51,1.74-5.69A1,1,0,0,0,284.82,373.07Z"/><path class="b8b0cae9-3262-4f73-aafe-dceace3a60f4" d="M286.84,383.58a2.27,2.27,0,0,0-3-.06c-.29.23-.61.49-1,.77a2.34,2.34,0,0,1-2,.52l-.14.78a1,1,0,0,0,1.51,1.1l3-1.58a1,1,0,0,1,1,0l3,1.58a1,1,0,0,0,1.32-.31A20.54,20.54,0,0,1,286.84,383.58Z"/><path class="e09f562b-83bb-4221-a21c-53ebb4f3ae47" d="M293.53,377.77a1.43,1.43,0,0,0-1.14-1l-3.37-.49a.69.69,0,0,1-.5-.36l-1.5-3a1.41,1.41,0,0,0-1.27-.79,1.39,1.39,0,0,0-1.26.79L283,376a.67.67,0,0,1-.5.36l-3.36.49a1.4,1.4,0,0,0-1.14,1,1.41,1.41,0,0,0,.35,1.45l2.44,2.37a.64.64,0,0,1,.19.59l-.57,3.35a1.41,1.41,0,0,0,2,1.49l3-1.58a.68.68,0,0,1,.62,0l3,1.58a1.41,1.41,0,0,0,2.05-1.49l-.57-3.35a.64.64,0,0,1,.19-.59l2.43-2.37A1.4,1.4,0,0,0,293.53,377.77Zm-.88.91-2.44,2.38a1.41,1.41,0,0,0-.4,1.25l.57,3.35a.65.65,0,0,1-.26.65.69.69,0,0,1-.39.12.7.7,0,0,1-.31-.07l-3-1.59a1.44,1.44,0,0,0-1.31,0l-3,1.59a.67.67,0,0,1-1-.7l.58-3.35a1.39,1.39,0,0,0-.41-1.25l-2.43-2.38a.64.64,0,0,1-.17-.68.66.66,0,0,1,.53-.45l3.37-.49a1.37,1.37,0,0,0,1.06-.77l1.51-3.05a.64.64,0,0,1,.59-.37h0a.67.67,0,0,1,.6.37l1.5,3.05a1.4,1.4,0,0,0,1.07.77l3.36.49a.66.66,0,0,1,.37,1.13Z"/><path class="e93cd923-9188-4327-9e5e-f108e8cfdda6" d="M355.67,449.32l3.89,3.33A1.53,1.53,0,0,0,361,453l4.95-1.31a1.56,1.56,0,0,1,1.85,2.11l-2,4.73A1.59,1.59,0,0,0,366,460l2.78,4.31a1.57,1.57,0,0,1-1.44,2.41l-5.11-.41a1.58,1.58,0,0,0-1.34.57l-3.23,4a1.57,1.57,0,0,1-2.74-.62l-1.19-5a1.58,1.58,0,0,0-1-1.1l-4.78-1.84a1.57,1.57,0,0,1-.25-2.8l4.37-2.67a1.58,1.58,0,0,0,.75-1.25l.28-5.12A1.56,1.56,0,0,1,355.67,449.32Z"/><path class="b9113b24-c6ff-4949-b43c-901d05c23b17" d="M353.09,450.42l-.28,5.12a1.58,1.58,0,0,1-.75,1.25l-4.37,2.67a1.56,1.56,0,0,0-.55,2.09c3.54-.62,7.87-3,8.23-3.66s-.19-5.68-1-8.93A1.55,1.55,0,0,0,353.09,450.42Z"/><path class="b8b0cae9-3262-4f73-aafe-dceace3a60f4" d="M362.11,463.79a3.43,3.43,0,0,0-4.14,1.66c-.26.49-.56,1.05-.91,1.66A3.52,3.52,0,0,1,354.6,469l.27,1.17a1.57,1.57,0,0,0,2.74.62l3.23-4a1.58,1.58,0,0,1,1.34-.57l5.11.41a1.57,1.57,0,0,0,1.65-1.22A31,31,0,0,1,362.11,463.79Z"/><path class="e09f562b-83bb-4221-a21c-53ebb4f3ae47" d="M367.94,451.77a2.11,2.11,0,0,0-2.15-.66l-5,1.32a1,1,0,0,1-.9-.21l-3.9-3.33a2.13,2.13,0,0,0-3.51,1.5l-.28,5.12a1,1,0,0,1-.47.8L347.39,459a2.13,2.13,0,0,0,.35,3.81l4.78,1.84a1,1,0,0,1,.61.7l1.19,5a2.13,2.13,0,0,0,1.6,1.58,2.16,2.16,0,0,0,2.13-.73l3.23-4a1,1,0,0,1,.86-.37l5.11.41A2.12,2.12,0,0,0,369.2,464l-2.78-4.3a1,1,0,0,1-.08-.93l2-4.73A2.1,2.1,0,0,0,367.94,451.77Zm-.68,1.78-2,4.74a2.12,2.12,0,0,0,.18,2l2.79,4.3a1,1,0,0,1,0,1.06,1,1,0,0,1-.46.41.92.92,0,0,1-.47.07l-5.11-.4a2.12,2.12,0,0,0-1.83.77l-3.23,4a1,1,0,0,1-1.75-.39l-1.19-5a2.12,2.12,0,0,0-1.3-1.49l-4.79-1.85A1,1,0,0,1,348,460l4.38-2.68a2.11,2.11,0,0,0,1-1.7l.28-5.12a1,1,0,0,1,.6-.86h0a1,1,0,0,1,1.05.16l3.89,3.33a2.14,2.14,0,0,0,1.94.44l4.95-1.32a1,1,0,0,1,1.18,1.35Z"/><path class="a24a9b51-1b1f-4318-9d3c-710d62fd1924" d="M-4,443.35s18-12.39,45.3-6.41C60.83,441.22,72.52,456,77.6,464a4.48,4.48,0,0,0,6.89.87c4.1-3.94,11.23-8.65,20.33-6.19a6.17,6.17,0,0,0,6.09-1.65c3.64-3.81,11-10,21-10.72a31.3,31.3,0,0,1,24.27,8.59,2.48,2.48,0,0,0,3.88-.61c1.41-2.61,4.41-5.9,10.73-7.12,11.12-2.14,21.42-3.24,26.83-14.82,8.64-18.51,28.3-8.68,36.85-34.75s-2.14-50.86-2.14-50.86-4.27-13.25.86-14.53c3.36-.84,8,9.91,10.82,17.41,1.56,4.17,3.22,8.29,5,12.37,2,4.5,4.42,11,4.67,16a31.49,31.49,0,0,1-.84,8.84,8.71,8.71,0,0,0,3.4,9,27.69,27.69,0,0,1,9.83,13.74c3.09,9-.45,17.58-3.25,22.44a5.72,5.72,0,0,0,1,7c4,3.86,9.55,11.6,8,24a27.55,27.55,0,0,1-15,21.59A5.67,5.67,0,0,0,253.7,490c.33,5.1,0,14.05-5.58,19.6H-4Z"/><path class="f88cfcfc-1fdc-4ffa-bc5e-6e8e36db6f06" d="M-11.06,460.52s18.48-12.8,45.85-5.69,32.7,30.57,32.7,30.57a28.7,28.7,0,0,1,20.1-8.87c13-.37,22.55,8.87,22.55,8.87s6-20.62,23.1-23.1S161,473.67,161,473.67s2.85-15.28,16.35-17.42,21,9.25,21,9.25,11-5,18.13-.72,6,12.8,6,12.8,11.38.24,9.24,11.37c0,0,16-3.91,17.42,13.86H-11.06Z"/><path class="f88cfcfc-1fdc-4ffa-bc5e-6e8e36db6f06" d="M262.82,432c2.8-4.86,6.34-13.46,3.25-22.44a27.69,27.69,0,0,0-9.83-13.74,8.71,8.71,0,0,1-3.4-9,31.49,31.49,0,0,0,.84-8.84c-.25-5-2.69-11.45-4.67-16-1.8-4.08-3.46-8.2-5-12.37-2.81-7.52-7.49-18.32-10.86-17.4h0c5.56,11.38,18.35,41.33,13.05,66.83,0,0,11.29,5.85,11.71,18.82a19.64,19.64,0,0,1-5.7,15,3.41,3.41,0,0,0,.64,5.37c7.09,4.2,19.77,14,18,29.43a31.7,31.7,0,0,0,1-4.68c1.59-12.37-4-20.11-8-24A5.72,5.72,0,0,1,262.82,432Z"/><path class="e9435f4d-21cc-4166-b8a2-0fc05ba88b15" d="M233.13,502.81s-6.61-11.71-22.48-9.12-21.05,12.18-21.05,12.18a25.51,25.51,0,0,0-20.31-17c-20.31-3.33-30.64,13.92-30.64,13.92Z"/><path class="a065e231-a9e3-4780-b7ab-ecaff347ba15" d="M248.54,510.59H-5V442.83l.43-.3C-3.83,442,14,430,41.5,436c19.79,4.32,31.64,19.11,36.94,27.53A3.49,3.49,0,0,0,81,465.11a3.45,3.45,0,0,0,2.82-.93c4.52-4.34,11.88-9,21.28-6.43a5.2,5.2,0,0,0,5.11-1.38c3.63-3.8,11.26-10.28,21.62-11a32.39,32.39,0,0,1,25,8.86,1.47,1.47,0,0,0,1.24.38,1.45,1.45,0,0,0,1.07-.75c1.49-2.76,4.69-6.33,11.43-7.62l2.39-.45c10.15-1.9,18.91-3.53,23.71-13.81,4-8.65,10.53-11.42,16.8-14.1,7.59-3.24,15.44-6.6,20-20.55,8.32-25.38-2-49.9-2.11-50.14-.35-1.09-3.12-10-.89-14a3.74,3.74,0,0,1,2.43-1.91c1.31-.33,4.8-1.2,12,18,1.6,4.28,3.28,8.42,5,12.31,2,4.6,4.5,11.17,4.76,16.31a32.37,32.37,0,0,1-.87,9.13,7.69,7.69,0,0,0,3,8A28.7,28.7,0,0,1,267,409.27c3.27,9.52-.68,18.66-3.33,23.26a4.75,4.75,0,0,0,.82,5.79c3.8,3.67,9.94,11.78,8.26,24.82a28.52,28.52,0,0,1-15.53,22.35,4.65,4.65,0,0,0-2.54,4.43c.33,5.09,0,14.51-5.87,20.38ZM-3,508.59H247.7c5-5.34,5.31-13.87,5-18.54a6.66,6.66,0,0,1,3.62-6.34,26.6,26.6,0,0,0,14.46-20.83c1.48-11.56-3.35-18.95-7.67-23.12a6.75,6.75,0,0,1-1.17-8.23c2.48-4.3,6.19-12.84,3.18-21.61a26.73,26.73,0,0,0-9.48-13.26,9.66,9.66,0,0,1-3.78-10.08,30.51,30.51,0,0,0,.81-8.56c-.24-4.84-2.63-11.15-4.59-15.6-1.73-3.92-3.42-8.1-5-12.42-5.18-13.86-8.49-17.07-9.64-16.79a1.79,1.79,0,0,0-1.16.94c-1.53,2.77.21,9.83,1,12.32.08.16,10.71,25.34,2.14,51.47-4.85,14.81-13.13,18.34-21.13,21.76-6.19,2.65-12.05,5.15-15.76,13.11-5.24,11.2-14.91,13-25.16,14.92l-2.39.45c-6,1.15-8.75,4.23-10,6.61a3.47,3.47,0,0,1-5.45.86A30.41,30.41,0,0,0,132,447.34c-9.7.69-16.9,6.82-20.32,10.41a7.16,7.16,0,0,1-7.08,1.93c-8.51-2.31-15.23,2-19.38,5.94a5.4,5.4,0,0,1-4.44,1.48,5.53,5.53,0,0,1-4-2.53c-5.14-8.16-16.6-22.48-35.68-26.65C16.8,432.61-.14,442.13-3,443.9Z"/><path class="bf163d9f-966e-46b3-bf2a-ba14dc27ec46" d="M247.79,338l-24.4,12.86a6.12,6.12,0,0,1-8.87-4.36l-5.93-34.33,14.14-8L249.05,328A6.11,6.11,0,0,1,247.79,338Z"/><path class="b0a2071f-0ad5-48bb-9534-7139ed46397b" d="M231.08,346.76l-4.77-11.26-14.62-5.41,1.83,10.54c3.89,2.77,9.49,6.69,12.73,8.68Z"/><path class="b0a2071f-0ad5-48bb-9534-7139ed46397b" d="M241.4,321.09l-4.72-4.28-.67,2.05L240.22,342l6.71-3.54C246.12,335.61,243.06,326.18,241.4,321.09Z"/><path class="adc5daa9-f788-44f0-8bf9-45c97f61fa82" d="M232.81,349.78c-14.12-7.39-40.44-27.52-41.09-75.08a6.31,6.31,0,0,1,10.16-5.08c14.55,11.2,40.15,36.35,40.17,74.64A6.3,6.3,0,0,1,232.81,349.78Z"/><path class="ae90d66e-6088-45c5-8665-7da2c4f36e3a" d="M236.12,332c-1.62,1.91-12.05,3.82-14.69,3.24-2-.45-11.33-7.07-15.81-10.3a73.16,73.16,0,0,0,27.19,24.82,6.3,6.3,0,0,0,9.24-5.52,83,83,0,0,0-5-28.47C237.05,316.37,237.7,330.15,236.12,332Z"/><path class="a5dd9e92-cd63-46df-aa25-0e91ff1567ec" d="M242,341.59l-12.18,6.53v5.66a1,1,0,0,0,1.46.74l15.8-8.41a1,1,0,0,0,.08-1.71Z"/><path class="b42c389d-6a64-429d-abfa-1bd798b0a820" d="M242,341.59l-12.18,6.53v1.8c2.12-.32,8.69-1.36,9.92-2,.95-.47,3.23-3.13,4.76-5Z"/><path class="bf163d9f-966e-46b3-bf2a-ba14dc27ec46" d="M226.43,324.27a1.59,1.59,0,0,0-2.69,1.42c1.1,5.64,2.9,14.16,3.94,15.49s5.32,3.83,7.93,5.27a1.59,1.59,0,0,0,2.35-1.28c.17-2.43.2-6.14-.84-8.49S230.31,328.21,226.43,324.27Z"/><path class="b0a2071f-0ad5-48bb-9534-7139ed46397b" d="M226.43,324.27a1.56,1.56,0,0,0-2-.18c2.52,2.73,6.18,6.72,6.72,7.44.83,1.11,2.77,6.65,2.77,6.65l-7.57-10,10.47,18.38a1.6,1.6,0,0,0,1.15-1.42c.17-2.43.2-6.14-.84-8.49S230.31,328.21,226.43,324.27Z"/><path class="bf163d9f-966e-46b3-bf2a-ba14dc27ec46" d="M201.88,269.62a6.31,6.31,0,0,0-10.16,5.08,117.11,117.11,0,0,0,1.07,14.42l19.11-10.85A123,123,0,0,0,201.88,269.62Z"/><path class="aa422a14-e037-4958-8ee9-6965f1df0f41" d="M196.79,268.43a6.26,6.26,0,0,0-5.07,6.27c.23,16.78,3.66,30.13,8.62,40.72Z"/><path class="f588ed05-3447-4c99-8084-0d3f17d826cf" d="M223.54,304.2a10.54,10.54,0,1,1-9.8-11.24A10.55,10.55,0,0,1,223.54,304.2Z"/><circle class="a44169e0-1360-4060-9822-45b90bcd548a" cx="213.02" cy="303.48" r="7.6"/><path class="af09cbc2-53ec-4339-bb09-76fcf3cb51d8" d="M217.12,297.08l-1.75,13.62a7.6,7.6,0,0,0,1.75-13.62Z"/><path class="af09cbc2-53ec-4339-bb09-76fcf3cb51d8" d="M213.54,295.9h-.21l-1.77,12.68,4.56-12A7.43,7.43,0,0,0,213.54,295.9Z"/><path class="af09cbc2-53ec-4339-bb09-76fcf3cb51d8" d="M207.67,308.87a7.79,7.79,0,0,0,2,1.45c1-3.76,2.54-10.55,3.39-14.43a7.41,7.41,0,0,0-3.59.86Z"/><path class="a24a9b51-1b1f-4318-9d3c-710d62fd1924" d="M15.82,404a.94.94,0,1,1-.94-.94A.94.94,0,0,1,15.82,404Z"/><path class="a24a9b51-1b1f-4318-9d3c-710d62fd1924" d="M18.84,406.8a.36.36,0,0,1-.71,0,.36.36,0,0,1,.71,0Z"/><path class="a44169e0-1360-4060-9822-45b90bcd548a" d="M21.42,404a.94.94,0,1,1-.93-.94A.94.94,0,0,1,21.42,404Z"/><path class="f175a372-5828-44f2-849c-3ee1862dbb51" d="M33.51,419.59a1,1,0,1,1-1-1A1,1,0,0,1,33.51,419.59Z"/><circle class="a24a9b51-1b1f-4318-9d3c-710d62fd1924" cx="20.52" cy="419.59" r="0.33"/><path class="a44169e0-1360-4060-9822-45b90bcd548a" d="M268.18,372.58a1.83,1.83,0,1,1-1.83-1.83A1.83,1.83,0,0,1,268.18,372.58Z"/><path class="a24a9b51-1b1f-4318-9d3c-710d62fd1924" d="M327.64,418.3a2.38,2.38,0,1,1-2.37-2.38A2.37,2.37,0,0,1,327.64,418.3Z"/><path class="a44169e0-1360-4060-9822-45b90bcd548a" d="M316.19,416.7a.78.78,0,0,1-1.55,0,.78.78,0,1,1,1.55,0Z"/><path class="a24a9b51-1b1f-4318-9d3c-710d62fd1924" d="M326.81,426.55a1.55,1.55,0,1,1-1.54-1.55A1.54,1.54,0,0,1,326.81,426.55Z"/><path class="a24a9b51-1b1f-4318-9d3c-710d62fd1924" d="M724.66,53a.94.94,0,1,1,.94.94A.94.94,0,0,1,724.66,53Z"/><path class="a24a9b51-1b1f-4318-9d3c-710d62fd1924" d="M721.64,50.18a.35.35,0,0,1,.35-.35.36.36,0,0,1,0,.71A.36.36,0,0,1,721.64,50.18Z"/><path class="a44169e0-1360-4060-9822-45b90bcd548a" d="M719.06,53A.94.94,0,1,1,720,54,.93.93,0,0,1,719.06,53Z"/><path class="f175a372-5828-44f2-849c-3ee1862dbb51" d="M707,37.39a1,1,0,1,1,1,1A1,1,0,0,1,707,37.39Z"/><path class="a44169e0-1360-4060-9822-45b90bcd548a" d="M660.65,134.19a.93.93,0,1,1,.93.93A.93.93,0,0,1,660.65,134.19Z"/><circle class="a24a9b51-1b1f-4318-9d3c-710d62fd1924" cx="677.01" cy="142.18" r="1.35"/><path class="f175a372-5828-44f2-849c-3ee1862dbb51" d="M669.48,143.68a1.27,1.27,0,1,1,1.27,1.27A1.27,1.27,0,0,1,669.48,143.68Z"/><circle class="f175a372-5828-44f2-849c-3ee1862dbb51" cx="679.71" cy="124.42" r="1.35"/><path class="a24a9b51-1b1f-4318-9d3c-710d62fd1924" d="M682.56,133a1,1,0,1,1,1,1A1,1,0,0,1,682.56,133Z"/><path class="a44169e0-1360-4060-9822-45b90bcd548a" d="M732.25,136.71a1.59,1.59,0,1,1,1.59,1.58A1.59,1.59,0,0,1,732.25,136.71Z"/><path class="a24a9b51-1b1f-4318-9d3c-710d62fd1924" d="M728.92,144a1,1,0,1,1,1,.95A.95.95,0,0,1,728.92,144Z"/><path class="a44169e0-1360-4060-9822-45b90bcd548a" d="M731.46,165.48a2,2,0,1,1,2,2A2,2,0,0,1,731.46,165.48Z"/><path class="a24a9b51-1b1f-4318-9d3c-710d62fd1924" d="M726.94,170.91a1,1,0,1,1,1,1A1,1,0,0,1,726.94,170.91Z"/><path class="a24a9b51-1b1f-4318-9d3c-710d62fd1924" d="M722.34,164.49a1,1,0,1,1,1,1A1,1,0,0,1,722.34,164.49Z"/><path class="a24a9b51-1b1f-4318-9d3c-710d62fd1924" d="M733.84,177.36a1.19,1.19,0,1,1,1.18,1.19A1.18,1.18,0,0,1,733.84,177.36Z"/><path class="a24a9b51-1b1f-4318-9d3c-710d62fd1924" d="M722.11,183.15a1.11,1.11,0,1,1,1.11,1.11A1.11,1.11,0,0,1,722.11,183.15Z"/><path class="f175a372-5828-44f2-849c-3ee1862dbb51" d="M712.32,168.71a2.2,2.2,0,1,1,2.2,2.2A2.19,2.19,0,0,1,712.32,168.71Z"/><path class="a24a9b51-1b1f-4318-9d3c-710d62fd1924" d="M523.2,63.13a1,1,0,1,1,1,1A1,1,0,0,1,523.2,63.13Z"/><path class="a44169e0-1360-4060-9822-45b90bcd548a" d="M521.75,71.48a.73.73,0,1,1,.72.73A.73.73,0,0,1,521.75,71.48Z"/><circle class="a24a9b51-1b1f-4318-9d3c-710d62fd1924" cx="516.6" cy="86.23" r="2.06"/><path class="f175a372-5828-44f2-849c-3ee1862dbb51" d="M514.53,72.62a1,1,0,1,1,1,1A1,1,0,0,1,514.53,72.62Z"/><circle class="a24a9b51-1b1f-4318-9d3c-710d62fd1924" cx="527.99" cy="82.57" r="1.6"/><path class="a44169e0-1360-4060-9822-45b90bcd548a" d="M477.71,68.24a.88.88,0,1,1,.88.87A.88.88,0,0,1,477.71,68.24Z"/><circle class="a24a9b51-1b1f-4318-9d3c-710d62fd1924" cx="480.7" cy="76.54" r="1.24"/><path class="a24a9b51-1b1f-4318-9d3c-710d62fd1924" d="M115.81,179.48a.79.79,0,0,1,0-1.13.8.8,0,1,1,0,1.13Z"/><path class="f175a372-5828-44f2-849c-3ee1862dbb51" d="M130.89,179.55a2.89,2.89,0,1,1,4.08,0A2.9,2.9,0,0,1,130.89,179.55Z"/><path class="a44169e0-1360-4060-9822-45b90bcd548a" d="M123.87,182.42a.81.81,0,0,1,0-1.16.82.82,0,0,1,1.16,0,.83.83,0,0,1,0,1.17A.82.82,0,0,1,123.87,182.42Z"/><circle class="a24a9b51-1b1f-4318-9d3c-710d62fd1924" cx="139.58" cy="171.14" r="1.73"/><path class="f175a372-5828-44f2-849c-3ee1862dbb51" d="M106,188.31a1.41,1.41,0,1,1,2,0A1.42,1.42,0,0,1,106,188.31Z"/><path class="a24a9b51-1b1f-4318-9d3c-710d62fd1924" d="M16.83,96.13a2.38,2.38,0,1,1,2.31-2.44A2.37,2.37,0,0,1,16.83,96.13Z"/><path class="a44169e0-1360-4060-9822-45b90bcd548a" d="M18.12,84.64a.78.78,0,1,1,.75-.8A.77.77,0,0,1,18.12,84.64Z"/><path class="a24a9b51-1b1f-4318-9d3c-710d62fd1924" d="M8.56,95.53a1.55,1.55,0,1,1,1.51-1.59A1.56,1.56,0,0,1,8.56,95.53Z"/><path class="f175a372-5828-44f2-849c-3ee1862dbb51" d="M28.23,94A2.89,2.89,0,1,1,31,91,2.89,2.89,0,0,1,28.23,94Z"/><path class="a44169e0-1360-4060-9822-45b90bcd548a" d="M25.53,101.05a.84.84,0,0,1-.85-.8.83.83,0,0,1,.81-.85.83.83,0,0,1,0,1.65Z"/><path class="a24a9b51-1b1f-4318-9d3c-710d62fd1924" d="M28.07,83.59a1.73,1.73,0,1,1,1.68-1.77A1.72,1.72,0,0,1,28.07,83.59Z"/><path class="f175a372-5828-44f2-849c-3ee1862dbb51" d="M17.63,118.11a1.42,1.42,0,0,1-1.45-1.37,1.41,1.41,0,1,1,1.45,1.37Z"/><path class="a24a9b51-1b1f-4318-9d3c-710d62fd1924" d="M497.26,33.72a2.1,2.1,0,1,1,3,.25A2.1,2.1,0,0,1,497.26,33.72Z"/><path class="a24a9b51-1b1f-4318-9d3c-710d62fd1924" d="M498.22,44a1.62,1.62,0,1,1,2.29.19A1.63,1.63,0,0,1,498.22,44Z"/><path class="a24a9b51-1b1f-4318-9d3c-710d62fd1924" d="M485,42.66a1.05,1.05,0,1,1,1.49.13A1.06,1.06,0,0,1,485,42.66Z"/><path class="a24a9b51-1b1f-4318-9d3c-710d62fd1924" d="M505.91,29.16l1.31-1.11,1.32-1.11-1.32,1.11Z"/><path class="a24a9b51-1b1f-4318-9d3c-710d62fd1924" d="M509.16,15.53a1.43,1.43,0,1,1,2,.17A1.43,1.43,0,0,1,509.16,15.53Z"/><path class="f175a372-5828-44f2-849c-3ee1862dbb51" d="M510.19,33.92a1.62,1.62,0,1,1,2.29.19A1.63,1.63,0,0,1,510.19,33.92Z"/><path class="a24a9b51-1b1f-4318-9d3c-710d62fd1924" d="M54.24,5.59a1,1,0,1,1,1,1A1,1,0,0,1,54.24,5.59Z"/><path class="a44169e0-1360-4060-9822-45b90bcd548a" d="M52.8,14a.72.72,0,1,1,.72.72A.72.72,0,0,1,52.8,14Z"/><circle class="a24a9b51-1b1f-4318-9d3c-710d62fd1924" cx="47.64" cy="28.7" r="2.06"/><path class="f175a372-5828-44f2-849c-3ee1862dbb51" d="M45.58,15.08a1,1,0,1,1,1,1A1,1,0,0,1,45.58,15.08Z"/><circle class="a24a9b51-1b1f-4318-9d3c-710d62fd1924" cx="59.04" cy="25.03" r="1.6"/><path class="a44169e0-1360-4060-9822-45b90bcd548a" d="M8.76,10.7a.88.88,0,1,1,.88.88A.87.87,0,0,1,8.76,10.7Z"/><path class="a24a9b51-1b1f-4318-9d3c-710d62fd1924" d="M10.51,19a1.24,1.24,0,1,1,1.24,1.24A1.25,1.25,0,0,1,10.51,19Z"/><circle class="a24a9b51-1b1f-4318-9d3c-710d62fd1924" cx="2.57" cy="17.87" r="1.13"/><path class="a44169e0-1360-4060-9822-45b90bcd548a" d="M3.34,26.87A1.84,1.84,0,1,1,5.17,28.7,1.83,1.83,0,0,1,3.34,26.87Z"/><path class="a24a9b51-1b1f-4318-9d3c-710d62fd1924" d="M715.77,459.1a1,1,0,1,1,1,1A1,1,0,0,1,715.77,459.1Z"/><path class="a44169e0-1360-4060-9822-45b90bcd548a" d="M714.33,467.46a.72.72,0,1,1,.72.72A.73.73,0,0,1,714.33,467.46Z"/><circle class="a24a9b51-1b1f-4318-9d3c-710d62fd1924" cx="709.17" cy="482.2" r="2.06"/><path class="f175a372-5828-44f2-849c-3ee1862dbb51" d="M707.11,468.59a1,1,0,1,1,1,1A1,1,0,0,1,707.11,468.59Z"/><circle class="a24a9b51-1b1f-4318-9d3c-710d62fd1924" cx="720.56" cy="478.54" r="1.6"/><path class="a44169e0-1360-4060-9822-45b90bcd548a" d="M670.29,464.21a.88.88,0,1,1,.87.87A.87.87,0,0,1,670.29,464.21Z"/><circle class="a24a9b51-1b1f-4318-9d3c-710d62fd1924" cx="673.28" cy="472.51" r="1.24"/><path class="a24a9b51-1b1f-4318-9d3c-710d62fd1924" d="M671.7,427.6a1,1,0,1,1,1.48.12A1,1,0,0,1,671.7,427.6Z"/><path class="a24a9b51-1b1f-4318-9d3c-710d62fd1924" d="M692.56,414.09l1.32-1.11,1.31-1.11L693.88,413Z"/><path class="a24a9b51-1b1f-4318-9d3c-710d62fd1924" d="M695.81,400.46a1.43,1.43,0,1,1,2,.17A1.43,1.43,0,0,1,695.81,400.46Z"/><path class="f175a372-5828-44f2-849c-3ee1862dbb51" d="M696.84,418.86a1.62,1.62,0,1,1,2.29.19A1.63,1.63,0,0,1,696.84,418.86Z"/><circle class="a24a9b51-1b1f-4318-9d3c-710d62fd1924" cx="639.17" cy="37.07" r="2.29"/><path class="a24a9b51-1b1f-4318-9d3c-710d62fd1924" d="M644,46.57a1.77,1.77,0,1,1,1.77,1.77A1.76,1.76,0,0,1,644,46.57Z"/><circle class="a24a9b51-1b1f-4318-9d3c-710d62fd1924" cx="636.06" cy="49.15" r="0.81"/><circle class="a24a9b51-1b1f-4318-9d3c-710d62fd1924" cx="650.73" cy="57.42" r="1.05"/><path class="a24a9b51-1b1f-4318-9d3c-710d62fd1924" d="M618.29,42.78a2,2,0,1,1,2,2A2,2,0,0,1,618.29,42.78Z"/><circle class="a24a9b51-1b1f-4318-9d3c-710d62fd1924" cx="621.3" cy="53.69" r="3.73"/><circle class="a24a9b51-1b1f-4318-9d3c-710d62fd1924" cx="602.93" cy="38.91" r="1.84"/><circle class="a24a9b51-1b1f-4318-9d3c-710d62fd1924" cx="610.59" cy="31.81" r="1.05"/><path class="e54ec624-d53f-4d58-8d6e-9ed6d3aae248" d="M42.91,344.38S46,349,44,352.28s-8.54,2.55-9.08,5.18-.36,5.67-2.67,9.09S20,362.55,21.4,358s2.77-7.15,6.11-12.62,10.53-5.36,12.77-4A5.46,5.46,0,0,1,42.91,344.38Z"/><path class="eeeb686d-8d4b-4d35-ae38-30fb83364f1d" d="M26.59,366.07c2.28,1.42,4.66,1.94,5.64.48,2.31-3.42,2.14-6.47,2.67-9.09s7-1.87,9.08-5.18a5.62,5.62,0,0,0,.51-4.15l-.28.09S43,351,41,351.44s-5.52.76-7,2.64-3.24,8.72-3.24,8.72l-.07-3.37-1.92,6.84.49-4.51Z"/><path class="fb9d8963-3c01-4bf9-9cd3-ed8aa42ac6d9" d="M40.8,347.2s-4.44-.59-5.34.43a37.89,37.89,0,0,0-2.75,4.5s3-3.52,4.71-3.77A11.41,11.41,0,0,0,40.8,347.2Z"/><path class="fb9d8963-3c01-4bf9-9cd3-ed8aa42ac6d9" d="M27.51,345.42c-3.34,5.47-4.7,8.12-6.11,12.62-.44,1.39.2,3,1.36,4.57,2.73-3.5,5.63-6.63,6.27-7.48.84-1.11,3.49-6.76,5.16-8.68,1-1.17,5.8-1.07,9.42-.82a13.81,13.81,0,0,0-.7-1.25,5.46,5.46,0,0,0-2.63-2.95C38,340.06,30.86,340,27.51,345.42Z"/><path class="b488eb8f-1655-42ad-8274-26dcb6906a4f" d="M26.83,345c3.47-5.66,11.05-6,13.87-4.26A6.51,6.51,0,0,1,43.64,344c.48.76,3.13,5.2,1,8.65-1.2,2-3.59,2.65-5.71,3.24-1.59.46-3.09.88-3.26,1.68-.12.61-.21,1.24-.29,1.9a16,16,0,0,1-2.5,7.49c-1,1.47-3,1.63-5.53.41-3.46-1.66-7.84-6-6.72-9.6C22.1,353.14,23.53,350.4,26.83,345Zm15.31-.44a4.86,4.86,0,0,0-2.27-2.46c-1.76-1.08-8.5-1.47-11.68,3.73s-4.62,7.94-6,12.44c-.74,2.34,2.62,6.12,5.89,7.7.64.31,2.78,1.22,3.52.13a14.26,14.26,0,0,0,2.24-6.81c.09-.69.18-1.36.31-2,.35-1.76,2.32-2.31,4.39-2.9,1.83-.51,3.91-1.1,4.79-2.54,1.73-2.84-1-7-1-7Z"/><path class="e54ec624-d53f-4d58-8d6e-9ed6d3aae248" d="M372.44-10.35s3.1,4.58,1.07,7.9S365,.1,364.44,2.73s-.37,5.68-2.67,9.1-12.25-4-10.84-8.51,2.77-7.16,6.12-12.63,10.52-5.36,12.77-4A5.5,5.5,0,0,1,372.44-10.35Z"/><path class="eeeb686d-8d4b-4d35-ae38-30fb83364f1d" d="M356.12,11.34c2.29,1.42,4.66,1.94,5.65.49,2.3-3.42,2.14-6.48,2.67-9.1s7-1.86,9.07-5.18A5.57,5.57,0,0,0,374-6.6l-.27.09s-1.18,2.74-3.21,3.23-5.52.75-7,2.63-3.24,8.73-3.24,8.73l-.07-3.38-1.92,6.84L358.76,7Z"/><path class="fb9d8963-3c01-4bf9-9cd3-ed8aa42ac6d9" d="M357.05-9.31c-3.35,5.47-4.7,8.13-6.12,12.63-.43,1.38.21,3,1.36,4.57C355,4.38,357.92,1.25,358.56.4c.85-1.11,3.5-6.76,5.16-8.68,1-1.16,5.81-1.07,9.42-.81a11,11,0,0,0-.7-1.26,5.5,5.5,0,0,0-2.62-3C367.57-14.67,360.39-14.77,357.05-9.31Z"/><path class="b488eb8f-1655-42ad-8274-26dcb6906a4f" d="M356.37-9.72c3.46-5.66,11.05-6,13.86-4.26a6.44,6.44,0,0,1,2.94,3.29c.49.76,3.14,5.2,1,8.65-1.2,2-3.6,2.65-5.71,3.25-1.59.45-3.09.87-3.26,1.68-.12.61-.21,1.24-.3,1.89a15.88,15.88,0,0,1-2.49,7.49c-1,1.48-3,1.63-5.53.41-3.46-1.66-7.84-6-6.73-9.6C351.64-1.58,353.07-4.33,356.37-9.72Zm15.3-.44a4.8,4.8,0,0,0-2.27-2.46c-1.75-1.07-8.5-1.46-11.67,3.73s-4.63,7.94-6,12.45c-.73,2.33,2.63,6.12,5.9,7.69.64.31,2.78,1.23,3.52.13a14.23,14.23,0,0,0,2.24-6.81c.09-.69.18-1.36.31-2C364,.82,366,.26,368.05-.32c1.83-.52,3.9-1.11,4.78-2.55,1.74-2.83-1-7-1.05-7Z"/><path class="e54ec624-d53f-4d58-8d6e-9ed6d3aae248" d="M42.38-3.35s3.1,4.58,1.07,7.89S34.91,7.1,34.37,9.72,34,15.4,31.7,18.82s-12.25-4-10.83-8.51S23.64,3.15,27-2.31s10.53-5.37,12.77-4A5.46,5.46,0,0,1,42.38-3.35Z"/><path class="eeeb686d-8d4b-4d35-ae38-30fb83364f1d" d="M26.06,18.34c2.29,1.42,4.66,1.94,5.64.48,2.31-3.42,2.14-6.47,2.67-9.1s7.05-1.86,9.08-5.18A5.56,5.56,0,0,0,44,.39l-.28.1s-1.18,2.73-3.2,3.22-5.53.76-7,2.64-3.24,8.72-3.24,8.72l-.07-3.37L28.2,18.54,28.69,14Z"/><path class="fb9d8963-3c01-4bf9-9cd3-ed8aa42ac6d9" d="M40.27-.53s-4.43-.59-5.33.43a38.32,38.32,0,0,0-2.76,4.5s3-3.52,4.71-3.77A11.41,11.41,0,0,0,40.27-.53Z"/><path class="fb9d8963-3c01-4bf9-9cd3-ed8aa42ac6d9" d="M27-2.31c-3.34,5.46-4.7,8.12-6.11,12.62-.44,1.38.2,3,1.36,4.57C25,11.38,27.86,8.24,28.5,7.4,29.35,6.28,32,.64,33.66-1.28c1-1.17,5.8-1.07,9.42-.82a10.28,10.28,0,0,0-.7-1.25A5.46,5.46,0,0,0,39.75-6.3C37.51-7.68,30.33-7.78,27-2.31Z"/><path class="b488eb8f-1655-42ad-8274-26dcb6906a4f" d="M26.3-2.73C29.77-8.39,37.36-8.7,40.17-7a6.46,6.46,0,0,1,2.94,3.29c.49.76,3.13,5.19,1,8.65-1.21,2-3.6,2.64-5.71,3.24-1.6.45-3.1.88-3.27,1.68-.12.61-.2,1.24-.29,1.9a16.05,16.05,0,0,1-2.5,7.49c-1,1.47-3,1.62-5.53.41-3.46-1.67-7.84-6-6.72-9.61C21.57,5.41,23,2.67,26.3-2.73Zm15.31-.43a4.86,4.86,0,0,0-2.27-2.46C37.58-6.7,30.84-7.09,27.66-1.9s-4.62,8-6,12.45c-.74,2.34,2.62,6.12,5.89,7.7.64.3,2.78,1.22,3.52.13a14.26,14.26,0,0,0,2.24-6.82c.09-.69.19-1.35.32-2C34,7.81,35.91,7.26,38,6.67c1.83-.52,3.91-1.1,4.79-2.54,1.74-2.84-1-7-1.05-7Z"/><path class="e54ec624-d53f-4d58-8d6e-9ed6d3aae248" d="M250.39,87.18s-4.18-1-4.41-3.41,4.4-4.53,3.52-6-2.43-2.89-2.52-5.43,9.91-2.79,11.1-.07A23.64,23.64,0,0,1,260,80.73c.38,3.94-4.38,6.66-6.5,6.86A5.35,5.35,0,0,1,250.39,87.18Z"/><path class="eeeb686d-8d4b-4d35-ae38-30fb83364f1d" d="M250.91,70.39c-2.17.19-4,.85-3.93,1.94.09,2.54,1.63,4,2.52,5.43s-3.74,3.62-3.52,6A3.17,3.17,0,0,0,247.6,86l.13-.15a3,3,0,0,1,.59-2.8c1.1-1,3.27-2.49,3.38-4s-2-5.47-2-5.47l1.63,1.61-2-4,1.8,2.37Z"/><path class="fb9d8963-3c01-4bf9-9cd3-ed8aa42ac6d9" d="M250.45,85s3.19-1.43,3.3-2.27a18,18,0,0,0-.31-3.24s-.31,2.86-1.32,3.64A7.76,7.76,0,0,0,250.45,85Z"/><path class="fb9d8963-3c01-4bf9-9cd3-ed8aa42ac6d9" d="M260,80.73a23.64,23.64,0,0,0-1.92-8.47c-.37-.83-1.56-1.38-3-1.68-.15,2.75-.57,5.38-.6,6,0,.87.89,4.62.7,6.19-.12,1-3.3,2.76-5.8,4a10.58,10.58,0,0,0,1,.34,5.35,5.35,0,0,0,3.11.41C255.62,87.39,260.38,84.67,260,80.73Z"/><path class="b488eb8f-1655-42ad-8274-26dcb6906a4f" d="M260.64,80.67c.39,4.07-4.44,7.16-7.09,7.41a6.3,6.3,0,0,1-3.48-.46c-.67-.18-4.49-1.3-4.73-3.79-.13-1.42,1.12-2.67,2.22-3.77.84-.84,1.62-1.62,1.35-2.07s-.44-.68-.69-1a8,8,0,0,1-1.89-4.58c0-1.1,1.21-2,3.44-2.34,3-.52,8-.1,8.92,2.06A24.12,24.12,0,0,1,260.64,80.67Zm-9.83,6.11a4.55,4.55,0,0,0,2.64.32c1.66-.16,6.27-2.57,5.91-6.31a23.48,23.48,0,0,0-1.89-8.35c-.62-1.41-4.6-2-7.48-1.45-.57.1-2.4.48-2.37,1.3a7.12,7.12,0,0,0,1.73,4.16c.26.37.52.73.73,1.09.6,1-.43,2-1.51,3.09s-2,2-1.95,3.08c.2,2,4,3,4,3Z"/><path class="e54ec624-d53f-4d58-8d6e-9ed6d3aae248" d="M285.36,429.07a6.13,6.13,0,0,0-2.6,2.59c-.8,1.46-1.92,4-1,5.36,1.3,2.06,3.58,2.28,4.34,4.24s-.33,5.86,2.61,6.84,9.34-1.41,9.88-2.61,1.52-4.55,2.61-6.08,2.72-3.37,2.28-5.22-1.19-4.34-3.91-5-5.79,2.06-7.08,1.3-2.26-1.85-4.76-1.95A4.81,4.81,0,0,0,285.36,429.07Z"/><path class="fb9d8963-3c01-4bf9-9cd3-ed8aa42ac6d9" d="M302.62,431.76c0,.1-.09,3.05-.22,3.67-.24,1.1-2.52,2.17-3.78,2.31s-6-1.89-6.16-1.4c-.08.29,1.8,1.31,3.31,2.06a1.71,1.71,0,0,1,.41,2.75,3.77,3.77,0,0,1-2.39,1.2c-2.3.14-2.94-.26-3.49-1.12-.22-.34.14-2.37-.49-2.8s-3.66,0-6.86-1.81a3.93,3.93,0,0,1-1.32-2.32,3.42,3.42,0,0,0,.1,2.72c1.3,2.06,3.58,2.28,4.34,4.24s-.33,5.86,2.61,6.84,9.34-1.41,9.88-2.61,1.52-4.55,2.61-6.08,2.72-3.37,2.28-5.22A10.93,10.93,0,0,0,302.62,431.76Z"/><path class="eeeb686d-8d4b-4d35-ae38-30fb83364f1d" d="M299.54,429.2c-2.72-.65-5.79,2.06-7.08,1.3s-2.26-1.85-4.76-1.95a4.81,4.81,0,0,0-2.34.52,6.13,6.13,0,0,0-2.6,2.59c-.14.26-.29.55-.44.87a23.05,23.05,0,0,1,5.47-2.13c2.34-.3,7.39,3.31,7.39,3.31l-.18-1a1.1,1.1,0,0,1,.44-1.48,7,7,0,0,1,3.81-1.1,6.7,6.7,0,0,1,3.27,1.47A4.43,4.43,0,0,0,299.54,429.2Z"/><path class="b488eb8f-1655-42ad-8274-26dcb6906a4f" d="M290.37,448.83a5.82,5.82,0,0,1-1.85-.26c-2.32-.77-2.47-3.1-2.59-5a7.92,7.92,0,0,0-.33-2.16,4.31,4.31,0,0,0-1.9-1.93,7.53,7.53,0,0,1-2.4-2.22c-1-1.56,0-4.05,1-5.88a6.62,6.62,0,0,1,2.81-2.79h0a5.19,5.19,0,0,1,2.58-.57,7.28,7.28,0,0,1,4.24,1.53c.25.17.5.34.76.49s1.34-.16,2.27-.53c1.36-.54,3.05-1.22,4.67-.83,3.19.77,3.93,3.88,4.28,5.37.43,1.83-.88,3.6-1.92,5l-.44.6a21.54,21.54,0,0,0-1.92,4.34c-.25.68-.5,1.26-.64,1.66C298.24,447.84,293.72,448.83,290.37,448.83Zm-4.79-19.31a5.62,5.62,0,0,0-2.38,2.38c-1.22,2.21-1.6,4-1.05,4.85a6.63,6.63,0,0,0,2.11,1.93,5.29,5.29,0,0,1,2.28,2.39,8.7,8.7,0,0,1,.38,2.46c.12,1.82.24,3.54,1.92,4.09,2.83.95,8.58-.63,9.27-2.34.14-.36.37-.92.61-1.59a22.22,22.22,0,0,1,2-4.57l.45-.61c1-1.32,2.08-2.82,1.75-4.2-.49-2.08-1.25-4.08-3.54-4.63-1.3-.31-2.77.27-4.06.79s-2.35.94-3.15.46c-.28-.16-.55-.34-.82-.53a6.31,6.31,0,0,0-3.71-1.35,4.12,4.12,0,0,0-2.1.47Z"/><path class="e54ec624-d53f-4d58-8d6e-9ed6d3aae248" d="M742.9,424.34a6.19,6.19,0,0,0-2.6,2.59c-.81,1.46-1.92,4-1,5.36,1.31,2.07,3.59,2.28,4.35,4.24s-.33,5.87,2.61,6.84,9.34-1.41,9.88-2.6,1.52-4.55,2.61-6.08,2.71-3.37,2.28-5.22-1.2-4.35-3.91-5-5.79,2.07-7.08,1.3-2.26-1.84-4.76-1.95A4.81,4.81,0,0,0,742.9,424.34Z"/><path class="fb9d8963-3c01-4bf9-9cd3-ed8aa42ac6d9" d="M760.16,427c0,.1-.09,3.05-.22,3.67-.24,1.11-2.52,2.17-3.78,2.32s-6-1.9-6.16-1.41c-.09.3,1.8,1.31,3.3,2.06a1.7,1.7,0,0,1,.42,2.75,3.83,3.83,0,0,1-2.39,1.21c-2.31.14-2.94-.27-3.5-1.12-.22-.34.14-2.38-.48-2.8s-3.66,0-6.86-1.82a3.82,3.82,0,0,1-1.32-2.32,3.42,3.42,0,0,0,.09,2.72c1.31,2.07,3.59,2.28,4.35,4.24s-.33,5.87,2.61,6.84,9.34-1.41,9.88-2.6,1.52-4.55,2.61-6.08,2.71-3.37,2.28-5.22A11,11,0,0,0,760.16,427Z"/><path class="eeeb686d-8d4b-4d35-ae38-30fb83364f1d" d="M757.08,424.47c-2.72-.65-5.79,2.07-7.08,1.3s-2.26-1.84-4.76-1.95a4.81,4.81,0,0,0-2.34.52,6.19,6.19,0,0,0-2.6,2.59c-.14.26-.29.56-.44.87a23.49,23.49,0,0,1,5.47-2.13c2.34-.3,7.38,3.31,7.38,3.31l-.18-1a1.12,1.12,0,0,1,.45-1.49,7,7,0,0,1,3.81-1.09,6.72,6.72,0,0,1,3.27,1.46A4.48,4.48,0,0,0,757.08,424.47Z"/><path class="b488eb8f-1655-42ad-8274-26dcb6906a4f" d="M747.9,444.1a6.07,6.07,0,0,1-1.84-.25c-2.32-.77-2.47-3.1-2.6-5a7.64,7.64,0,0,0-.32-2.16,4.29,4.29,0,0,0-1.9-1.92,7.68,7.68,0,0,1-2.4-2.23c-1-1.55,0-4.05,1-5.87a6.59,6.59,0,0,1,2.81-2.8h0a5.42,5.42,0,0,1,2.58-.57,7.28,7.28,0,0,1,4.23,1.53c.26.17.5.34.76.49s1.35-.15,2.28-.52c1.36-.55,3-1.22,4.67-.83,3.19.76,3.92,3.87,4.28,5.36.43,1.84-.88,3.61-1.93,5-.15.2-.3.4-.43.6a21.2,21.2,0,0,0-1.92,4.33c-.25.68-.5,1.26-.64,1.66C755.77,443.11,751.26,444.1,747.9,444.1Zm-4.78-19.31a5.57,5.57,0,0,0-2.38,2.38c-1.22,2.21-1.61,4-1,4.86A6.49,6.49,0,0,0,741.8,434a5.29,5.29,0,0,1,2.27,2.4,8.24,8.24,0,0,1,.39,2.46c.12,1.81.24,3.53,1.91,4.09,2.83.94,8.59-.64,9.28-2.34l.61-1.59a21.25,21.25,0,0,1,2-4.57c.14-.2.29-.41.45-.62,1-1.32,2.08-2.81,1.75-4.2-.49-2.08-1.25-4.07-3.54-4.62-1.3-.32-2.77.27-4.06.78s-2.35.94-3.15.47c-.28-.17-.55-.35-.82-.53a6.27,6.27,0,0,0-3.71-1.36,4.21,4.21,0,0,0-2.1.47Z"/><path class="e54ec624-d53f-4d58-8d6e-9ed6d3aae248" d="M639.33,251a6.08,6.08,0,0,0-2.59,2.58c-.81,1.47-1.93,4-1,5.37,1.3,2.06,3.58,2.28,4.34,4.23s-.32,5.87,2.61,6.85,9.34-1.42,9.88-2.61,1.52-4.55,2.61-6.08,2.72-3.37,2.28-5.22-1.19-4.34-3.91-5-5.79,2.06-7.08,1.3-2.26-1.85-4.76-2A4.7,4.7,0,0,0,639.33,251Z"/><path class="fb9d8963-3c01-4bf9-9cd3-ed8aa42ac6d9" d="M656.6,253.72c0,.09-.1,3-.23,3.67-.23,1.1-2.52,2.17-3.78,2.31s-6-1.89-6.16-1.4c-.08.29,1.8,1.3,3.31,2.06a1.71,1.71,0,0,1,.41,2.75,3.82,3.82,0,0,1-2.38,1.2c-2.31.14-2.95-.26-3.5-1.12-.22-.34.14-2.38-.49-2.8s-3.66,0-6.86-1.81a3.92,3.92,0,0,1-1.32-2.33,3.44,3.44,0,0,0,.1,2.73c1.3,2.06,3.58,2.28,4.34,4.23s-.32,5.87,2.61,6.85,9.34-1.42,9.88-2.61,1.52-4.55,2.61-6.08,2.72-3.37,2.28-5.22A11.23,11.23,0,0,0,656.6,253.72Z"/><path class="eeeb686d-8d4b-4d35-ae38-30fb83364f1d" d="M653.51,251.16c-2.71-.66-5.79,2.06-7.08,1.3s-2.26-1.85-4.76-2a4.7,4.7,0,0,0-2.34.53,6.08,6.08,0,0,0-2.59,2.58c-.15.26-.3.56-.45.87a23.94,23.94,0,0,1,5.47-2.13c2.34-.29,7.39,3.32,7.39,3.32l-.18-1a1.1,1.1,0,0,1,.44-1.48,7,7,0,0,1,3.81-1.1,6.77,6.77,0,0,1,3.27,1.46A4.45,4.45,0,0,0,653.51,251.16Z"/><path class="b488eb8f-1655-42ad-8274-26dcb6906a4f" d="M644.34,270.78a5.83,5.83,0,0,1-1.85-.25c-2.31-.77-2.47-3.1-2.59-5a8.52,8.52,0,0,0-.32-2.17,4.42,4.42,0,0,0-1.91-1.92,7.67,7.67,0,0,1-2.4-2.23c-1-1.55,0-4.05,1-5.87a6.62,6.62,0,0,1,2.81-2.79h0a5.34,5.34,0,0,1,2.58-.58,7.35,7.35,0,0,1,4.24,1.54l.76.49c.38.22,1.34-.16,2.27-.53,1.36-.54,3-1.22,4.67-.83,3.2.77,3.93,3.87,4.28,5.37.43,1.83-.87,3.6-1.92,5l-.44.6a21.45,21.45,0,0,0-1.92,4.33c-.25.69-.49,1.26-.64,1.67C652.21,269.8,647.69,270.78,644.34,270.78Zm-4.79-19.31a5.71,5.71,0,0,0-2.38,2.39c-1.22,2.21-1.6,4-1,4.85a6.63,6.63,0,0,0,2.11,1.93,5.24,5.24,0,0,1,2.28,2.39,8.63,8.63,0,0,1,.39,2.46c.12,1.82.23,3.53,1.91,4.09,2.83.94,8.58-.63,9.27-2.34.14-.36.37-.93.61-1.59a22.22,22.22,0,0,1,2-4.57l.45-.61c1-1.32,2.08-2.82,1.76-4.2-.49-2.08-1.26-4.08-3.55-4.63-1.3-.31-2.77.27-4.06.79s-2.35.94-3.15.46c-.28-.17-.55-.35-.81-.53a6.3,6.3,0,0,0-3.72-1.36,4.34,4.34,0,0,0-2.1.47Z"/><path class="e54ec624-d53f-4d58-8d6e-9ed6d3aae248" d="M-6.66,42.42A6.13,6.13,0,0,0-9.26,45c-.8,1.46-1.92,4-1,5.36,1.31,2.06,3.59,2.28,4.35,4.24s-.33,5.86,2.61,6.84S6,60,6.54,58.84s1.52-4.55,2.61-6.07,2.71-3.38,2.28-5.23-1.19-4.34-3.91-5S1.73,44.61.44,43.85s-2.26-1.85-4.76-2A4.81,4.81,0,0,0-6.66,42.42Z"/><path class="fb9d8963-3c01-4bf9-9cd3-ed8aa42ac6d9" d="M10.6,45.11c0,.1-.09,3-.22,3.67-.24,1.1-2.52,2.17-3.78,2.31s-6-1.89-6.16-1.4C.35,50,2.24,51,3.75,51.75a1.71,1.71,0,0,1,.41,2.75,3.77,3.77,0,0,1-2.39,1.2c-2.3.14-2.94-.26-3.49-1.11-.22-.35.14-2.38-.49-2.8s-3.66,0-6.86-1.82a3.93,3.93,0,0,1-1.32-2.32,3.46,3.46,0,0,0,.09,2.72c1.31,2.06,3.59,2.28,4.35,4.24s-.33,5.86,2.61,6.84S6,60,6.54,58.84s1.52-4.55,2.61-6.07,2.71-3.38,2.28-5.23A10.93,10.93,0,0,0,10.6,45.11Z"/><path class="eeeb686d-8d4b-4d35-ae38-30fb83364f1d" d="M7.52,42.55C4.8,41.9,1.73,44.61.44,43.85s-2.26-1.85-4.76-2a4.81,4.81,0,0,0-2.34.52A6.13,6.13,0,0,0-9.26,45c-.14.26-.29.55-.44.87a23.05,23.05,0,0,1,5.47-2.13c2.34-.3,7.38,3.31,7.38,3.31L3,46a1.12,1.12,0,0,1,.45-1.49,7,7,0,0,1,3.81-1.1,6.8,6.8,0,0,1,3.27,1.47A4.43,4.43,0,0,0,7.52,42.55Z"/><path class="b488eb8f-1655-42ad-8274-26dcb6906a4f" d="M-1.65,62.18a5.82,5.82,0,0,1-1.85-.26c-2.32-.77-2.47-3.1-2.59-5a7.92,7.92,0,0,0-.33-2.16,4.31,4.31,0,0,0-1.9-1.93,7.53,7.53,0,0,1-2.4-2.22c-1-1.55,0-4,1-5.88A6.62,6.62,0,0,1-6.88,42h0A5.19,5.19,0,0,1-4.3,41.4,7.28,7.28,0,0,1-.06,42.93c.25.17.49.34.76.49S2,43.26,3,42.89c1.36-.54,3-1.22,4.67-.83,3.19.77,3.93,3.88,4.28,5.37.43,1.83-.88,3.6-1.93,5l-.43.6a21.54,21.54,0,0,0-1.92,4.34c-.25.68-.5,1.26-.64,1.66C6.22,61.19,1.7,62.18-1.65,62.18ZM-6.44,42.87a5.62,5.62,0,0,0-2.38,2.38c-1.22,2.21-1.6,4-1,4.85A6.63,6.63,0,0,0-7.76,52a5.29,5.29,0,0,1,2.28,2.39,8.7,8.7,0,0,1,.38,2.46C-5,58.7-4.86,60.42-3.18,61c2.83,1,8.58-.63,9.27-2.34.14-.36.37-.92.61-1.59a21.7,21.7,0,0,1,2-4.57l.45-.61c1-1.32,2.08-2.82,1.75-4.2C10.45,45.58,9.69,43.58,7.4,43c-1.3-.31-2.77.27-4.06.79S1,44.76.19,44.28c-.28-.16-.55-.34-.82-.52A6.27,6.27,0,0,0-4.34,42.4a4.12,4.12,0,0,0-2.1.47Z"/><path class="e54ec624-d53f-4d58-8d6e-9ed6d3aae248" d="M78.72,166.08a3.55,3.55,0,0,0-1.41-1.83l-.44-.37c-.18-.18.1-.62.4-1.1.4-.63.85-1.35.62-2-.39-1.09-2.31-1.12-2.66-1.12a3.24,3.24,0,0,0-1.68.23c-1.22.44-3.15,2.42-2.51,4.2a10.57,10.57,0,0,0,1.89,3.61c.69.85,3.06.43,4.43-.18C78.37,167.1,78.86,166.57,78.72,166.08Z"/><path class="b488eb8f-1655-42ad-8274-26dcb6906a4f" d="M78.68,166.09a3.11,3.11,0,0,0-1.45-1.72l-.49-.35a.46.46,0,0,1-.12-.46,1.43,1.43,0,0,1,.1-.33c.17-.39.38-.72.54-1a2.46,2.46,0,0,0,.35-1,.83.83,0,0,0-.33-.73,3.69,3.69,0,0,0-2-.65h0a3,3,0,0,0-2.06.4,4.34,4.34,0,0,0-1.48,1.56,2.74,2.74,0,0,0-.38,1.94,15.28,15.28,0,0,0,.83,2,9.49,9.49,0,0,0,1.16,1.77,2.63,2.63,0,0,0,1.81.32,8.91,8.91,0,0,0,2.15-.38,3.57,3.57,0,0,0,1-.48C78.5,166.77,78.78,166.44,78.68,166.09Zm.08,0a1,1,0,0,1-.46,1,5.18,5.18,0,0,1-1,.64,7.75,7.75,0,0,1-2.18.77,4.27,4.27,0,0,1-1.19.07,2,2,0,0,1-1.27-.5,7.58,7.58,0,0,1-1.28-2,14.5,14.5,0,0,1-.78-2.19,3.06,3.06,0,0,1,.66-2.31A5.8,5.8,0,0,1,73,160a4.18,4.18,0,0,1,2.26-.5h0a4,4,0,0,1,2.42.47,1.41,1.41,0,0,1,.63,1.27,2.71,2.71,0,0,1-.46,1.22l-.66.95c-.11.14-.15.34-.15.29l.41.4A4.33,4.33,0,0,1,78.76,166.07Z"/><path class="e54ec624-d53f-4d58-8d6e-9ed6d3aae248" d="M80.13,160s-.61-2.23,0-2.77,4.93.75,4.66,1.69-2.9-.34-3.45.34S80.35,161.16,80.13,160Z"/><path class="b488eb8f-1655-42ad-8274-26dcb6906a4f" d="M80.09,160c-.13-.57-.35-1.11-.46-1.72a1.62,1.62,0,0,1,.07-1,.75.75,0,0,1,.52-.45,1.35,1.35,0,0,1,.52,0,8.66,8.66,0,0,1,1.75.5c.55.2,1.12.35,1.68.59a1.84,1.84,0,0,1,.82.59.66.66,0,0,1,0,.73.75.75,0,0,1-.26.27,1.44,1.44,0,0,1-.3.12,5.56,5.56,0,0,1-1.86-.09,4.58,4.58,0,0,0-.77-.08l-.22,0a1.71,1.71,0,0,0-.28.27c-.2.21-.39.43-.62.65a1.15,1.15,0,0,1-.2.15.22.22,0,0,1-.27-.07A1.25,1.25,0,0,1,80.09,160Zm.08,0a.84.84,0,0,0,.15.39c.07.08.15,0,.23-.14s.23-.52.36-.8a2.13,2.13,0,0,1,.24-.43,1,1,0,0,1,.57-.3,3.54,3.54,0,0,1,1,0,9.53,9.53,0,0,0,1.6.19c.1,0,.14,0,.15-.06s0,0,0,0,0,0,0-.06a1.61,1.61,0,0,0-.5-.52,4.49,4.49,0,0,0-1.55-.72,5.69,5.69,0,0,0-1.68-.11,1.44,1.44,0,0,0-.34,0s-.06,0-.11.1a2.26,2.26,0,0,0-.19.71A4.12,4.12,0,0,0,80.17,160Z"/><path class="e54ec624-d53f-4d58-8d6e-9ed6d3aae248" d="M81.61,161.84c1-.21,3-.75,3.19.54s-.62,3.31-1.9,3-3-1.35-2.64-2.23A2.91,2.91,0,0,1,81.61,161.84Z"/><path class="b488eb8f-1655-42ad-8274-26dcb6906a4f" d="M81.6,161.8c.56-.11,1.07-.35,1.65-.48a2,2,0,0,1,.94,0A1.11,1.11,0,0,1,85,162a3.17,3.17,0,0,1-.21,1.81,3.83,3.83,0,0,1-.84,1.54,1.33,1.33,0,0,1-.93.38,2.89,2.89,0,0,1-.91-.18,4.3,4.3,0,0,1-1.58-.86,2,2,0,0,1-.58-.82,1,1,0,0,1,0-.59,1.18,1.18,0,0,1,.25-.46A4.34,4.34,0,0,1,81.6,161.8Zm0,.07a2.17,2.17,0,0,0-1,1.19.55.55,0,0,0,0,.54,2,2,0,0,0,.44.49,5.41,5.41,0,0,0,1.31.8c.52.21.9.39,1.34.13a2,2,0,0,0,.86-1.28,2.44,2.44,0,0,0-.13-1.49c-.15-.29-.62-.38-1.16-.46A4.82,4.82,0,0,0,81.63,161.87Z"/><path class="e54ec624-d53f-4d58-8d6e-9ed6d3aae248" d="M76.28,153.86a2.12,2.12,0,0,1-2.1,2.1c-.61.07-2.56-.54-2.36-1.62s.74-2.43,1.42-2.64S76.28,153.86,76.28,153.86Z"/><path class="b488eb8f-1655-42ad-8274-26dcb6906a4f" d="M76.31,153.85a1.8,1.8,0,0,1-.46,1.73,2.42,2.42,0,0,1-1.7.69,3.73,3.73,0,0,1-1.67-.67,2.18,2.18,0,0,1-.65-.6,1.3,1.3,0,0,1-.19-.45,2.23,2.23,0,0,1,0-.46,4.93,4.93,0,0,1,.45-1.7,2.46,2.46,0,0,1,.55-.79,1,1,0,0,1,.54-.29.81.81,0,0,1,.22,0l.15,0a1,1,0,0,1,.27.09A7.46,7.46,0,0,1,76.31,153.85Zm-.07,0c-.93-.56-1.86-1.32-2.72-1.73l-.13,0,0,0h0a.47.47,0,0,0-.18.1,1.88,1.88,0,0,0-.44.54,10,10,0,0,0-.67,1.44c-.27.48.06,1,.55,1.22a2.8,2.8,0,0,0,1.5.26,3.34,3.34,0,0,0,1.36-.51A2.19,2.19,0,0,0,76.24,153.88Z"/><path class="e54ec624-d53f-4d58-8d6e-9ed6d3aae248" d="M713.52,84.22a5.68,5.68,0,0,0-2.2-2.86c-.25-.2-.49-.39-.7-.59s.16-1,.63-1.72c.62-1,1.32-2.11,1-3.08-.61-1.71-3.63-1.76-4.16-1.75a5,5,0,0,0-2.65.35c-1.91.69-4.93,3.79-3.92,6.58a16.65,16.65,0,0,0,3,5.66c1.07,1.33,4.79.68,6.95-.29C713,85.82,713.74,85,713.52,84.22Z"/><path class="b488eb8f-1655-42ad-8274-26dcb6906a4f" d="M713.46,84.23a4.86,4.86,0,0,0-2.27-2.68l-.77-.55a.75.75,0,0,1-.19-.73,2.79,2.79,0,0,1,.16-.51c.26-.61.58-1.12.85-1.65a4.5,4.5,0,0,0,.55-1.48,1.33,1.33,0,0,0-.53-1.16,5.82,5.82,0,0,0-3.2-1h0a4.69,4.69,0,0,0-3.23.63,6.86,6.86,0,0,0-2.32,2.44,4.27,4.27,0,0,0-.6,3,25,25,0,0,0,1.3,3.13A15.16,15.16,0,0,0,705,86.46c.49.53,1.78.58,2.84.51a13.43,13.43,0,0,0,3.36-.61,5.53,5.53,0,0,0,1.55-.74A1.39,1.39,0,0,0,713.46,84.23Zm.11,0c.2.65-.29,1.21-.71,1.59a8,8,0,0,1-1.5,1A12.94,12.94,0,0,1,708,88a7.32,7.32,0,0,1-1.88.12,3.15,3.15,0,0,1-2-.8,12.3,12.3,0,0,1-2-3.11,21.72,21.72,0,0,1-1.22-3.43,4.77,4.77,0,0,1,1-3.62,9.24,9.24,0,0,1,2.69-2.41,6.39,6.39,0,0,1,3.53-.77h-.05a6.35,6.35,0,0,1,3.78.74,2.21,2.21,0,0,1,1,2,4.18,4.18,0,0,1-.73,1.91l-1,1.49a5,5,0,0,0-.23.46l.64.63A6.59,6.59,0,0,1,713.57,84.2Z"/><path class="e54ec624-d53f-4d58-8d6e-9ed6d3aae248" d="M715.73,74.72s-1-3.5,0-4.34,7.73,1.16,7.3,2.64-4.55-.53-5.4.53S716.08,76.51,715.73,74.72Z"/><path class="b488eb8f-1655-42ad-8274-26dcb6906a4f" d="M715.67,74.73c-.21-.89-.55-1.75-.73-2.7a2.65,2.65,0,0,1,.11-1.58,1.24,1.24,0,0,1,.81-.71,2.41,2.41,0,0,1,.83,0,12.91,12.91,0,0,1,2.73.79c.88.31,1.76.55,2.64.93a2.78,2.78,0,0,1,1.29.92,1.08,1.08,0,0,1,0,1.15,1.3,1.3,0,0,1-.42.42,1.9,1.9,0,0,1-.46.18,8.59,8.59,0,0,1-2.92-.14,7,7,0,0,0-1.2-.13,2.37,2.37,0,0,0-.34,0,4,4,0,0,0-.45.42c-.31.32-.61.68-1,1a1.65,1.65,0,0,1-.32.23.33.33,0,0,1-.42-.11A1.81,1.81,0,0,1,715.67,74.73Zm.11,0a1.71,1.71,0,0,0,.24.6c.12.13.25,0,.36-.22a11.87,11.87,0,0,0,.57-1.24,2.78,2.78,0,0,1,.38-.68,1.5,1.5,0,0,1,.9-.47,5.49,5.49,0,0,1,1.52,0,15.24,15.24,0,0,0,2.51.3.52.52,0,0,0,.25-.08s0,0,0,0,0,0,0-.09a2.27,2.27,0,0,0-.78-.82,6.87,6.87,0,0,0-2.42-1.12,8.51,8.51,0,0,0-2.64-.18,2.38,2.38,0,0,0-.53.08c-.06,0-.1,0-.17.16a3.47,3.47,0,0,0-.3,1.1A6.6,6.6,0,0,0,715.78,74.7Z"/><path class="e54ec624-d53f-4d58-8d6e-9ed6d3aae248" d="M718.06,77.57c1.48-.31,4.69-1.16,5,.85s-1,5.19-3,4.77-4.66-2.12-4.13-3.5A4.61,4.61,0,0,1,718.06,77.57Z"/><path class="b488eb8f-1655-42ad-8274-26dcb6906a4f" d="M718,77.52c.87-.18,1.67-.55,2.58-.75a3.12,3.12,0,0,1,1.46,0,1.78,1.78,0,0,1,1.3,1.09,5,5,0,0,1-.33,2.83,6,6,0,0,1-1.33,2.42,2.08,2.08,0,0,1-1.44.6,4.78,4.78,0,0,1-1.43-.28,7.08,7.08,0,0,1-2.48-1.35,3.34,3.34,0,0,1-.91-1.29,1.51,1.51,0,0,1-.06-.92,1.74,1.74,0,0,1,.39-.73A7,7,0,0,1,718,77.52Zm0,.11a3.36,3.36,0,0,0-1.61,1.86.88.88,0,0,0,0,.85,3,3,0,0,0,.69.76,8.68,8.68,0,0,0,2,1.26c.81.33,1.41.61,2.09.2a3.12,3.12,0,0,0,1.35-2,3.83,3.83,0,0,0-.19-2.34c-.24-.45-1-.6-1.83-.72A7.81,7.81,0,0,0,718.07,77.63Z"/><path class="e54ec624-d53f-4d58-8d6e-9ed6d3aae248" d="M709.69,65.08a3.29,3.29,0,0,1-3.28,3.28c-.95.11-4-.84-3.71-2.54s1.17-3.81,2.23-4.13S709.69,65.08,709.69,65.08Z"/><path class="b488eb8f-1655-42ad-8274-26dcb6906a4f" d="M709.75,65.06a2.85,2.85,0,0,1-.72,2.71,3.86,3.86,0,0,1-2.67,1.08,5.65,5.65,0,0,1-2.61-1,3.53,3.53,0,0,1-1-.94,2,2,0,0,1-.29-.7,3.39,3.39,0,0,1,0-.73,7.4,7.4,0,0,1,.7-2.65,4,4,0,0,1,.86-1.25,1.69,1.69,0,0,1,.85-.46,2,2,0,0,1,.35,0l.24,0a1.41,1.41,0,0,1,.41.14A11.6,11.6,0,0,1,709.75,65.06Zm-.11,0c-1.47-.87-2.92-2.06-4.27-2.7a.85.85,0,0,0-.21-.07l-.08,0h0a.57.57,0,0,0-.28.15,2.82,2.82,0,0,0-.69.84,15.25,15.25,0,0,0-1,2.27c-.42.75.1,1.52.86,1.9a4.39,4.39,0,0,0,2.36.41,5.18,5.18,0,0,0,2.12-.79A3.47,3.47,0,0,0,709.64,65.1Z"/><circle class="ed121175-e854-4244-83fa-344fbee3091a" cx="64.45" cy="250.09" r="28.02" transform="translate(-193.76 255.35) rotate(-76.72)"/><path class="a75cb2a4-36cc-41e3-bfa5-e8535521662a" d="M68.13,228.79c0,2.43-2.71,4.39-6,4.39s-6-2-6-4.39,2.7-4.39,6-4.39S68.13,226.36,68.13,228.79Z"/><path class="a75cb2a4-36cc-41e3-bfa5-e8535521662a" d="M84.48,260.85c1.37,2,.25,5.15-2.51,7s-6.1,1.8-7.48-.2-.25-5.16,2.51-7S83.1,258.85,84.48,260.85Z"/><path class="a75cb2a4-36cc-41e3-bfa5-e8535521662a" d="M73.4,231c0,.77-.9,1.4-2,1.4s-2-.63-2-1.4.9-1.39,2-1.39S73.4,230.2,73.4,231Z"/><path class="bae6ea8c-1bf7-4615-b2cb-323fa91946d3" d="M78,225.59c.84,2,1.66,4.39,1.44,5.37-.41,1.89.08,8.45,2.66,9.44s5.66.5,6,2.78,0,7,1.19,8.24a8,8,0,0,0,3,1.42c.09-.9.14-1.82.14-2.75A28,28,0,0,0,78,225.59Z"/><path class="bae6ea8c-1bf7-4615-b2cb-323fa91946d3" d="M51.55,225.22a4,4,0,0,0-.38,2.18c.6,5,7.45,11.41,14.3,9.52,5-1.36,10.62-.69,11.51-5.26.53-2.69-1.51-5.86-3.27-8a28.13,28.13,0,0,0-9.26-1.57A27.83,27.83,0,0,0,51.55,225.22Z"/><path class="ab8274a0-9e75-4419-86e3-dbf7cf61e8ba" d="M85.54,268.52c-4.24,2.36-11.62,5.46-19.11,4.63-23.09-2.57-25.85-20.85-28.53-32a28,28,0,0,0,47.64,27.4Z"/><path class="a38a6bf7-9f6e-45b2-821b-70d7cbdb934e" d="M49.34,261.27a.72.72,0,1,1-.72-.72A.72.72,0,0,1,49.34,261.27Z"/><path class="a38a6bf7-9f6e-45b2-821b-70d7cbdb934e" d="M52,259.76a.8.8,0,0,1-.8.79.8.8,0,0,1,0-1.59A.8.8,0,0,1,52,259.76Z"/><circle class="a38a6bf7-9f6e-45b2-821b-70d7cbdb934e" cx="53.06" cy="264.32" r="1.09"/><circle class="a38a6bf7-9f6e-45b2-821b-70d7cbdb934e" cx="70.7" cy="261.62" r="1.86"/><circle class="a38a6bf7-9f6e-45b2-821b-70d7cbdb934e" cx="74.32" cy="258.69" r="0.92"/><path class="a38a6bf7-9f6e-45b2-821b-70d7cbdb934e" d="M53.21,233.57a1.22,1.22,0,1,1-2.43,0,1.22,1.22,0,0,1,2.43,0Z"/><path class="a38a6bf7-9f6e-45b2-821b-70d7cbdb934e" d="M48,236.43a.7.7,0,1,1-.7-.7A.69.69,0,0,1,48,236.43Z"/><path class="a38a6bf7-9f6e-45b2-821b-70d7cbdb934e" d="M52.27,236.92a1.2,1.2,0,1,1-1.2-1.19A1.2,1.2,0,0,1,52.27,236.92Z"/><path class="bae6ea8c-1bf7-4615-b2cb-323fa91946d3" d="M48,244.14s.46-2.39,4-2.39,3.75.31,7.37-.63,9,1,9.5,4.42-4.48,7.82-5.38,11.19-3.75,6.48-7.43,3.82-6-3.82-9.42-5.87S43.9,244.88,48,244.14Z"/><path class="f4e5e9a5-7767-463c-ace9-8f0ea94ef077" d="M64.45,278.61A28.52,28.52,0,1,1,93,250.09,28.55,28.55,0,0,1,64.45,278.61Zm0-56A27.52,27.52,0,1,0,92,250.09,27.54,27.54,0,0,0,64.45,222.57Z"/><circle class="ab2d0d29-b2df-4d02-80e9-45e0ad614a39" cx="759.95" cy="310.47" r="91.09"/><path class="b31c189d-3400-470d-8ecf-b488cf4eb3de" d="M807.35,372.45c-12.58,7.69-31.44-.69-47.5-.69s-24.45,11.17-37.73,8.38-9.78-4.19-26.54-21.66a84.46,84.46,0,0,0-21-16.12A91.1,91.1,0,0,0,851,310.47C825.59,308.55,819.92,364.77,807.35,372.45Z"/><path class="b31c189d-3400-470d-8ecf-b488cf4eb3de" d="M848.4,288.61A91.14,91.14,0,0,0,725.83,226c10.87,6.73,24.21,12.68,37,12.23,28.6-1,51,1.53,57.13,17.83C824.13,267.16,835.86,282.52,848.4,288.61Z"/><path class="b4a4b378-b5ee-4cc7-92b1-bfa907891321" d="M848.94,290.94c-22.32-6.33-35.91-4.8-55.7-2.57-11.48,1.3-24.48,2.76-42.62,3.22-23.57.6-43.93-8.14-60.39-26-2-2.19-3.85-4.38-5.5-6.53-1,1.38-1.85,2.78-2.72,4.21,1.42,1.78,3,3.59,4.63,5.4,12,13,32.85,28.43,64.1,27.62,18.34-.46,32-2,43-3.25,20.49-2.31,33.46-3.77,56.15,3.06Q849.5,293.52,848.94,290.94Z"/><path class="a0d6f1c9-f30b-4dd4-b53f-95592f054810" d="M708.1,310.42c-19.49-6.63-29.9-17.15-35.44-26.05a91.62,91.62,0,0,0-1,48.59c33,21.14,90,22.61,98.32,9.75C779.88,327.45,747.29,323.74,708.1,310.42Z"/><path class="a19a7b71-4934-42ce-abd5-8e2137b8778c" d="M753.38,248.82c-21.32-1.81-32.69-10.76-38.38-17.6a91.86,91.86,0,0,0-25.42,21.4c6.45,6.95,18.21,15.58,39.42,22.25,31,9.72,83.48.33,82.14-8S788.77,251.83,753.38,248.82Z"/><path class="a3851c6b-01f1-4d22-8afd-57d61298ee66" d="M706.37,256.41a9.23,9.23,0,0,0,1.6,1.92c3.51,3.36,17.69,15.28,42.17,15.45,28.49.19,40.67-2.56,38.71-6.49s-32-1.18-48.34-8.05C724.79,252.61,700.84,247.44,706.37,256.41Z"/><path class="a3647333-eae6-47b1-a570-8477c5a7af67" d="M739.2,388.43s16-12.14,22.82-12.14,35.92,5.1,34.47,8.25S767.6,397.89,758.38,396,730.19,394.59,739.2,388.43Z"/><path class="fdaa8a93-e3d7-4f0f-a8d9-b7048ffbb03d" d="M677.79,302.69a4.78,4.78,0,0,1,2.84,1.36,59.93,59.93,0,0,0,22.24,13.26c13.9,4.35,46.92,9.56,48.08,13.62s-40.84,3.47-49.53,0C693.21,327.64,669,301.88,677.79,302.69Z"/><path class="a6988685-11c8-4ef5-be28-db32c560980b" d="M760,402.5a92,92,0,1,1,92-92A92.13,92.13,0,0,1,760,402.5Zm0-182.18a90.15,90.15,0,1,0,90.15,90.15A90.25,90.25,0,0,0,760,220.32Z"/><circle class="f9adbb7d-3063-45f0-8a18-c70e2ebb444d" cx="572.17" cy="-50.76" r="153.59" transform="translate(203.48 389.72) rotate(-45)"/><path class="e67c5b2b-1407-4cdb-866a-43b4b0af33bf" d="M431.58,11.16a153.66,153.66,0,0,0,167,89.4,153.24,153.24,0,0,0,54.76-20.87c-20-8-43.89-14.06-65-9.61-47.21,10-85.2,12.24-100.08-13.08C478.11,39.76,454.17,17.65,431.58,11.16Z"/><path class="b8ecec59-02e6-46b6-a780-ed5640e2ad5a" d="M430,7.44c38.91,4.06,61-2.41,93.27-11.86C542-9.89,563.14-16.1,593.15-22.11c39-7.82,75.32.8,107.82,25.66,4,3,7.67,6.16,11,9.24,1.16-2.56,2.27-5.15,3.29-7.77-2.88-2.55-6-5.11-9.25-7.63-23.69-18.18-62.8-37.71-114.47-27.32C561.23-23.85,539-17.32,521-12.07c-33.36,9.78-54.5,16-94.16,11.17C427.84,1.93,428.89,4.71,430,7.44Z"/><path class="a80bdde4-f993-4cf4-bcad-ca41c9df3146" d="M600.94,49.73c35.93-3.16,57.42,8.41,68.84,18.12a154.28,154.28,0,0,0,36-42.9C693.09,15.28,671.06,4.34,633.89-.59,579.67-7.78,495.13,23,499.77,36.51S541.28,55,600.94,49.73Z"/><path class="e67c5b2b-1407-4cdb-866a-43b4b0af33bf" d="M676.83,23.51a16.87,16.87,0,0,0-3.22-2.73C666.82,16.23,639.81.54,599.1,7.35c-47.39,7.92-66.83,16-62.42,22s53.54-7.32,82.62-.62C647.34,35.17,688.62,36.82,676.83,23.51Z"/><path class="f2a0751e-7b0a-4c05-89ac-8c5a652828ca" d="M545.52-203.64c84.3-14.7,164.84,41.93,179.53,126.23S683.12,87.43,598.82,102.13,434,60.2,419.29-24.1,461.22-188.94,545.52-203.64ZM598.27,99c82.57-14.39,138-93.27,123.64-175.84s-93.28-138-175.85-123.64S408-107.22,422.43-24.65,515.71,113.38,598.27,99Z"/><path class="ab2d0d29-b2df-4d02-80e9-45e0ad614a39" d="M86.27,119.57c-.82,0-1.65,0-2.47,0a61.9,61.9,0,0,1-21-4.21A45.54,45.54,0,0,1,53,110a36.11,36.11,0,0,1-8.14-8,32.24,32.24,0,0,1-5.11-10.43,36,36,0,0,1-1.25-11.47A49.68,49.68,0,0,1,44.93,59,79.59,79.59,0,0,1,57.71,42.06,111.77,111.77,0,0,1,73.52,28.55a130.86,130.86,0,0,1,14-8.75c-8.94,7.92-18,16.54-25.36,26.12A92.79,92.79,0,0,0,56.49,54a81.7,81.7,0,0,0-4.67,8.49,46.59,46.59,0,0,0-4.65,17.94,27.56,27.56,0,0,0,10.64,23.18,38.51,38.51,0,0,0,7.89,4.86c5.06,2.37,11,4,18.56,5.07a108.49,108.49,0,0,0,13.8.91c2.07,0,4.13-.07,6.15-.19a110.08,110.08,0,0,0,20.08-3,137.12,137.12,0,0,0,19.38-6.47c11-4.56,22.53-11.14,35.13-20.12a161.59,161.59,0,0,0,15.42-12.3A72.41,72.41,0,0,0,206.69,57.5a47.37,47.37,0,0,0,6.68-18.09,43.33,43.33,0,0,0,.28-9.92l-.5-5.41a37.36,37.36,0,0,1,3.57,15.52,44.66,44.66,0,0,1-5,20.68,64.47,64.47,0,0,1-12.76,17A83.84,83.84,0,0,1,182.26,90a135.24,135.24,0,0,1-18.77,8.88c-5.54,2.19-11.22,4.19-16.72,6.12l-2.66.94c-12.6,4.45-25.64,9.06-39.48,11.72-4.11.76-7.29,1.23-10.32,1.5S88.74,119.57,86.27,119.57ZM97.45,97.9c-12,0-20.58-3.24-24-9.12l0-.07-.05-.06a24.78,24.78,0,0,1-2.66-3.92L72,78.1C75.39,61.82,97.87,40.88,128,26c20.58-10.18,41.79-16,58.2-16,12.56,0,21.23,3.49,24.42,9.84l.48.95.13-.07a28.55,28.55,0,0,1,1.58,2.68l-1.12,6c-3,16.09-26,37.69-56,52.53C135.05,92.06,113.85,97.9,97.45,97.9Zm100.69-5.38c8.47-7.83,17-16.41,24-26.19a82.07,82.07,0,0,0,9.24-16.59,44.85,44.85,0,0,0,3.54-17.69,32.49,32.49,0,0,0-1.3-8.55c-.12-.42-.27-.84-.41-1.26-.09-.24-.18-.49-.26-.74l0-.1c-.1-.24-.21-.48-.31-.73-.16-.41-.33-.81-.53-1.21-.1-.19-.18-.37-.27-.56a15,15,0,0,0-.72-1.37l-.49-.88-.61-.93A34.5,34.5,0,0,0,216.51,4.23,61.77,61.77,0,0,0,198.6-1.16a93.77,93.77,0,0,0-13.47-1c-2,0-4,.07-5.94.21a94.6,94.6,0,0,0-19.52,3.31c-1,.27-2.08.6-3.09.92-.55.17-1.1.35-1.66.51l-1.17.41c-1.19.41-2.37.83-3.55,1.27L145.56,6.3l-1.63.7c-1,.42-2,.84-3,1.28-12.83,5.74-24.49,13.3-34.21,19.93-5,3.49-10.41,7.31-15.51,11.56A78.8,78.8,0,0,0,78.11,53.52a41.42,41.42,0,0,0-7.6,17A34,34,0,0,0,70.05,78l.32,6.24A30,30,0,0,1,67.21,70.3a35.78,35.78,0,0,1,1.73-10.36,45.08,45.08,0,0,1,4.37-9.54A67.82,67.82,0,0,1,86.73,34.59a97,97,0,0,1,8-6.42c3-2.11,5.84-3.9,8.59-5.44a151.71,151.71,0,0,1,18.3-8.59c3-1.19,5.91-2.3,9.4-3.62,1.57-.57,3.15-1.14,4.72-1.75,1.22-.43,2.44-.89,3.67-1.35l10.42-3.88c3.45-1.31,6.54-2.41,9.46-3.37,3.21-1.09,6.52-2.07,9.63-3,1.72-.47,3.29-.88,4.88-1.25l2.48-.6,2.48-.51A89.21,89.21,0,0,1,196.37-7c.92,0,1.85,0,2.77,0a57.05,57.05,0,0,1,20.48,4.53A46.8,46.8,0,0,1,229,3a37.74,37.74,0,0,1,7.79,7.92,33.54,33.54,0,0,1,5.09,10A37.48,37.48,0,0,1,243.58,32a47.89,47.89,0,0,1-5.13,20.9,69.89,69.89,0,0,1-5.3,9.07,88.94,88.94,0,0,1-6.44,8.1,92.18,92.18,0,0,1-7.22,7.23l-.72.64c-1,.9-2.06,1.82-3.11,2.68l-.54.43c-1.13.9-2.28,1.82-3.45,2.68A119.54,119.54,0,0,1,198.14,92.52Z"/><path class="f4dda856-17fb-4d4d-940d-02a378ec0a9f" d="M196.37-6c.91,0,1.83,0,2.73,0a56.12,56.12,0,0,1,20.12,4.45,45.09,45.09,0,0,1,9.2,5.31A36.7,36.7,0,0,1,236,11.48,32.62,32.62,0,0,1,241,21.22,36.4,36.4,0,0,1,242.58,32a46.77,46.77,0,0,1-5,20.48,67.65,67.65,0,0,1-5.21,8.93,87,87,0,0,1-6.37,8,93.17,93.17,0,0,1-7.12,7.13l-.74.65c-1,.89-2,1.81-3.06,2.64l-.54.43c-1.16.94-2.27,1.82-3.44,2.67-1.76,1.33-3.56,2.6-5.39,3.83a148.88,148.88,0,0,0,17.24-19.83,82.92,82.92,0,0,0,9.36-16.8,45.68,45.68,0,0,0,3.61-18.06,33.85,33.85,0,0,0-1.33-8.81c-.14-.47-.29-.91-.44-1.33-.08-.24-.17-.48-.25-.71l0-.11,0-.1c-.11-.23-.21-.46-.3-.7-.17-.41-.35-.84-.57-1.28l-.26-.54a15.27,15.27,0,0,0-.75-1.43l-.49-.88,0-.06,0-.05-.57-.88A35.4,35.4,0,0,0,217,3.34a62.66,62.66,0,0,0-18.23-5.49,94,94,0,0,0-13.6-1c-2,0-4,.07-6,.21a91.86,91.86,0,0,0-10.28,1.21l.31-.09c1.5-.4,3.18-.86,4.87-1.25l2.46-.59L179-4.18A88.8,88.8,0,0,1,196.37-6M134,10.52a250.22,250.22,0,0,0-27.77,16.87c-5.06,3.5-10.45,7.33-15.59,11.62A79.66,79.66,0,0,0,77.3,52.93a42.35,42.35,0,0,0-7.77,17.48A34.34,34.34,0,0,0,69,77.69a30.81,30.81,0,0,1-.83-7.38,34.9,34.9,0,0,1,1.68-10.05,44.82,44.82,0,0,1,4.28-9.36A66.9,66.9,0,0,1,87.4,35.34,93.67,93.67,0,0,1,95.3,29c3-2.11,5.8-3.87,8.53-5.4A151.14,151.14,0,0,1,122,15.07c3.22-1.27,6.5-2.52,9.36-3.6l2.6-1m52.23.46c12.16,0,20.52,3.29,23.53,9.29l1,1.89.2-.12c.3.48.59,1,.86,1.49l-1.05,5.65C207.74,45,184.92,66.28,155.18,81,134.74,91.1,113.7,96.9,97.45,96.9c-11.67,0-19.9-3.06-23.17-8.62l-.09-.15-.1-.12a23.63,23.63,0,0,1-2.38-3.44L73,78.3c3.25-15.74,26-36.88,55.41-51.41C148.87,16.78,169.92,11,186.18,11M79.64,25.6A166.8,166.8,0,0,0,61.37,45.31a93.34,93.34,0,0,0-5.72,8.17,80.36,80.36,0,0,0-4.74,8.62,47.59,47.59,0,0,0-4.74,18.31,28.59,28.59,0,0,0,11,24,39.38,39.38,0,0,0,8.1,5c5.15,2.42,11.14,4.06,18.87,5.17a110.12,110.12,0,0,0,13.92.91c2.08,0,4.16-.07,6.19-.2a112.7,112.7,0,0,0,12-1.35c-3.89,1-7.83,2-11.83,2.76s-7.23,1.21-10.24,1.48-5.5.41-7.94.41c-.82,0-1.64,0-2.45,0a60.67,60.67,0,0,1-20.68-4.14,45,45,0,0,1-9.56-5.19,35.49,35.49,0,0,1-7.93-7.82A31.43,31.43,0,0,1,40.7,91.26a35,35,0,0,1-1.22-11.13A48.87,48.87,0,0,1,45.8,59.49,78.84,78.84,0,0,1,58.43,42.75,110.08,110.08,0,0,1,74.11,29.36c1.81-1.3,3.66-2.56,5.53-3.76M214.8,31.9a40.77,40.77,0,0,1,.92,7.71,43.62,43.62,0,0,1-4.86,20.22,63.71,63.71,0,0,1-12.58,16.79,82.32,82.32,0,0,1-16.53,12.52A134.46,134.46,0,0,1,163.12,98c-3.65,1.45-7.38,2.81-11.07,4.13a195.66,195.66,0,0,0,27.33-16.62,163.62,163.62,0,0,0,15.53-12.38A73.62,73.62,0,0,0,207.55,58a48.52,48.52,0,0,0,6.81-18.48,45.57,45.57,0,0,0,.44-7.64M196.37-8a90.84,90.84,0,0,0-17.81,1.9l-2.5.52L173.58-5c-1.66.39-3.29.83-4.93,1.27-3.25.94-6.48,1.9-9.67,3s-6.36,2.2-9.49,3.38L140.1,6.1c-1.56.58-3.13,1.18-4.71,1.74S132.26,9,130.68,9.58c-3.14,1.19-6.29,2.39-9.42,3.64a150.36,150.36,0,0,0-18.42,8.64c-3,1.67-5.86,3.53-8.69,5.5a97.78,97.78,0,0,0-8.09,6.49,69.69,69.69,0,0,0-13.61,16A46.19,46.19,0,0,0,68,59.65a36.67,36.67,0,0,0-1.78,10.64,29.39,29.39,0,0,0,6.34,19c3.8,6.45,12.83,9.61,24.9,9.61,15.91,0,37.12-5.48,58.62-16.12,31.31-15.49,53.58-37.13,56.58-53.24v0a42.3,42.3,0,0,1-.28,9.69A46.42,46.42,0,0,1,205.84,57a71.33,71.33,0,0,1-12.29,14.64,160.1,160.1,0,0,1-15.33,12.22c-10.75,7.67-22.39,14.84-34.94,20a136,136,0,0,1-19.23,6.43,108.88,108.88,0,0,1-19.91,3c-2,.12-4,.19-6.07.19a106.51,106.51,0,0,1-13.67-.9,64.92,64.92,0,0,1-18.28-5,37.25,37.25,0,0,1-7.68-4.73A26.51,26.51,0,0,1,48.17,80.48a45.71,45.71,0,0,1,4.56-17.54,78.23,78.23,0,0,1,4.61-8.39,92.42,92.42,0,0,1,5.61-8c8-10.45,18-19.67,28.28-28.67L90.67,17a130.87,130.87,0,0,0-17.73,10.7A112.49,112.49,0,0,0,57,41.36,81.42,81.42,0,0,0,44.05,58.53,50.79,50.79,0,0,0,37.49,80,37.19,37.19,0,0,0,38.78,91.8,33,33,0,0,0,44,102.56a37.62,37.62,0,0,0,8.36,8.26,47,47,0,0,0,10,5.43,63,63,0,0,0,21.36,4.28c.84,0,1.68,0,2.51,0,2.73,0,5.44-.16,8.13-.42,3.52-.31,7-.87,10.42-1.51,13.72-2.63,26.73-7.2,39.63-11.76,6.46-2.28,13-4.52,19.41-7.07a135.8,135.8,0,0,0,18.91-8.94A85,85,0,0,0,199.69,78a65.94,65.94,0,0,0,13-17.31,45.79,45.79,0,0,0,5.07-21.15c-.18-7.26-2.1-14.43-6.21-20.22h0C208,12.38,198.73,9,186.18,9,170.25,9,149,14.46,127.53,25.1c-31,15.35-53.16,36.73-56.48,52.8a32.1,32.1,0,0,1,.45-7.15,40.41,40.41,0,0,1,7.42-16.64,78.34,78.34,0,0,1,13-13.57C96.76,36.47,102,32.73,107.32,29c10.69-7.31,22-14.44,34.05-19.84,1.51-.68,3-1.31,4.56-2l4.62-1.82c1.55-.58,3.1-1.11,4.66-1.66s3.13-1,4.72-1.43A94.63,94.63,0,0,1,179.26-1q2.94-.2,5.87-.2a91.56,91.56,0,0,1,13.31,1,60.6,60.6,0,0,1,17.62,5.3,33.37,33.37,0,0,1,13,11.14l.58.87.51.91c.36.6.63,1.24.94,1.86s.55,1.27.83,1.9.47,1.3.66,2a31.52,31.52,0,0,1,1.26,8.3,43.79,43.79,0,0,1-3.47,17.28,80.6,80.6,0,0,1-9.13,16.39c-7.41,10.47-16.85,19.72-26.72,28.71l.57.82a120,120,0,0,0,17.13-10.77c1.37-1,2.69-2.07,4-3.13s2.59-2.23,3.87-3.36a95,95,0,0,0,7.3-7.31,90.11,90.11,0,0,0,6.51-8.2,70.38,70.38,0,0,0,5.38-9.19A49.22,49.22,0,0,0,244.58,32a38.35,38.35,0,0,0-1.72-11.35,35.15,35.15,0,0,0-5.24-10.32,38.76,38.76,0,0,0-8-8.12A46.28,46.28,0,0,0,220-3.37,58,58,0,0,0,199.18-8c-.94,0-1.88,0-2.81,0Z"/><path class="bb0dbfeb-8136-4b0a-a57c-0035bf47c3a9" d="M162.73,110.75s-77.2,44.15-120.65,3C42.08,113.75,63,175.92,162.73,110.75Z"/><path class="bb0dbfeb-8136-4b0a-a57c-0035bf47c3a9" d="M127.4,139.31s55-3.43,108.53-62.5c0,0-39.27,26.26-54.43,35.73C168.56,120.62,127.4,139.31,127.4,139.31Z"/><path class="bb0dbfeb-8136-4b0a-a57c-0035bf47c3a9" d="M72.33,101.22S45.72,81,68.88,48.68C68.88,48.68,31.26,81.46,72.33,101.22Z"/><path class="bb0dbfeb-8136-4b0a-a57c-0035bf47c3a9" d="M241.07-5.3s27.24,25.5,5.07,65C246.14,59.72,279.16,25.82,241.07-5.3Z"/><path class="bb0dbfeb-8136-4b0a-a57c-0035bf47c3a9" d="M86.45,83.77s-15.94-22,46.32-48.08C132.77,35.69,90.27,61.09,86.45,83.77Z"/><path class="bb0dbfeb-8136-4b0a-a57c-0035bf47c3a9" d="M122.3,85.46S181.57,61,201,26C201,26,193.32,66.47,122.3,85.46Z"/><path class="bb0dbfeb-8136-4b0a-a57c-0035bf47c3a9" d="M119.49-6.5c-1.84,0-61.09,22-83.59,65.68,0,0,3.67-46.39,81.75-65.68"/><path class="bb0dbfeb-8136-4b0a-a57c-0035bf47c3a9" d="M111.54,7.26s66-46.9,123-25.73C234.56-18.47,195-29.29,111.54,7.26Z"/><g class="edfe99f5-8fc2-426f-b521-cb732868c538"><path class="e22b05ca-b5d7-4f2b-912c-a622e1678eed" d="M150.18,34.18a2.6,2.6,0,0,1-2-4.76c9.44-5.5,22.33-11.06,34-9.41C193,21.54,181.41,43.49,171,47.34s8.85-17.32-3.08-16.55A103.38,103.38,0,0,0,150.18,34.18Z"/></g><g class="edfe99f5-8fc2-426f-b521-cb732868c538"><path class="e22b05ca-b5d7-4f2b-912c-a622e1678eed" d="M101.05,75.92,155.1,58.81S111,89.91,101.05,75.92Z"/></g><polygon class="b782667f-eab6-4550-a140-fafac44d3114" points="666.1 154.82 665.28 158.1 647.06 175.97 613.04 149.51 612.87 146.47 666.1 154.82"/><polygon class="ac4a0dba-f24a-4f02-ab1c-30970391da0e" points="631.07 130.07 666.1 154.82 646.57 173.07 612.87 146.47 631.07 130.07"/><path class="bab4cbfc-d0ef-41d0-8aea-92ca0a156103" d="M648.3,171.46,664.79,156l1.05-1.4-8.63-6.1c-5.22,3.86-14.88,10.61-19.13,11-6,.58-14-4.21-14.61-4.71h0l22,17.4Z"/><rect class="b9831036-43a9-4169-b8d4-dcb8d51f045a" x="633.9" y="154.13" width="54.43" height="35.51" rx="14.63" transform="translate(62.47 500.9) rotate(-43.37)"/><path class="e2e45207-da6e-4664-bdfe-7fa8b9966592" d="M687,166.54c-2.43-.79-5.25-1.63-6.1-1.56-1.59.14-16.47,15.12-19,17.2a7.13,7.13,0,0,0-2,4,1.14,1.14,0,0,1-2.14.26c-1.61-3.27-4.22-7.82-7.27-10.26-3.75-3-9.83-5.15-12.76-6.08a14.63,14.63,0,0,0,1.5,18.19l4.3,4.55a14.62,14.62,0,0,0,20.68.59l18.3-17.28A14.58,14.58,0,0,0,687,166.54Z"/><path class="f30d5422-aea5-408a-9a80-f833fbf3002a" d="M681.86,154.22l-3.11-3.29a14.63,14.63,0,0,0-20.68-.59l-18,17-.31.81s24.09-17.69,31.3-16.77A46.59,46.59,0,0,1,681.86,154.22Z"/><path class="a18db971-db84-4281-a9ef-d2f58059127b" d="M687.79,166a15.34,15.34,0,0,0-4.2-11l-4.3-4.55a15.38,15.38,0,0,0-21.73-.62l-18.3,17.29a15.39,15.39,0,0,0-.62,21.74l4.3,4.55a15.38,15.38,0,0,0,21.73.62l18.12-17.12-.51-.54.36-.34.51.54A15.29,15.29,0,0,0,687.79,166Zm-5.85,9.65-18.3,17.29a13.75,13.75,0,0,1-9.92,3.77,13.53,13.53,0,0,1-1.81-.16,13.75,13.75,0,0,1-7.88-4.17l-4.3-4.55a13.88,13.88,0,0,1,.56-19.62l18.3-17.29a13.88,13.88,0,0,1,19.61.56l4.3,4.55a13.86,13.86,0,0,1-.56,19.62Z"/><path class="a645badf-6ce7-4c02-b52a-f0535a761b08" d="M653.22,222.17s15.42-18-4.88-39.64c-19.74-21-39.3-7.13-39.3-7.13Z"/><ellipse class="f6815fa3-d714-455b-ba6e-7137c65266b0" cx="631.13" cy="198.79" rx="11.32" ry="32.17" transform="translate(35.82 487.65) rotate(-43.37)"/><path class="a7f142f8-a368-4fd8-957f-b672731e167e" d="M654.69,217.55c-.26-6.32-6.06-16.73-15.33-26.54-10.07-10.66-21.08-17.28-27.17-16.85h0s9,1.3,13.34,9.08,3.45,14.57,13.3,20.41a76.13,76.13,0,0,1,15.86,13.9Z"/><polygon class="f6815fa3-d714-455b-ba6e-7137c65266b0" points="715.57 193.41 714.76 196.69 696.54 214.56 662.52 188.1 662.34 185.06 715.57 193.41"/><path class="ed121175-e854-4244-83fa-344fbee3091a" d="M683.83,171l31.74,22.43-19.52,18.25-33.71-26.6,15.21-13.71A5,5,0,0,1,683.83,171Z"/><path class="a645badf-6ce7-4c02-b52a-f0535a761b08" d="M715.57,193.41l-8.18-5.78,1.8,4.85s-10.73,4.35-17.45,3.29-29.4-10.71-29.4-10.71l33.71,26.6Z"/><path class="ed121175-e854-4244-83fa-344fbee3091a" d="M640.4,191.79c-.84-.92-1.76-1.82-2.45-2.46l-15.29,14.91a3.13,3.13,0,0,0-.62-.16,3.72,3.72,0,1,0,3.1,4.26,3.76,3.76,0,0,0-.1-1.57Z"/><path class="a645badf-6ce7-4c02-b52a-f0535a761b08" d="M627.13,203.19c-.53.1-1.3-.42-2.14-1.22l-2.33,2.27a3.13,3.13,0,0,0-.62-.16,3.72,3.72,0,1,0,3.1,4.26,3.76,3.76,0,0,0-.1-1.57l4.47-4.35A17.06,17.06,0,0,1,627.13,203.19Z"/></g></g></g></svg>